%TF.GenerationSoftware,KiCad,Pcbnew,9.0.6*%
%TF.CreationDate,2026-03-04T20:30:08-06:00*%
%TF.ProjectId,W2I-S100,5732492d-5331-4303-902e-6b696361645f,rev?*%
%TF.SameCoordinates,Original*%
%TF.FileFunction,Soldermask,Bot*%
%TF.FilePolarity,Negative*%
%FSLAX46Y46*%
G04 Gerber Fmt 4.6, Leading zero omitted, Abs format (unit mm)*
G04 Created by KiCad (PCBNEW 9.0.6) date 2026-03-04 20:30:08*
%MOMM*%
%LPD*%
G01*
G04 APERTURE LIST*
G04 Aperture macros list*
%AMRoundRect*
0 Rectangle with rounded corners*
0 $1 Rounding radius*
0 $2 $3 $4 $5 $6 $7 $8 $9 X,Y pos of 4 corners*
0 Add a 4 corners polygon primitive as box body*
4,1,4,$2,$3,$4,$5,$6,$7,$8,$9,$2,$3,0*
0 Add four circle primitives for the rounded corners*
1,1,$1+$1,$2,$3*
1,1,$1+$1,$4,$5*
1,1,$1+$1,$6,$7*
1,1,$1+$1,$8,$9*
0 Add four rect primitives between the rounded corners*
20,1,$1+$1,$2,$3,$4,$5,0*
20,1,$1+$1,$4,$5,$6,$7,0*
20,1,$1+$1,$6,$7,$8,$9,0*
20,1,$1+$1,$8,$9,$2,$3,0*%
G04 Aperture macros list end*
%ADD10C,0.806000*%
%ADD11C,1.700000*%
%ADD12R,1.700000X1.700000*%
%ADD13R,2.794000X7.620000*%
%ADD14R,1.778000X7.620000*%
%ADD15R,2.000000X2.000000*%
%ADD16C,1.600000*%
%ADD17RoundRect,0.250000X0.550000X-0.550000X0.550000X0.550000X-0.550000X0.550000X-0.550000X-0.550000X0*%
%ADD18RoundRect,0.250000X-0.600000X0.600000X-0.600000X-0.600000X0.600000X-0.600000X0.600000X0.600000X0*%
%ADD19C,4.000000*%
%ADD20R,1.600000X1.600000*%
%ADD21C,3.000000*%
%ADD22C,2.000000*%
%ADD23RoundRect,0.250000X-0.550000X-0.550000X0.550000X-0.550000X0.550000X0.550000X-0.550000X0.550000X0*%
G04 APERTURE END LIST*
%TO.C,J2*%
D10*
X35153000Y-38000000D02*
G75*
G02*
X34347000Y-38000000I-403000J0D01*
G01*
X34347000Y-38000000D02*
G75*
G02*
X35153000Y-38000000I403000J0D01*
G01*
X35153000Y-40000000D02*
G75*
G02*
X34347000Y-40000000I-403000J0D01*
G01*
X34347000Y-40000000D02*
G75*
G02*
X35153000Y-40000000I403000J0D01*
G01*
X37153000Y-38000000D02*
G75*
G02*
X36347000Y-38000000I-403000J0D01*
G01*
X36347000Y-38000000D02*
G75*
G02*
X37153000Y-38000000I403000J0D01*
G01*
X37153000Y-40000000D02*
G75*
G02*
X36347000Y-40000000I-403000J0D01*
G01*
X36347000Y-40000000D02*
G75*
G02*
X37153000Y-40000000I403000J0D01*
G01*
X39153000Y-38000000D02*
G75*
G02*
X38347000Y-38000000I-403000J0D01*
G01*
X38347000Y-38000000D02*
G75*
G02*
X39153000Y-38000000I403000J0D01*
G01*
X39153000Y-40000000D02*
G75*
G02*
X38347000Y-40000000I-403000J0D01*
G01*
X38347000Y-40000000D02*
G75*
G02*
X39153000Y-40000000I403000J0D01*
G01*
X41153000Y-38000000D02*
G75*
G02*
X40347000Y-38000000I-403000J0D01*
G01*
X40347000Y-38000000D02*
G75*
G02*
X41153000Y-38000000I403000J0D01*
G01*
X41153000Y-40000000D02*
G75*
G02*
X40347000Y-40000000I-403000J0D01*
G01*
X40347000Y-40000000D02*
G75*
G02*
X41153000Y-40000000I403000J0D01*
G01*
X43153000Y-38000000D02*
G75*
G02*
X42347000Y-38000000I-403000J0D01*
G01*
X42347000Y-38000000D02*
G75*
G02*
X43153000Y-38000000I403000J0D01*
G01*
X43153000Y-40000000D02*
G75*
G02*
X42347000Y-40000000I-403000J0D01*
G01*
X42347000Y-40000000D02*
G75*
G02*
X43153000Y-40000000I403000J0D01*
G01*
X45153000Y-38000000D02*
G75*
G02*
X44347000Y-38000000I-403000J0D01*
G01*
X44347000Y-38000000D02*
G75*
G02*
X45153000Y-38000000I403000J0D01*
G01*
X45153000Y-40000000D02*
G75*
G02*
X44347000Y-40000000I-403000J0D01*
G01*
X44347000Y-40000000D02*
G75*
G02*
X45153000Y-40000000I403000J0D01*
G01*
X47153000Y-38000000D02*
G75*
G02*
X46347000Y-38000000I-403000J0D01*
G01*
X46347000Y-38000000D02*
G75*
G02*
X47153000Y-38000000I403000J0D01*
G01*
X47153000Y-40000000D02*
G75*
G02*
X46347000Y-40000000I-403000J0D01*
G01*
X46347000Y-40000000D02*
G75*
G02*
X47153000Y-40000000I403000J0D01*
G01*
X49153000Y-38000000D02*
G75*
G02*
X48347000Y-38000000I-403000J0D01*
G01*
X48347000Y-38000000D02*
G75*
G02*
X49153000Y-38000000I403000J0D01*
G01*
X49153000Y-40000000D02*
G75*
G02*
X48347000Y-40000000I-403000J0D01*
G01*
X48347000Y-40000000D02*
G75*
G02*
X49153000Y-40000000I403000J0D01*
G01*
X51153000Y-38000000D02*
G75*
G02*
X50347000Y-38000000I-403000J0D01*
G01*
X50347000Y-38000000D02*
G75*
G02*
X51153000Y-38000000I403000J0D01*
G01*
X51153000Y-40000000D02*
G75*
G02*
X50347000Y-40000000I-403000J0D01*
G01*
X50347000Y-40000000D02*
G75*
G02*
X51153000Y-40000000I403000J0D01*
G01*
X53153000Y-38000000D02*
G75*
G02*
X52347000Y-38000000I-403000J0D01*
G01*
X52347000Y-38000000D02*
G75*
G02*
X53153000Y-38000000I403000J0D01*
G01*
X53153000Y-40000000D02*
G75*
G02*
X52347000Y-40000000I-403000J0D01*
G01*
X52347000Y-40000000D02*
G75*
G02*
X53153000Y-40000000I403000J0D01*
G01*
X55153000Y-38000000D02*
G75*
G02*
X54347000Y-38000000I-403000J0D01*
G01*
X54347000Y-38000000D02*
G75*
G02*
X55153000Y-38000000I403000J0D01*
G01*
X55153000Y-40000000D02*
G75*
G02*
X54347000Y-40000000I-403000J0D01*
G01*
X54347000Y-40000000D02*
G75*
G02*
X55153000Y-40000000I403000J0D01*
G01*
X57153000Y-38000000D02*
G75*
G02*
X56347000Y-38000000I-403000J0D01*
G01*
X56347000Y-38000000D02*
G75*
G02*
X57153000Y-38000000I403000J0D01*
G01*
X57153000Y-40000000D02*
G75*
G02*
X56347000Y-40000000I-403000J0D01*
G01*
X56347000Y-40000000D02*
G75*
G02*
X57153000Y-40000000I403000J0D01*
G01*
X59153000Y-38000000D02*
G75*
G02*
X58347000Y-38000000I-403000J0D01*
G01*
X58347000Y-38000000D02*
G75*
G02*
X59153000Y-38000000I403000J0D01*
G01*
X59153000Y-40000000D02*
G75*
G02*
X58347000Y-40000000I-403000J0D01*
G01*
X58347000Y-40000000D02*
G75*
G02*
X59153000Y-40000000I403000J0D01*
G01*
X61153000Y-38000000D02*
G75*
G02*
X60347000Y-38000000I-403000J0D01*
G01*
X60347000Y-38000000D02*
G75*
G02*
X61153000Y-38000000I403000J0D01*
G01*
X61153000Y-40000000D02*
G75*
G02*
X60347000Y-40000000I-403000J0D01*
G01*
X60347000Y-40000000D02*
G75*
G02*
X61153000Y-40000000I403000J0D01*
G01*
X63153000Y-38000000D02*
G75*
G02*
X62347000Y-38000000I-403000J0D01*
G01*
X62347000Y-38000000D02*
G75*
G02*
X63153000Y-38000000I403000J0D01*
G01*
X63153000Y-40000000D02*
G75*
G02*
X62347000Y-40000000I-403000J0D01*
G01*
X62347000Y-40000000D02*
G75*
G02*
X63153000Y-40000000I403000J0D01*
G01*
X65153000Y-38000000D02*
G75*
G02*
X64347000Y-38000000I-403000J0D01*
G01*
X64347000Y-38000000D02*
G75*
G02*
X65153000Y-38000000I403000J0D01*
G01*
X65153000Y-40000000D02*
G75*
G02*
X64347000Y-40000000I-403000J0D01*
G01*
X64347000Y-40000000D02*
G75*
G02*
X65153000Y-40000000I403000J0D01*
G01*
X67153000Y-38000000D02*
G75*
G02*
X66347000Y-38000000I-403000J0D01*
G01*
X66347000Y-38000000D02*
G75*
G02*
X67153000Y-38000000I403000J0D01*
G01*
X67153000Y-40000000D02*
G75*
G02*
X66347000Y-40000000I-403000J0D01*
G01*
X66347000Y-40000000D02*
G75*
G02*
X67153000Y-40000000I403000J0D01*
G01*
X69153000Y-38000000D02*
G75*
G02*
X68347000Y-38000000I-403000J0D01*
G01*
X68347000Y-38000000D02*
G75*
G02*
X69153000Y-38000000I403000J0D01*
G01*
X69153000Y-40000000D02*
G75*
G02*
X68347000Y-40000000I-403000J0D01*
G01*
X68347000Y-40000000D02*
G75*
G02*
X69153000Y-40000000I403000J0D01*
G01*
X71153000Y-38000000D02*
G75*
G02*
X70347000Y-38000000I-403000J0D01*
G01*
X70347000Y-38000000D02*
G75*
G02*
X71153000Y-38000000I403000J0D01*
G01*
X71153000Y-40000000D02*
G75*
G02*
X70347000Y-40000000I-403000J0D01*
G01*
X70347000Y-40000000D02*
G75*
G02*
X71153000Y-40000000I403000J0D01*
G01*
X73153000Y-38000000D02*
G75*
G02*
X72347000Y-38000000I-403000J0D01*
G01*
X72347000Y-38000000D02*
G75*
G02*
X73153000Y-38000000I403000J0D01*
G01*
X73153000Y-40000000D02*
G75*
G02*
X72347000Y-40000000I-403000J0D01*
G01*
X72347000Y-40000000D02*
G75*
G02*
X73153000Y-40000000I403000J0D01*
G01*
X75153000Y-38000000D02*
G75*
G02*
X74347000Y-38000000I-403000J0D01*
G01*
X74347000Y-38000000D02*
G75*
G02*
X75153000Y-38000000I403000J0D01*
G01*
X75153000Y-40000000D02*
G75*
G02*
X74347000Y-40000000I-403000J0D01*
G01*
X74347000Y-40000000D02*
G75*
G02*
X75153000Y-40000000I403000J0D01*
G01*
X77153000Y-38000000D02*
G75*
G02*
X76347000Y-38000000I-403000J0D01*
G01*
X76347000Y-38000000D02*
G75*
G02*
X77153000Y-38000000I403000J0D01*
G01*
X77153000Y-40000000D02*
G75*
G02*
X76347000Y-40000000I-403000J0D01*
G01*
X76347000Y-40000000D02*
G75*
G02*
X77153000Y-40000000I403000J0D01*
G01*
%TD*%
D11*
%TO.C,J5*%
X100540000Y-114250000D03*
X98000000Y-114250000D03*
D12*
X95460000Y-114250000D03*
%TD*%
D13*
%TO.C,P1*%
X210058000Y-152781000D03*
D14*
X206375000Y-152781000D03*
X203200000Y-152781000D03*
X200025000Y-152781000D03*
X196850000Y-152781000D03*
X193675000Y-152781000D03*
X190500000Y-152781000D03*
X187325000Y-152781000D03*
X184150000Y-152781000D03*
X180975000Y-152781000D03*
X177800000Y-152781000D03*
X174625000Y-152781000D03*
X171450000Y-152781000D03*
X168275000Y-152781000D03*
X165100000Y-152781000D03*
X161925000Y-152781000D03*
X158750000Y-152781000D03*
X155575000Y-152781000D03*
X152400000Y-152781000D03*
X149225000Y-152781000D03*
X146050000Y-152781000D03*
X142875000Y-152781000D03*
X139700000Y-152781000D03*
X136525000Y-152781000D03*
X133350000Y-152781000D03*
X130175000Y-152781000D03*
X127000000Y-152781000D03*
X123825000Y-152781000D03*
X120650000Y-152781000D03*
X117475000Y-152781000D03*
X114300000Y-152781000D03*
X111125000Y-152781000D03*
X107950000Y-152781000D03*
X104775000Y-152781000D03*
X101600000Y-152781000D03*
X98425000Y-152781000D03*
X95250000Y-152781000D03*
X92075000Y-152781000D03*
X88900000Y-152781000D03*
X85725000Y-152781000D03*
X82550000Y-152781000D03*
X79375000Y-152781000D03*
X76200000Y-152781000D03*
X73025000Y-152781000D03*
X69850000Y-152781000D03*
X66675000Y-152781000D03*
X63500000Y-152781000D03*
X60325000Y-152781000D03*
X57150000Y-152781000D03*
D13*
X53467000Y-152781000D03*
%TD*%
D11*
%TO.C,P7*%
X100827500Y-135288500D03*
D12*
X98287500Y-135288500D03*
D11*
X95747500Y-135288500D03*
X93207500Y-135288500D03*
X90667500Y-135288500D03*
%TD*%
D15*
%TO.C,TP10*%
X90900000Y-141400000D03*
%TD*%
%TO.C,TP12*%
X97900000Y-141400000D03*
%TD*%
%TO.C,TP13*%
X101400000Y-141400000D03*
%TD*%
D16*
%TO.C,U19*%
X222950000Y-41700000D03*
X225490000Y-41700000D03*
X228030000Y-41700000D03*
X230570000Y-41700000D03*
X233110000Y-41700000D03*
X235650000Y-41700000D03*
X238190000Y-41700000D03*
X238190000Y-49320000D03*
X235650000Y-49320000D03*
X233110000Y-49320000D03*
X230570000Y-49320000D03*
X228030000Y-49320000D03*
X225490000Y-49320000D03*
D17*
X222950000Y-49320000D03*
%TD*%
D15*
%TO.C,TP1*%
X110750000Y-95500000D03*
%TD*%
D17*
%TO.C,SW1*%
X225840000Y-109805000D03*
D16*
X228380000Y-109805000D03*
X230920000Y-109805000D03*
X233460000Y-109805000D03*
X236000000Y-109805000D03*
X238540000Y-109805000D03*
X241080000Y-109805000D03*
X241080000Y-102185000D03*
X238540000Y-102185000D03*
X236000000Y-102185000D03*
X233460000Y-102185000D03*
X230920000Y-102185000D03*
X228380000Y-102185000D03*
X225840000Y-102185000D03*
%TD*%
D18*
%TO.C,J1*%
X240510000Y-26670000D03*
D11*
X240510000Y-29210000D03*
X237970000Y-26670000D03*
X237970000Y-29210000D03*
X235430000Y-26670000D03*
X235430000Y-29210000D03*
X232890000Y-26670000D03*
X232890000Y-29210000D03*
X230350000Y-26670000D03*
X230350000Y-29210000D03*
X227810000Y-26670000D03*
X227810000Y-29210000D03*
X225270000Y-26670000D03*
X225270000Y-29210000D03*
X222730000Y-26670000D03*
X222730000Y-29210000D03*
X220190000Y-26670000D03*
X220190000Y-29210000D03*
X217650000Y-26670000D03*
X217650000Y-29210000D03*
X215110000Y-26670000D03*
X215110000Y-29210000D03*
X212570000Y-26670000D03*
X212570000Y-29210000D03*
X210030000Y-26670000D03*
X210030000Y-29210000D03*
X207490000Y-26670000D03*
X207490000Y-29210000D03*
X204950000Y-26670000D03*
X204950000Y-29210000D03*
X202410000Y-26670000D03*
X202410000Y-29210000D03*
X199870000Y-26670000D03*
X199870000Y-29210000D03*
%TD*%
D15*
%TO.C,TP5*%
X149250000Y-54250000D03*
%TD*%
%TO.C,TP3*%
X142250000Y-54250000D03*
%TD*%
D19*
%TO.C,MH1*%
X82720000Y-116600000D03*
%TD*%
D20*
%TO.C,RP2*%
X223720000Y-55500000D03*
D16*
X226260000Y-55500000D03*
X228800000Y-55500000D03*
X231340000Y-55500000D03*
X233880000Y-55500000D03*
X236420000Y-55500000D03*
X238960000Y-55500000D03*
X241500000Y-55500000D03*
%TD*%
D21*
%TO.C,MH2*%
X18200000Y-28200000D03*
%TD*%
D19*
%TO.C,MH3*%
X82720000Y-78300000D03*
%TD*%
D17*
%TO.C,U17*%
X179330000Y-49375000D03*
D16*
X181870000Y-49375000D03*
X184410000Y-49375000D03*
X186950000Y-49375000D03*
X189490000Y-49375000D03*
X192030000Y-49375000D03*
X194570000Y-49375000D03*
X194570000Y-41755000D03*
X192030000Y-41755000D03*
X189490000Y-41755000D03*
X186950000Y-41755000D03*
X184410000Y-41755000D03*
X181870000Y-41755000D03*
X179330000Y-41755000D03*
%TD*%
D12*
%TO.C,J3*%
X61740000Y-27000000D03*
D11*
X64280000Y-27000000D03*
X66820000Y-27000000D03*
X69360000Y-27000000D03*
X71900000Y-27000000D03*
%TD*%
D15*
%TO.C,TP14*%
X104850000Y-141400000D03*
%TD*%
%TO.C,TP7*%
X156250000Y-54250000D03*
%TD*%
D17*
%TO.C,U20*%
X244875000Y-49370000D03*
D16*
X247415000Y-49370000D03*
X249955000Y-49370000D03*
X252495000Y-49370000D03*
X255035000Y-49370000D03*
X257575000Y-49370000D03*
X260115000Y-49370000D03*
X260115000Y-41750000D03*
X257575000Y-41750000D03*
X255035000Y-41750000D03*
X252495000Y-41750000D03*
X249955000Y-41750000D03*
X247415000Y-41750000D03*
X244875000Y-41750000D03*
%TD*%
D17*
%TO.C,U4*%
X142680000Y-93250000D03*
D16*
X145220000Y-93250000D03*
X147760000Y-93250000D03*
X150300000Y-93250000D03*
X152840000Y-93250000D03*
X155380000Y-93250000D03*
X157920000Y-93250000D03*
X160460000Y-93250000D03*
X163000000Y-93250000D03*
X165540000Y-93250000D03*
X168080000Y-93250000D03*
X170620000Y-93250000D03*
X170620000Y-83090000D03*
X168080000Y-83090000D03*
X165540000Y-83090000D03*
X163000000Y-83090000D03*
X160460000Y-83090000D03*
X157920000Y-83090000D03*
X155380000Y-83090000D03*
X152840000Y-83090000D03*
X150300000Y-83090000D03*
X147760000Y-83090000D03*
X145220000Y-83090000D03*
X142680000Y-83090000D03*
%TD*%
D17*
%TO.C,U1*%
X142740000Y-137350000D03*
D16*
X145280000Y-137350000D03*
X147820000Y-137350000D03*
X150360000Y-137350000D03*
X152900000Y-137350000D03*
X155440000Y-137350000D03*
X157980000Y-137350000D03*
X160520000Y-137350000D03*
X163060000Y-137350000D03*
X165600000Y-137350000D03*
X168140000Y-137350000D03*
X170680000Y-137350000D03*
X173220000Y-137350000D03*
X175760000Y-137350000D03*
X178300000Y-137350000D03*
X180840000Y-137350000D03*
X183380000Y-137350000D03*
X185920000Y-137350000D03*
X188460000Y-137350000D03*
X191000000Y-137350000D03*
X191000000Y-122110000D03*
X188460000Y-122110000D03*
X185920000Y-122110000D03*
X183380000Y-122110000D03*
X180840000Y-122110000D03*
X178300000Y-122110000D03*
X175760000Y-122110000D03*
X173220000Y-122110000D03*
X170680000Y-122110000D03*
X168140000Y-122110000D03*
X165600000Y-122110000D03*
X163060000Y-122110000D03*
X160520000Y-122110000D03*
X157980000Y-122110000D03*
X155440000Y-122110000D03*
X152900000Y-122110000D03*
X150360000Y-122110000D03*
X147820000Y-122110000D03*
X145280000Y-122110000D03*
X142740000Y-122110000D03*
%TD*%
D15*
%TO.C,BZ1*%
X187200000Y-60500000D03*
D22*
X194800000Y-60500000D03*
%TD*%
D21*
%TO.C,MH4*%
X260800000Y-27600000D03*
%TD*%
D16*
%TO.C,R10*%
X180610000Y-65580000D03*
X180610000Y-55420000D03*
%TD*%
D19*
%TO.C,MH5*%
X21000000Y-58400000D03*
%TD*%
%TO.C,MH6*%
X82720000Y-135000000D03*
%TD*%
D15*
%TO.C,TP6*%
X152750000Y-54250000D03*
%TD*%
%TO.C,TP4*%
X145750000Y-54250000D03*
%TD*%
%TO.C,TP8*%
X247750000Y-137750000D03*
%TD*%
D19*
%TO.C,MH7*%
X82720000Y-58400000D03*
%TD*%
D17*
%TO.C,RP1*%
X155000000Y-49320000D03*
D16*
X157540000Y-49320000D03*
X160080000Y-49320000D03*
X162620000Y-49320000D03*
X165160000Y-49320000D03*
X167700000Y-49320000D03*
X170240000Y-49320000D03*
X172780000Y-49320000D03*
X172780000Y-41700000D03*
X170240000Y-41700000D03*
X167700000Y-41700000D03*
X165160000Y-41700000D03*
X162620000Y-41700000D03*
X160080000Y-41700000D03*
X157540000Y-41700000D03*
X155000000Y-41700000D03*
%TD*%
D17*
%TO.C,U2*%
X142740000Y-115370000D03*
D16*
X145280000Y-115370000D03*
X147820000Y-115370000D03*
X150360000Y-115370000D03*
X152900000Y-115370000D03*
X155440000Y-115370000D03*
X157980000Y-115370000D03*
X160520000Y-115370000D03*
X163060000Y-115370000D03*
X165600000Y-115370000D03*
X168140000Y-115370000D03*
X170680000Y-115370000D03*
X173220000Y-115370000D03*
X175760000Y-115370000D03*
X175760000Y-100130000D03*
X173220000Y-100130000D03*
X170680000Y-100130000D03*
X168140000Y-100130000D03*
X165600000Y-100130000D03*
X163060000Y-100130000D03*
X160520000Y-100130000D03*
X157980000Y-100130000D03*
X155440000Y-100130000D03*
X152900000Y-100130000D03*
X150360000Y-100130000D03*
X147820000Y-100130000D03*
X145280000Y-100130000D03*
X142740000Y-100130000D03*
%TD*%
D19*
%TO.C,MH8*%
X21000000Y-135000000D03*
%TD*%
D15*
%TO.C,TP11*%
X94400000Y-141400000D03*
%TD*%
%TO.C,TP2*%
X138750000Y-54250000D03*
%TD*%
D17*
%TO.C,U14*%
X116810000Y-105380000D03*
D16*
X119350000Y-105380000D03*
X121890000Y-105380000D03*
X124430000Y-105380000D03*
X126970000Y-105380000D03*
X129510000Y-105380000D03*
X132050000Y-105380000D03*
X134590000Y-105380000D03*
X134590000Y-97760000D03*
X132050000Y-97760000D03*
X129510000Y-97760000D03*
X126970000Y-97760000D03*
X124430000Y-97760000D03*
X121890000Y-97760000D03*
X119350000Y-97760000D03*
X116810000Y-97760000D03*
%TD*%
D18*
%TO.C,J4*%
X129780000Y-26460000D03*
D11*
X129780000Y-29000000D03*
X127240000Y-26460000D03*
X127240000Y-29000000D03*
X124700000Y-26460000D03*
X124700000Y-29000000D03*
X122160000Y-26460000D03*
X122160000Y-29000000D03*
X119620000Y-26460000D03*
X119620000Y-29000000D03*
X117080000Y-26460000D03*
X117080000Y-29000000D03*
X114540000Y-26460000D03*
X114540000Y-29000000D03*
X112000000Y-26460000D03*
X112000000Y-29000000D03*
X109460000Y-26460000D03*
X109460000Y-29000000D03*
X106920000Y-26460000D03*
X106920000Y-29000000D03*
X104380000Y-26460000D03*
X104380000Y-29000000D03*
X101840000Y-26460000D03*
X101840000Y-29000000D03*
X99300000Y-26460000D03*
X99300000Y-29000000D03*
X96760000Y-26460000D03*
X96760000Y-29000000D03*
X94220000Y-26460000D03*
X94220000Y-29000000D03*
X91680000Y-26460000D03*
X91680000Y-29000000D03*
X89140000Y-26460000D03*
X89140000Y-29000000D03*
X86600000Y-26460000D03*
X86600000Y-29000000D03*
X84060000Y-26460000D03*
X84060000Y-29000000D03*
X81520000Y-26460000D03*
X81520000Y-29000000D03*
%TD*%
D17*
%TO.C,U37*%
X225900000Y-83620000D03*
D16*
X228440000Y-83620000D03*
X230980000Y-83620000D03*
X233520000Y-83620000D03*
X236060000Y-83620000D03*
X238600000Y-83620000D03*
X241140000Y-83620000D03*
X241140000Y-76000000D03*
X238600000Y-76000000D03*
X236060000Y-76000000D03*
X233520000Y-76000000D03*
X230980000Y-76000000D03*
X228440000Y-76000000D03*
X225900000Y-76000000D03*
%TD*%
D17*
%TO.C,U18*%
X201080000Y-49375000D03*
D16*
X203620000Y-49375000D03*
X206160000Y-49375000D03*
X208700000Y-49375000D03*
X211240000Y-49375000D03*
X213780000Y-49375000D03*
X216320000Y-49375000D03*
X216320000Y-41755000D03*
X213780000Y-41755000D03*
X211240000Y-41755000D03*
X208700000Y-41755000D03*
X206160000Y-41755000D03*
X203620000Y-41755000D03*
X201080000Y-41755000D03*
%TD*%
D17*
%TO.C,U16*%
X117040000Y-119445000D03*
D16*
X119580000Y-119445000D03*
X122120000Y-119445000D03*
X124660000Y-119445000D03*
X127200000Y-119445000D03*
X129740000Y-119445000D03*
X132280000Y-119445000D03*
X134820000Y-119445000D03*
X134820000Y-111825000D03*
X132280000Y-111825000D03*
X129740000Y-111825000D03*
X127200000Y-111825000D03*
X124660000Y-111825000D03*
X122120000Y-111825000D03*
X119580000Y-111825000D03*
X117040000Y-111825000D03*
%TD*%
D17*
%TO.C,U36*%
X225900000Y-69305000D03*
D16*
X228440000Y-69305000D03*
X230980000Y-69305000D03*
X233520000Y-69305000D03*
X236060000Y-69305000D03*
X238600000Y-69305000D03*
X241140000Y-69305000D03*
X241140000Y-61685000D03*
X238600000Y-61685000D03*
X236060000Y-61685000D03*
X233520000Y-61685000D03*
X230980000Y-61685000D03*
X228440000Y-61685000D03*
X225900000Y-61685000D03*
%TD*%
D17*
%TO.C,U5*%
X36390000Y-32805000D03*
D16*
X38930000Y-32805000D03*
X41470000Y-32805000D03*
X44010000Y-32805000D03*
X46550000Y-32805000D03*
X49090000Y-32805000D03*
X51630000Y-32805000D03*
X54170000Y-32805000D03*
X54170000Y-25185000D03*
X51630000Y-25185000D03*
X49090000Y-25185000D03*
X46550000Y-25185000D03*
X44010000Y-25185000D03*
X41470000Y-25185000D03*
X38930000Y-25185000D03*
X36390000Y-25185000D03*
%TD*%
D23*
%TO.C,D3*%
X94908000Y-106250000D03*
D16*
X102528000Y-106250000D03*
%TD*%
D19*
%TO.C,MH9*%
X21000000Y-116600000D03*
%TD*%
D15*
%TO.C,TP9*%
X130750000Y-36500000D03*
%TD*%
D12*
%TO.C,J6*%
X201225000Y-55500000D03*
D11*
X203765000Y-55500000D03*
%TD*%
D19*
%TO.C,MH10*%
X21000000Y-78300000D03*
%TD*%
M02*
