%TF.GenerationSoftware,KiCad,Pcbnew,9.0.6*%
%TF.CreationDate,2026-03-01T15:32:39-06:00*%
%TF.ProjectId,W2I-S100,5732492d-5331-4303-902e-6b696361645f,rev?*%
%TF.SameCoordinates,Original*%
%TF.FileFunction,Copper,L2,Inr*%
%TF.FilePolarity,Positive*%
%FSLAX46Y46*%
G04 Gerber Fmt 4.6, Leading zero omitted, Abs format (unit mm)*
G04 Created by KiCad (PCBNEW 9.0.6) date 2026-03-01 15:32:39*
%MOMM*%
%LPD*%
G01*
G04 APERTURE LIST*
G04 Aperture macros list*
%AMRoundRect*
0 Rectangle with rounded corners*
0 $1 Rounding radius*
0 $2 $3 $4 $5 $6 $7 $8 $9 X,Y pos of 4 corners*
0 Add a 4 corners polygon primitive as box body*
4,1,4,$2,$3,$4,$5,$6,$7,$8,$9,$2,$3,0*
0 Add four circle primitives for the rounded corners*
1,1,$1+$1,$2,$3*
1,1,$1+$1,$4,$5*
1,1,$1+$1,$6,$7*
1,1,$1+$1,$8,$9*
0 Add four rect primitives between the rounded corners*
20,1,$1+$1,$2,$3,$4,$5,0*
20,1,$1+$1,$4,$5,$6,$7,0*
20,1,$1+$1,$6,$7,$8,$9,0*
20,1,$1+$1,$8,$9,$2,$3,0*%
G04 Aperture macros list end*
%TA.AperFunction,ComponentPad*%
%ADD10R,2.000000X2.000000*%
%TD*%
%TA.AperFunction,ComponentPad*%
%ADD11RoundRect,0.250000X0.550000X-0.550000X0.550000X0.550000X-0.550000X0.550000X-0.550000X-0.550000X0*%
%TD*%
%TA.AperFunction,ComponentPad*%
%ADD12C,1.600000*%
%TD*%
%TA.AperFunction,ComponentPad*%
%ADD13RoundRect,0.250000X-0.600000X0.600000X-0.600000X-0.600000X0.600000X-0.600000X0.600000X0.600000X0*%
%TD*%
%TA.AperFunction,ComponentPad*%
%ADD14C,1.700000*%
%TD*%
%TA.AperFunction,ComponentPad*%
%ADD15R,1.700000X1.700000*%
%TD*%
%TA.AperFunction,ComponentPad*%
%ADD16R,1.600000X1.600000*%
%TD*%
%TA.AperFunction,ComponentPad*%
%ADD17C,2.000000*%
%TD*%
%TA.AperFunction,ComponentPad*%
%ADD18C,1.510000*%
%TD*%
%TA.AperFunction,ComponentPad*%
%ADD19RoundRect,0.250000X-0.550000X-0.550000X0.550000X-0.550000X0.550000X0.550000X-0.550000X0.550000X0*%
%TD*%
%TA.AperFunction,ViaPad*%
%ADD20C,0.800000*%
%TD*%
%TA.AperFunction,ViaPad*%
%ADD21C,0.600000*%
%TD*%
%TA.AperFunction,Conductor*%
%ADD22C,0.280000*%
%TD*%
%TA.AperFunction,Conductor*%
%ADD23C,0.150000*%
%TD*%
%TA.AperFunction,Conductor*%
%ADD24C,0.200000*%
%TD*%
G04 APERTURE END LIST*
D10*
%TO.N,Net-(U13-I0b)*%
%TO.C,TP1*%
X110750000Y-95500000D03*
%TD*%
D11*
%TO.N,Net-(U13-I0a)*%
%TO.C,SW1*%
X225840000Y-109805000D03*
D12*
%TO.N,Net-(U13-I3b)*%
X228380000Y-109805000D03*
%TO.N,Net-(U13-I1a)*%
X230920000Y-109805000D03*
%TO.N,Net-(U13-I2b)*%
X233460000Y-109805000D03*
%TO.N,Net-(U13-I2a)*%
X236000000Y-109805000D03*
%TO.N,Net-(U13-I1b)*%
X238540000Y-109805000D03*
%TO.N,Net-(U13-I3a)*%
X241080000Y-109805000D03*
%TO.N,GND*%
X241080000Y-102185000D03*
X238540000Y-102185000D03*
X236000000Y-102185000D03*
X233460000Y-102185000D03*
X230920000Y-102185000D03*
X228380000Y-102185000D03*
X225840000Y-102185000D03*
%TD*%
D13*
%TO.N,GND*%
%TO.C,J1*%
X240510000Y-26670000D03*
D14*
X240510000Y-29210000D03*
X237970000Y-26670000D03*
%TO.N,unconnected-(J1-Pad4)*%
X237970000Y-29210000D03*
%TO.N,Net-(J1-Pad5)*%
X235430000Y-26670000D03*
%TO.N,Net-(J1-Pad6)*%
X235430000Y-29210000D03*
%TO.N,/+RWDAT*%
X232890000Y-26670000D03*
%TO.N,/-RWDAT*%
X232890000Y-29210000D03*
%TO.N,Net-(J1-Pad9)*%
X230350000Y-26670000D03*
%TO.N,Net-(J1-Pad10)*%
X230350000Y-29210000D03*
%TO.N,/+SYSCLK*%
X227810000Y-26670000D03*
%TO.N,/-SYSCLK*%
X227810000Y-29210000D03*
%TO.N,GND*%
X225270000Y-26670000D03*
X225270000Y-29210000D03*
%TO.N,Net-(J1-Pad15)*%
X222730000Y-26670000D03*
%TO.N,Net-(J1-Pad16)*%
X222730000Y-29210000D03*
%TO.N,Net-(J1-Pad17)*%
X220190000Y-26670000D03*
%TO.N,Net-(Q1-COLLECTOR)*%
X220190000Y-29210000D03*
%TO.N,/RP1-11*%
X217650000Y-26670000D03*
%TO.N,/CMDRW*%
X217650000Y-29210000D03*
%TO.N,/RP1-14*%
X215110000Y-26670000D03*
%TO.N,/RP1-13*%
X215110000Y-29210000D03*
%TO.N,GND*%
X212570000Y-26670000D03*
X212570000Y-29210000D03*
%TO.N,Net-(U9-I2a)*%
X210030000Y-26670000D03*
%TO.N,GND*%
X210030000Y-29210000D03*
%TO.N,/IMIBus6*%
X207490000Y-26670000D03*
%TO.N,/IMIBus7*%
X207490000Y-29210000D03*
%TO.N,/IMIBus4*%
X204950000Y-26670000D03*
%TO.N,/IMIBus5*%
X204950000Y-29210000D03*
%TO.N,/IMIBus2*%
X202410000Y-26670000D03*
%TO.N,/IMIBus3*%
X202410000Y-29210000D03*
%TO.N,/IMIBus0*%
X199870000Y-26670000D03*
%TO.N,/IMIBus1*%
X199870000Y-29210000D03*
%TD*%
D10*
%TO.N,Net-(U27B-MR)*%
%TO.C,TP5*%
X149250000Y-54250000D03*
%TD*%
%TO.N,Net-(TP3-Pad1)*%
%TO.C,TP3*%
X142250000Y-54250000D03*
%TD*%
D14*
%TO.N,unconnected-(P7-PG-Pad1)*%
%TO.C,P7*%
X90667500Y-135288500D03*
%TO.N,unconnected-(P7-EN-Pad2)*%
X93207500Y-135288500D03*
%TO.N,Net-(J5-Pin_1)*%
X95747500Y-135288500D03*
D15*
%TO.N,GND*%
X98287500Y-135288500D03*
D14*
%TO.N,+5V*%
X100827500Y-135288500D03*
%TD*%
D16*
%TO.N,/+RWDAT*%
%TO.C,RP2*%
X223720000Y-55500000D03*
D12*
%TO.N,GND*%
X226260000Y-55500000D03*
%TO.N,/-RWDAT*%
X228800000Y-55500000D03*
%TO.N,GND*%
X231340000Y-55500000D03*
%TO.N,/+SYSCLK*%
X233880000Y-55500000D03*
%TO.N,GND*%
X236420000Y-55500000D03*
%TO.N,/-SYSCLK*%
X238960000Y-55500000D03*
%TO.N,GND*%
X241500000Y-55500000D03*
%TD*%
D11*
%TO.N,/+SEL*%
%TO.C,U17*%
X179330000Y-49375000D03*
D12*
%TO.N,/SUA3*%
X181870000Y-49375000D03*
%TO.N,Net-(J1-Pad5)*%
X184410000Y-49375000D03*
%TO.N,/+SEL*%
X186950000Y-49375000D03*
%TO.N,/SUA2*%
X189490000Y-49375000D03*
%TO.N,Net-(J1-Pad6)*%
X192030000Y-49375000D03*
%TO.N,GND*%
X194570000Y-49375000D03*
%TO.N,Net-(J1-Pad9)*%
X194570000Y-41755000D03*
%TO.N,/+SEL*%
X192030000Y-41755000D03*
%TO.N,/SUA1*%
X189490000Y-41755000D03*
%TO.N,Net-(J1-Pad10)*%
X186950000Y-41755000D03*
%TO.N,/+SEL*%
X184410000Y-41755000D03*
%TO.N,/SUA0*%
X181870000Y-41755000D03*
%TO.N,+5V*%
X179330000Y-41755000D03*
%TD*%
D15*
%TO.N,GND*%
%TO.C,J3*%
X61740000Y-27000000D03*
D14*
%TO.N,/TXA*%
X64280000Y-27000000D03*
%TO.N,/RXA*%
X66820000Y-27000000D03*
%TO.N,/TXB*%
X69360000Y-27000000D03*
%TO.N,/RXB*%
X71900000Y-27000000D03*
%TD*%
D10*
%TO.N,GND*%
%TO.C,TP14*%
X104850000Y-141400000D03*
%TD*%
%TO.N,Net-(J5-Pin_1)*%
%TO.C,TP10*%
X90900000Y-141400000D03*
%TD*%
%TO.N,Net-(P1-+16_V)*%
%TO.C,TP12*%
X97900000Y-141400000D03*
%TD*%
%TO.N,Net-(OSC3-OUT)*%
%TO.C,TP7*%
X156250000Y-54250000D03*
%TD*%
D11*
%TO.N,Net-(U19-Pad1)*%
%TO.C,U20*%
X244875000Y-49370000D03*
D12*
%TO.N,Net-(U11-O6)*%
X247415000Y-49370000D03*
%TO.N,/IMIBus3*%
X249955000Y-49370000D03*
%TO.N,Net-(U19-Pad1)*%
X252495000Y-49370000D03*
%TO.N,Net-(U11-O1)*%
X255035000Y-49370000D03*
%TO.N,/IMIBus2*%
X257575000Y-49370000D03*
%TO.N,GND*%
X260115000Y-49370000D03*
%TO.N,/IMIBus1*%
X260115000Y-41750000D03*
%TO.N,Net-(U19-Pad1)*%
X257575000Y-41750000D03*
%TO.N,Net-(U11-O7)*%
X255035000Y-41750000D03*
%TO.N,/IMIBus0*%
X252495000Y-41750000D03*
%TO.N,Net-(U19-Pad1)*%
X249955000Y-41750000D03*
%TO.N,Net-(U11-O0)*%
X247415000Y-41750000D03*
%TO.N,+5V*%
X244875000Y-41750000D03*
%TD*%
D11*
%TO.N,/AddressBus1*%
%TO.C,U4*%
X142680000Y-93250000D03*
D12*
%TO.N,/AddressBus2*%
X145220000Y-93250000D03*
%TO.N,/AddressBus3*%
X147760000Y-93250000D03*
%TO.N,/~{W}*%
X150300000Y-93250000D03*
%TO.N,/~{R}*%
X152840000Y-93250000D03*
%TO.N,Net-(U4-RXB)*%
X155380000Y-93250000D03*
%TO.N,Net-(U4-TXB)*%
X157920000Y-93250000D03*
%TO.N,/DataBus1*%
X160460000Y-93250000D03*
%TO.N,/DataBus3*%
X163000000Y-93250000D03*
%TO.N,/DataBus5*%
X165540000Y-93250000D03*
%TO.N,/DataBus7*%
X168080000Y-93250000D03*
%TO.N,GND*%
X170620000Y-93250000D03*
%TO.N,unconnected-(U4-~{INTR}-Pad13)*%
X170620000Y-83090000D03*
%TO.N,/DataBus6*%
X168080000Y-83090000D03*
%TO.N,/DataBus4*%
X165540000Y-83090000D03*
%TO.N,/DataBus2*%
X163000000Y-83090000D03*
%TO.N,/DataBus0*%
X160460000Y-83090000D03*
%TO.N,Net-(U4-TXA)*%
X157920000Y-83090000D03*
%TO.N,Net-(U4-RXA)*%
X155380000Y-83090000D03*
%TO.N,Net-(OSC1-OUT)*%
X152840000Y-83090000D03*
%TO.N,Net-(U4-RST)*%
X150300000Y-83090000D03*
%TO.N,/~{681}*%
X147760000Y-83090000D03*
%TO.N,+5V*%
X145220000Y-83090000D03*
%TO.N,/AddressBus0*%
X142680000Y-83090000D03*
%TD*%
D11*
%TO.N,/AddressBus11*%
%TO.C,U1*%
X142740000Y-137350000D03*
D12*
%TO.N,/AddressBus12*%
X145280000Y-137350000D03*
%TO.N,/AddressBus13*%
X147820000Y-137350000D03*
%TO.N,/AddressBus14*%
X150360000Y-137350000D03*
%TO.N,unconnected-(U1-A15-Pad5)*%
X152900000Y-137350000D03*
%TO.N,Net-(U1-~{CLK})*%
X155440000Y-137350000D03*
%TO.N,/DataBus4*%
X157980000Y-137350000D03*
%TO.N,/DataBus3*%
X160520000Y-137350000D03*
%TO.N,/DataBus5*%
X163060000Y-137350000D03*
%TO.N,/DataBus6*%
X165600000Y-137350000D03*
%TO.N,+5V*%
X168140000Y-137350000D03*
%TO.N,/DataBus2*%
X170680000Y-137350000D03*
%TO.N,/DataBus7*%
X173220000Y-137350000D03*
%TO.N,/DataBus0*%
X175760000Y-137350000D03*
%TO.N,/DataBus1*%
X178300000Y-137350000D03*
%TO.N,Net-(U1-~{INT})*%
X180840000Y-137350000D03*
%TO.N,+5V*%
X183380000Y-137350000D03*
%TO.N,unconnected-(U1-~{HALT}-Pad18)*%
X185920000Y-137350000D03*
%TO.N,Net-(U1-~{MREQ})*%
X188460000Y-137350000D03*
%TO.N,/~{IORQ}*%
X191000000Y-137350000D03*
%TO.N,/~{R}*%
X191000000Y-122110000D03*
%TO.N,/~{W}*%
X188460000Y-122110000D03*
%TO.N,unconnected-(U1-~{BUSACK}-Pad23)*%
X185920000Y-122110000D03*
%TO.N,Net-(U1-~{WAIT})*%
X183380000Y-122110000D03*
%TO.N,+5V*%
X180840000Y-122110000D03*
%TO.N,Net-(U1-~{RESET})*%
X178300000Y-122110000D03*
%TO.N,/~{M1}*%
X175760000Y-122110000D03*
%TO.N,unconnected-(U1-~{RFSH}-Pad28)*%
X173220000Y-122110000D03*
%TO.N,GND*%
X170680000Y-122110000D03*
%TO.N,/AddressBus0*%
X168140000Y-122110000D03*
%TO.N,/AddressBus1*%
X165600000Y-122110000D03*
%TO.N,/AddressBus2*%
X163060000Y-122110000D03*
%TO.N,/AddressBus3*%
X160520000Y-122110000D03*
%TO.N,/AddressBus4*%
X157980000Y-122110000D03*
%TO.N,/AddressBus5*%
X155440000Y-122110000D03*
%TO.N,/AddressBus6*%
X152900000Y-122110000D03*
%TO.N,/AddressBus7*%
X150360000Y-122110000D03*
%TO.N,/AddressBus8*%
X147820000Y-122110000D03*
%TO.N,/AddressBus9*%
X145280000Y-122110000D03*
%TO.N,/AddressBus10*%
X142740000Y-122110000D03*
%TD*%
D10*
%TO.N,Net-(BZ1-+)*%
%TO.C,BZ1*%
X187200000Y-60500000D03*
D17*
%TO.N,Net-(BZ1--)*%
X194800000Y-60500000D03*
%TD*%
D18*
%TO.N,Net-(J4-Pin_1)*%
%TO.C,J2*%
X76750000Y-40000000D03*
%TO.N,GND*%
X76750000Y-38000000D03*
%TO.N,/IDEDataBus7*%
X74750000Y-40000000D03*
%TO.N,/IDEDataBus8*%
X74750000Y-38000000D03*
%TO.N,/IDEDataBus6*%
X72750000Y-40000000D03*
%TO.N,/IDEDataBus9*%
X72750000Y-38000000D03*
%TO.N,/IDEDataBus5*%
X70750000Y-40000000D03*
%TO.N,/IDEDataBus10*%
X70750000Y-38000000D03*
%TO.N,/IDEDataBus4*%
X68750000Y-40000000D03*
%TO.N,/IDEDataBus11*%
X68750000Y-38000000D03*
%TO.N,/IDEDataBus3*%
X66750000Y-40000000D03*
%TO.N,/IDEDataBus12*%
X66750000Y-38000000D03*
%TO.N,/IDEDataBus2*%
X64750000Y-40000000D03*
%TO.N,/IDEDataBus13*%
X64750000Y-38000000D03*
%TO.N,/IDEDataBus1*%
X62750000Y-40000000D03*
%TO.N,/IDEDataBus14*%
X62750000Y-38000000D03*
%TO.N,/IDEDataBus0*%
X60750000Y-40000000D03*
%TO.N,/IDEDataBus15*%
X60750000Y-38000000D03*
%TO.N,GND*%
X58750000Y-40000000D03*
%TO.N,unconnected-(J2-Pad20)*%
X58750000Y-38000000D03*
%TO.N,/DMARQ*%
X56750000Y-40000000D03*
%TO.N,GND*%
X56750000Y-38000000D03*
%TO.N,/~{D10W}*%
X54750000Y-40000000D03*
%TO.N,GND*%
X54750000Y-38000000D03*
%TO.N,/~{D10R}*%
X52750000Y-40000000D03*
%TO.N,GND*%
X52750000Y-38000000D03*
%TO.N,/IORDY*%
X50750000Y-40000000D03*
%TO.N,GND*%
X50750000Y-38000000D03*
%TO.N,/~{DMACK}*%
X48750000Y-40000000D03*
%TO.N,GND*%
X48750000Y-38000000D03*
%TO.N,/INTRQ*%
X46750000Y-40000000D03*
%TO.N,unconnected-(J2-Pad32)*%
X46750000Y-38000000D03*
%TO.N,Net-(J4-Pin_33)*%
X44750000Y-40000000D03*
%TO.N,unconnected-(J2-Pad34)*%
X44750000Y-38000000D03*
%TO.N,Net-(J4-Pin_35)*%
X42750000Y-40000000D03*
%TO.N,Net-(J4-Pin_36)*%
X42750000Y-38000000D03*
%TO.N,Net-(J4-Pin_37)*%
X40750000Y-40000000D03*
%TO.N,Net-(J4-Pin_38)*%
X40750000Y-38000000D03*
%TO.N,/~{DASP}*%
X38750000Y-40000000D03*
%TO.N,GND*%
X38750000Y-38000000D03*
%TO.N,+5V*%
X36750000Y-40000000D03*
X36750000Y-38000000D03*
%TO.N,GND*%
X34750000Y-40000000D03*
%TO.N,unconnected-(J2-Pad44)*%
X34750000Y-38000000D03*
%TD*%
D12*
%TO.N,Net-(R10-Pad1)*%
%TO.C,R10*%
X180610000Y-65580000D03*
%TO.N,Net-(BZ1-+)*%
X180610000Y-55420000D03*
%TD*%
D10*
%TO.N,Net-(U27A-MR)*%
%TO.C,TP6*%
X152750000Y-54250000D03*
%TD*%
%TO.N,Net-(U28A-~{Q})*%
%TO.C,TP4*%
X145750000Y-54250000D03*
%TD*%
%TO.N,Net-(J5-Pin_2)*%
%TO.C,TP13*%
X101400000Y-141400000D03*
%TD*%
%TO.N,GND*%
%TO.C,TP8*%
X247750000Y-137750000D03*
%TD*%
D11*
%TO.N,unconnected-(RP1-R1.1-Pad1)*%
%TO.C,RP1*%
X155000000Y-49320000D03*
D12*
%TO.N,/IMIBus0*%
X157540000Y-49320000D03*
%TO.N,/IMIBus1*%
X160080000Y-49320000D03*
%TO.N,/IMIBus2*%
X162620000Y-49320000D03*
%TO.N,/IMIBus3*%
X165160000Y-49320000D03*
%TO.N,/IMIBus4*%
X167700000Y-49320000D03*
%TO.N,/IMIBus5*%
X170240000Y-49320000D03*
%TO.N,GND*%
X172780000Y-49320000D03*
%TO.N,/IMIBus6*%
X172780000Y-41700000D03*
%TO.N,/IMIBus7*%
X170240000Y-41700000D03*
%TO.N,/RP1-11*%
X167700000Y-41700000D03*
%TO.N,/CMDRW*%
X165160000Y-41700000D03*
%TO.N,/RP1-13*%
X162620000Y-41700000D03*
%TO.N,/RP1-14*%
X160080000Y-41700000D03*
%TO.N,unconnected-(RP1-R2.2-Pad15)*%
X157540000Y-41700000D03*
%TO.N,+5V*%
X155000000Y-41700000D03*
%TD*%
D11*
%TO.N,/AddressBus14*%
%TO.C,U2*%
X142740000Y-115370000D03*
D12*
%TO.N,/AddressBus12*%
X145280000Y-115370000D03*
%TO.N,/AddressBus7*%
X147820000Y-115370000D03*
%TO.N,/AddressBus6*%
X150360000Y-115370000D03*
%TO.N,/AddressBus5*%
X152900000Y-115370000D03*
%TO.N,/AddressBus4*%
X155440000Y-115370000D03*
%TO.N,/AddressBus3*%
X157980000Y-115370000D03*
%TO.N,/AddressBus2*%
X160520000Y-115370000D03*
%TO.N,/AddressBus1*%
X163060000Y-115370000D03*
%TO.N,/AddressBus0*%
X165600000Y-115370000D03*
%TO.N,/DataBus0*%
X168140000Y-115370000D03*
%TO.N,/DataBus1*%
X170680000Y-115370000D03*
%TO.N,/DataBus2*%
X173220000Y-115370000D03*
%TO.N,GND*%
X175760000Y-115370000D03*
%TO.N,/DataBus3*%
X175760000Y-100130000D03*
%TO.N,/DataBus4*%
X173220000Y-100130000D03*
%TO.N,/DataBus5*%
X170680000Y-100130000D03*
%TO.N,/DataBus6*%
X168140000Y-100130000D03*
%TO.N,/DataBus7*%
X165600000Y-100130000D03*
%TO.N,Net-(U1-~{MREQ})*%
X163060000Y-100130000D03*
%TO.N,/AddressBus10*%
X160520000Y-100130000D03*
%TO.N,Net-(U2-~{OE})*%
X157980000Y-100130000D03*
%TO.N,/AddressBus11*%
X155440000Y-100130000D03*
%TO.N,/AddressBus9*%
X152900000Y-100130000D03*
%TO.N,/AddressBus8*%
X150360000Y-100130000D03*
%TO.N,/AddressBus13*%
X147820000Y-100130000D03*
%TO.N,+5V*%
X145280000Y-100130000D03*
X142740000Y-100130000D03*
%TD*%
D10*
%TO.N,+5V*%
%TO.C,TP11*%
X94400000Y-141400000D03*
%TD*%
%TO.N,Net-(U23-~{PL})*%
%TO.C,TP2*%
X138750000Y-54250000D03*
%TD*%
D11*
%TO.N,/AddressBus4*%
%TO.C,U14*%
X116810000Y-105380000D03*
D12*
%TO.N,/AddressBus5*%
X119350000Y-105380000D03*
%TO.N,/AddressBus6*%
X121890000Y-105380000D03*
%TO.N,/~{IO}*%
X124430000Y-105380000D03*
%TO.N,/~{R}*%
X126970000Y-105380000D03*
%TO.N,Net-(U14-E3)*%
X129510000Y-105380000D03*
%TO.N,/~{R70h}*%
X132050000Y-105380000D03*
%TO.N,GND*%
X134590000Y-105380000D03*
%TO.N,/~{R60h}*%
X134590000Y-97760000D03*
%TO.N,/~{R50h}*%
X132050000Y-97760000D03*
%TO.N,/~{START SEEK}*%
X129510000Y-97760000D03*
%TO.N,/~{R30h}*%
X126970000Y-97760000D03*
%TO.N,/~{R20h}*%
X124430000Y-97760000D03*
%TO.N,/~{R10h}*%
X121890000Y-97760000D03*
%TO.N,/~{R00h}*%
X119350000Y-97760000D03*
%TO.N,+5V*%
X116810000Y-97760000D03*
%TD*%
D15*
%TO.N,Net-(J5-Pin_1)*%
%TO.C,J5*%
X95460000Y-114250000D03*
D14*
%TO.N,Net-(J5-Pin_2)*%
X98000000Y-114250000D03*
%TO.N,GND*%
X100540000Y-114250000D03*
%TD*%
D13*
%TO.N,Net-(J4-Pin_1)*%
%TO.C,J4*%
X129780000Y-26460000D03*
D14*
%TO.N,GND*%
X129780000Y-29000000D03*
%TO.N,/IDEDataBus7*%
X127240000Y-26460000D03*
%TO.N,/IDEDataBus8*%
X127240000Y-29000000D03*
%TO.N,/IDEDataBus6*%
X124700000Y-26460000D03*
%TO.N,/IDEDataBus9*%
X124700000Y-29000000D03*
%TO.N,/IDEDataBus5*%
X122160000Y-26460000D03*
%TO.N,/IDEDataBus10*%
X122160000Y-29000000D03*
%TO.N,/IDEDataBus4*%
X119620000Y-26460000D03*
%TO.N,/IDEDataBus11*%
X119620000Y-29000000D03*
%TO.N,/IDEDataBus3*%
X117080000Y-26460000D03*
%TO.N,/IDEDataBus12*%
X117080000Y-29000000D03*
%TO.N,/IDEDataBus2*%
X114540000Y-26460000D03*
%TO.N,/IDEDataBus13*%
X114540000Y-29000000D03*
%TO.N,/IDEDataBus1*%
X112000000Y-26460000D03*
%TO.N,/IDEDataBus14*%
X112000000Y-29000000D03*
%TO.N,/IDEDataBus0*%
X109460000Y-26460000D03*
%TO.N,/IDEDataBus15*%
X109460000Y-29000000D03*
%TO.N,GND*%
X106920000Y-26460000D03*
%TO.N,unconnected-(J4-Pin_20-Pad20)*%
X106920000Y-29000000D03*
%TO.N,/DMARQ*%
X104380000Y-26460000D03*
%TO.N,GND*%
X104380000Y-29000000D03*
%TO.N,/~{D10W}*%
X101840000Y-26460000D03*
%TO.N,GND*%
X101840000Y-29000000D03*
%TO.N,/~{D10R}*%
X99300000Y-26460000D03*
%TO.N,GND*%
X99300000Y-29000000D03*
%TO.N,/IORDY*%
X96760000Y-26460000D03*
%TO.N,GND*%
X96760000Y-29000000D03*
%TO.N,/~{DMACK}*%
X94220000Y-26460000D03*
%TO.N,GND*%
X94220000Y-29000000D03*
%TO.N,/INTRQ*%
X91680000Y-26460000D03*
%TO.N,unconnected-(J4-Pin_32-Pad32)*%
X91680000Y-29000000D03*
%TO.N,Net-(J4-Pin_33)*%
X89140000Y-26460000D03*
%TO.N,unconnected-(J4-Pin_34-Pad34)*%
X89140000Y-29000000D03*
%TO.N,Net-(J4-Pin_35)*%
X86600000Y-26460000D03*
%TO.N,Net-(J4-Pin_36)*%
X86600000Y-29000000D03*
%TO.N,Net-(J4-Pin_37)*%
X84060000Y-26460000D03*
%TO.N,Net-(J4-Pin_38)*%
X84060000Y-29000000D03*
%TO.N,/~{DASP}*%
X81520000Y-26460000D03*
%TO.N,GND*%
X81520000Y-29000000D03*
%TD*%
D11*
%TO.N,/+RGATE*%
%TO.C,U37*%
X225900000Y-83620000D03*
D12*
%TO.N,Net-(U23-Q7)*%
X228440000Y-83620000D03*
%TO.N,/+RGATE*%
X230980000Y-83620000D03*
%TO.N,/+SEL*%
X233520000Y-83620000D03*
X236060000Y-83620000D03*
%TO.N,Net-(U25-CP)*%
X238600000Y-83620000D03*
%TO.N,GND*%
X241140000Y-83620000D03*
%TO.N,/+SYSCLK*%
X241140000Y-76000000D03*
%TO.N,/-SYSCLK*%
X238600000Y-76000000D03*
%TO.N,/+SEL*%
X236060000Y-76000000D03*
%TO.N,-5V*%
X233520000Y-76000000D03*
%TO.N,/-RWDAT*%
X230980000Y-76000000D03*
%TO.N,/+RWDAT*%
X228440000Y-76000000D03*
%TO.N,+5V*%
X225900000Y-76000000D03*
%TD*%
D11*
%TO.N,/+SEL*%
%TO.C,U18*%
X201080000Y-49375000D03*
D12*
%TO.N,Net-(U21A-Q)*%
X203620000Y-49375000D03*
%TO.N,Net-(J1-Pad15)*%
X206160000Y-49375000D03*
%TO.N,/+SEL*%
X208700000Y-49375000D03*
%TO.N,Net-(U21B-Q)*%
X211240000Y-49375000D03*
%TO.N,Net-(J1-Pad16)*%
X213780000Y-49375000D03*
%TO.N,GND*%
X216320000Y-49375000D03*
%TO.N,Net-(J1-Pad17)*%
X216320000Y-41755000D03*
%TO.N,Net-(U22A-Q)*%
X213780000Y-41755000D03*
X211240000Y-41755000D03*
%TO.N,Net-(U9-I2a)*%
X208700000Y-41755000D03*
%TO.N,/+SEL*%
X206160000Y-41755000D03*
%TO.N,Net-(U8-O0)*%
X203620000Y-41755000D03*
%TO.N,+5V*%
X201080000Y-41755000D03*
%TD*%
D11*
%TO.N,/AddressBus4*%
%TO.C,U16*%
X117040000Y-119445000D03*
D12*
%TO.N,/AddressBus5*%
X119580000Y-119445000D03*
%TO.N,/AddressBus6*%
X122120000Y-119445000D03*
%TO.N,/~{IO}*%
X124660000Y-119445000D03*
%TO.N,/~{W}*%
X127200000Y-119445000D03*
%TO.N,Net-(U14-E3)*%
X129740000Y-119445000D03*
%TO.N,Net-(U16-O7)*%
X132280000Y-119445000D03*
%TO.N,GND*%
X134820000Y-119445000D03*
%TO.N,/~{W60h}*%
X134820000Y-111825000D03*
%TO.N,/~{W50h}*%
X132280000Y-111825000D03*
%TO.N,/~{W40h}*%
X129740000Y-111825000D03*
%TO.N,/~{W30h}*%
X127200000Y-111825000D03*
%TO.N,/~{W20h}*%
X124660000Y-111825000D03*
%TO.N,/~{W10h}*%
X122120000Y-111825000D03*
%TO.N,/~{W00h}*%
X119580000Y-111825000D03*
%TO.N,+5V*%
X117040000Y-111825000D03*
%TD*%
D11*
%TO.N,unconnected-(U36-Pin_1-Pad1)*%
%TO.C,U36*%
X225900000Y-69305000D03*
D12*
%TO.N,unconnected-(U36-Pin_2-Pad2)*%
X228440000Y-69305000D03*
%TO.N,unconnected-(U36-Pin_3-Pad3)*%
X230980000Y-69305000D03*
%TO.N,unconnected-(U36-Pin_4-Pad4)*%
X233520000Y-69305000D03*
%TO.N,GND*%
X236060000Y-69305000D03*
%TO.N,/+SEL*%
X238600000Y-69305000D03*
%TO.N,GND*%
X241140000Y-69305000D03*
%TO.N,/+WGATE*%
X241140000Y-61685000D03*
%TO.N,Net-(U25-DSA)*%
X238600000Y-61685000D03*
%TO.N,unconnected-(U36-Pin_10-Pad10)*%
X236060000Y-61685000D03*
%TO.N,/-RWDAT*%
X233520000Y-61685000D03*
%TO.N,/+RWDAT*%
X230980000Y-61685000D03*
%TO.N,-5V*%
X228440000Y-61685000D03*
%TO.N,+5V*%
X225900000Y-61685000D03*
%TD*%
D11*
%TO.N,Net-(U19-Pad1)*%
%TO.C,U19*%
X222950000Y-49320000D03*
D12*
%TO.N,Net-(U11-O4)*%
X225490000Y-49320000D03*
%TO.N,/IMIBus7*%
X228030000Y-49320000D03*
%TO.N,Net-(U19-Pad1)*%
X230570000Y-49320000D03*
%TO.N,Net-(U11-O3)*%
X233110000Y-49320000D03*
%TO.N,/IMIBus6*%
X235650000Y-49320000D03*
%TO.N,GND*%
X238190000Y-49320000D03*
%TO.N,/IMIBus5*%
X238190000Y-41700000D03*
%TO.N,Net-(U19-Pad1)*%
X235650000Y-41700000D03*
%TO.N,Net-(U11-O5)*%
X233110000Y-41700000D03*
%TO.N,/IMIBus4*%
X230570000Y-41700000D03*
%TO.N,Net-(U19-Pad1)*%
X228030000Y-41700000D03*
%TO.N,Net-(U11-O2)*%
X225490000Y-41700000D03*
%TO.N,+5V*%
X222950000Y-41700000D03*
%TD*%
D11*
%TO.N,Net-(U5-C1+)*%
%TO.C,U5*%
X36390000Y-32805000D03*
D12*
%TO.N,Net-(U5-VS+)*%
X38930000Y-32805000D03*
%TO.N,Net-(U5-C1-)*%
X41470000Y-32805000D03*
%TO.N,Net-(U5-C2+)*%
X44010000Y-32805000D03*
%TO.N,Net-(U5-C2-)*%
X46550000Y-32805000D03*
%TO.N,Net-(U5-VS-)*%
X49090000Y-32805000D03*
%TO.N,/TXB*%
X51630000Y-32805000D03*
%TO.N,/RXB*%
X54170000Y-32805000D03*
%TO.N,Net-(U4-RXB)*%
X54170000Y-25185000D03*
%TO.N,Net-(U4-TXB)*%
X51630000Y-25185000D03*
%TO.N,Net-(U4-TXA)*%
X49090000Y-25185000D03*
%TO.N,Net-(U4-RXA)*%
X46550000Y-25185000D03*
%TO.N,/RXA*%
X44010000Y-25185000D03*
%TO.N,/TXA*%
X41470000Y-25185000D03*
%TO.N,GND*%
X38930000Y-25185000D03*
%TO.N,+5V*%
X36390000Y-25185000D03*
%TD*%
D19*
%TO.N,/S100_RESET_P75*%
%TO.C,D3*%
X94908000Y-106250000D03*
D12*
%TO.N,Net-(D1-A)*%
X102528000Y-106250000D03*
%TD*%
D10*
%TO.N,GND*%
%TO.C,TP9*%
X130750000Y-36500000D03*
%TD*%
D15*
%TO.N,Net-(BZ1--)*%
%TO.C,J6*%
X201225000Y-55500000D03*
D14*
%TO.N,Net-(J6-Pin_2)*%
X203765000Y-55500000D03*
%TD*%
D20*
%TO.N,+5V*%
X178053700Y-110875900D03*
X256772600Y-67307100D03*
X223295200Y-87201400D03*
X247642800Y-69113900D03*
D21*
%TO.N,GND*%
X212300000Y-66400000D03*
X258600000Y-90400000D03*
D20*
X217300000Y-139000000D03*
D21*
X98000000Y-50800000D03*
X144100000Y-119400000D03*
X127400000Y-46900000D03*
X205800000Y-67100000D03*
D20*
X113100000Y-72700000D03*
D21*
X138800000Y-83300000D03*
X199400000Y-94100000D03*
X248500000Y-60400000D03*
X118800000Y-46100000D03*
X123900000Y-89700000D03*
X212600000Y-73400000D03*
X173700000Y-110000000D03*
X138300000Y-92700000D03*
X145725529Y-46125529D03*
X250200000Y-113000000D03*
X159800000Y-75200000D03*
X177100000Y-118200000D03*
X256400000Y-109600000D03*
X96900000Y-44900000D03*
X184300000Y-105100000D03*
X101400000Y-72600000D03*
D20*
X91630000Y-84990000D03*
X202700000Y-138400000D03*
D21*
X90530000Y-60640000D03*
D20*
X209400000Y-124400000D03*
D21*
X143200000Y-70000000D03*
X244100000Y-126500000D03*
X165900000Y-109000000D03*
X134600000Y-108100000D03*
X91400000Y-45800000D03*
X38800000Y-34900000D03*
X90550000Y-71830000D03*
X156600000Y-76600000D03*
X244800000Y-114800000D03*
X187600000Y-86500000D03*
X107400000Y-50200000D03*
X199800000Y-81400000D03*
D20*
X91110000Y-98210000D03*
D21*
X106000000Y-61500000D03*
X125700000Y-92700000D03*
X162100000Y-63500000D03*
X209700000Y-81000000D03*
X115200000Y-47700000D03*
X108500000Y-46500000D03*
X122000000Y-55200000D03*
X230000000Y-136900000D03*
X238500000Y-96100000D03*
X151800000Y-69200000D03*
%TO.N,/IDEDataBus9*%
X102136800Y-32921600D03*
X105728600Y-64421300D03*
X94881800Y-52120700D03*
%TO.N,Net-(J4-Pin_33)*%
X98709400Y-90098200D03*
%TO.N,/IDEDataBus12*%
X111689000Y-31636900D03*
X107407200Y-70996200D03*
X102056900Y-63499100D03*
%TO.N,/IDEDataBus3*%
X68071400Y-44510000D03*
X84824600Y-75239100D03*
X96441400Y-74985400D03*
%TO.N,/IDEDataBus15*%
X103455000Y-52728400D03*
X110993100Y-65044100D03*
%TO.N,/~{D10R}*%
X98368100Y-36252000D03*
%TO.N,/IDEDataBus8*%
X105220000Y-69663500D03*
X94258200Y-63582000D03*
X105397800Y-33478300D03*
%TO.N,/IDEDataBus10*%
X98864100Y-60024200D03*
X106520000Y-70991600D03*
X110860800Y-33035300D03*
%TO.N,/IDEDataBus14*%
X108942700Y-70252300D03*
X103952600Y-59989800D03*
%TO.N,Net-(J4-Pin_38)*%
X94740000Y-90107100D03*
%TO.N,/IDEDataBus5*%
X99800100Y-71251000D03*
X120890000Y-36242000D03*
%TO.N,/IDEDataBus1*%
X93714900Y-69808900D03*
X96278100Y-77038000D03*
%TO.N,/~{DASP}*%
X37022700Y-34175000D03*
X191309600Y-23871600D03*
%TO.N,/IDEDataBus11*%
X107662700Y-65067300D03*
X106315000Y-58377600D03*
%TO.N,/IDEDataBus0*%
X95987600Y-83264700D03*
X94513300Y-50898000D03*
X63746700Y-44482100D03*
X94415300Y-65357900D03*
%TO.N,Net-(J4-Pin_36)*%
X99956300Y-97234200D03*
%TO.N,/IDEDataBus7*%
X104230600Y-81387500D03*
%TO.N,/~{D10W}*%
X55963700Y-43851200D03*
X101620000Y-38601400D03*
%TO.N,Net-(J4-Pin_37)*%
X78827700Y-45157500D03*
X94706600Y-97239900D03*
%TO.N,/IDEDataBus2*%
X97235000Y-84485000D03*
X95612200Y-68341900D03*
%TO.N,/IDEDataBus13*%
X106811900Y-57515100D03*
X109108300Y-65240800D03*
%TO.N,/~{DMACK}*%
X93718100Y-36316100D03*
%TO.N,Net-(J4-Pin_35)*%
X98702100Y-97249700D03*
%TO.N,/INTRQ*%
X91460000Y-36371000D03*
%TO.N,Net-(J4-Pin_1)*%
X104332300Y-90246000D03*
%TO.N,/IDEDataBus6*%
X98816400Y-68126500D03*
X102810700Y-84644300D03*
%TO.N,/IDEDataBus4*%
X96817700Y-68696900D03*
X101419400Y-84516500D03*
X109844800Y-37018500D03*
%TO.N,/DMARQ*%
X104160000Y-38591400D03*
%TO.N,Net-(U103B-RCext)*%
X217394900Y-132486200D03*
X210983400Y-141584300D03*
%TO.N,/IORDY*%
X97085800Y-36116600D03*
%TO.N,Net-(D1-A)*%
X115656600Y-73426700D03*
X115667300Y-57105600D03*
X106852100Y-91823400D03*
%TO.N,Net-(U5-VS+)*%
X38700000Y-28200000D03*
%TO.N,/~{W60h}*%
X131374800Y-57021000D03*
%TO.N,/~{R60h}*%
X247074200Y-131292900D03*
X121062200Y-79004500D03*
X136734500Y-132310600D03*
%TO.N,Net-(OSC1-OUT)*%
X153207100Y-72647900D03*
%TO.N,Net-(C39-Pad2)*%
X226132700Y-125239400D03*
X176449300Y-77677400D03*
X117600000Y-73657000D03*
%TO.N,Net-(J6-Pin_2)*%
X209165300Y-86705400D03*
%TO.N,Net-(U1-~{RESET})*%
X120906600Y-67468900D03*
X122581400Y-78382300D03*
X221959500Y-131948200D03*
X168978800Y-84284600D03*
%TO.N,/RP1-11*%
X206014200Y-71601700D03*
X190544300Y-34541400D03*
X236080000Y-131977000D03*
X254401100Y-68757500D03*
X246743400Y-71249300D03*
X205520000Y-82073800D03*
%TO.N,/IMIBus5*%
X248204200Y-82094500D03*
X182501100Y-33119800D03*
X236900000Y-31800000D03*
X256166200Y-80866200D03*
%TO.N,/RP1-13*%
X209936600Y-33209500D03*
X207136200Y-81993300D03*
X251731600Y-72550200D03*
%TO.N,/IMIBus6*%
X254116800Y-92828600D03*
X181110200Y-32768100D03*
%TO.N,/IMIBus3*%
X253676600Y-83252900D03*
X208482700Y-45451600D03*
X205414600Y-53531200D03*
%TO.N,/IMIBus7*%
X257292000Y-83483300D03*
X210240600Y-37999400D03*
X257440600Y-57757400D03*
%TO.N,/IMIBus4*%
X241947000Y-40243800D03*
X254515200Y-91747000D03*
X173221800Y-33007600D03*
X248996800Y-92413500D03*
%TO.N,Net-(OSC2-OUT)*%
X211611400Y-103747900D03*
X203792600Y-116273000D03*
%TO.N,/IMIBus0*%
X255864600Y-88726400D03*
X204220000Y-81991900D03*
%TO.N,Net-(U9-I2a)*%
X209538500Y-71877700D03*
X254679200Y-72590100D03*
%TO.N,/RP1-14*%
X223348600Y-43419900D03*
X248550400Y-76305700D03*
X240997200Y-43419900D03*
X163453800Y-67989300D03*
%TO.N,/IMIBus1*%
X253257300Y-86003500D03*
X208841600Y-78416600D03*
%TO.N,/IMIBus2*%
X255200000Y-47100000D03*
X253909300Y-88994600D03*
X207384400Y-44999500D03*
%TO.N,Net-(U101-~{Y3})*%
X147830000Y-41761700D03*
X154415800Y-24662000D03*
%TO.N,Net-(U102A-~{Q})*%
X170196300Y-35962300D03*
X191180400Y-86737700D03*
%TO.N,Net-(U102B-~{Q})*%
X174553700Y-31108900D03*
X189775100Y-78172400D03*
%TO.N,Net-(U103A-~{Q})*%
X169424700Y-27092200D03*
X210469000Y-140410400D03*
%TO.N,Net-(U103B-~{Q})*%
X210765700Y-130300000D03*
X175744500Y-30097200D03*
X210765700Y-109138000D03*
%TO.N,Net-(R9-Pad1)*%
X176832000Y-29622100D03*
X205799900Y-91681400D03*
%TO.N,Net-(OSC3-OUT)*%
X215840000Y-59986600D03*
X130043100Y-75760200D03*
X167345300Y-63998300D03*
%TO.N,Net-(U2-~{OE})*%
X161843200Y-75118100D03*
X227040000Y-131932000D03*
X176820300Y-31337800D03*
X169933000Y-75188500D03*
X176684700Y-71412000D03*
%TO.N,Net-(U13-I0a)*%
X226427900Y-96160400D03*
%TO.N,Net-(U13-I1a)*%
X232367400Y-97248100D03*
%TO.N,Net-(U13-I3a)*%
X237852200Y-98119200D03*
%TO.N,Net-(U13-I1b)*%
X235193400Y-92550700D03*
%TO.N,Net-(U13-I2b)*%
X233790000Y-88751800D03*
%TO.N,Net-(U13-I3b)*%
X232576900Y-91515500D03*
%TO.N,/-SEL*%
X136038700Y-47377000D03*
X209392500Y-79213800D03*
X187182100Y-29266900D03*
%TO.N,Net-(R32-Pad1)*%
X135208300Y-90744600D03*
X220000000Y-92588500D03*
%TO.N,Net-(U28A-~{Q})*%
X143304400Y-58444100D03*
X190909500Y-108776500D03*
X217069700Y-110843200D03*
%TO.N,Net-(U24-Cp)*%
X213901300Y-116530400D03*
X258761800Y-122038300D03*
X164622600Y-60644600D03*
%TO.N,Net-(R44-Pad2)*%
X103632100Y-46103200D03*
X101207300Y-35982400D03*
%TO.N,Net-(R51-Pad1)*%
X150858700Y-80345700D03*
X131780200Y-52409900D03*
%TO.N,/DataBus3*%
X251353800Y-95317100D03*
X107180000Y-74182300D03*
X233190400Y-97391100D03*
X251206400Y-108867400D03*
X97353700Y-56400600D03*
X98450200Y-77351300D03*
X96834000Y-65024300D03*
X252325600Y-76453200D03*
X185470000Y-100332000D03*
X160477000Y-84434600D03*
X251498200Y-58053500D03*
X252560200Y-121909000D03*
%TO.N,Net-(U1-~{WAIT})*%
X216920500Y-123027900D03*
X214958500Y-120551700D03*
%TO.N,/~{IORQ}*%
X136048600Y-44564600D03*
%TO.N,/AddressBus8*%
X187681200Y-115927300D03*
%TO.N,/DataBus5*%
X235178100Y-97927100D03*
X255341800Y-95299700D03*
X97951500Y-76338500D03*
X101295000Y-93902500D03*
X255714400Y-76446900D03*
X254711100Y-88997900D03*
X108232500Y-70975800D03*
X97594700Y-69060000D03*
X255765300Y-54813000D03*
X253528100Y-118152000D03*
X100933000Y-56510400D03*
X184010000Y-100590000D03*
%TO.N,/DataBus4*%
X235112400Y-88395300D03*
X95926400Y-71045900D03*
X255489600Y-102372600D03*
X255661800Y-87924600D03*
X104665200Y-63512100D03*
X99583200Y-83198100D03*
X159718000Y-103269200D03*
%TO.N,/DataBus0*%
X168823000Y-105540200D03*
X187014800Y-107862000D03*
X252631200Y-113704000D03*
X245302200Y-83244600D03*
X251191500Y-68757500D03*
X249605800Y-127955000D03*
X95411700Y-63062100D03*
X103046900Y-64457300D03*
X252523100Y-83132600D03*
X250481100Y-105697100D03*
X94936200Y-74662400D03*
%TO.N,Net-(U1-~{MREQ})*%
X131776200Y-50633300D03*
X177523200Y-105328100D03*
%TO.N,/AddressBus0*%
X162631600Y-107492800D03*
X142734800Y-107094500D03*
X180528500Y-102039600D03*
%TO.N,/~{R}*%
X171574200Y-98312700D03*
%TO.N,Net-(U1-~{CLK})*%
X223230000Y-137476500D03*
X214380000Y-126072100D03*
X217456100Y-105073500D03*
%TO.N,/DataBus2*%
X98542400Y-83842500D03*
X251862800Y-81509500D03*
X107086000Y-64484200D03*
X172685600Y-96074000D03*
X99674500Y-65202400D03*
X252990000Y-127801600D03*
X233391300Y-91514000D03*
X185258300Y-98964000D03*
X253318900Y-109871400D03*
X251261700Y-93233800D03*
%TO.N,/AddressBus12*%
X188532700Y-107982700D03*
%TO.N,/AddressBus6*%
X186872500Y-113442100D03*
%TO.N,/~{M1}*%
X151141500Y-65743200D03*
X179448700Y-108880100D03*
X142130300Y-67042900D03*
%TO.N,/DataBus6*%
X258060000Y-132187500D03*
X256461900Y-102465000D03*
X109780000Y-64416000D03*
X257851000Y-85809900D03*
X254839900Y-115461700D03*
X183525100Y-103064500D03*
X101579300Y-59752300D03*
X165239800Y-84889400D03*
X108548900Y-84156800D03*
X235740000Y-91502600D03*
%TO.N,/AddressBus7*%
X97180800Y-48694800D03*
X133140800Y-44755000D03*
X187101587Y-117398413D03*
%TO.N,/DataBus1*%
X230376100Y-98095700D03*
X248927000Y-114784300D03*
X187243000Y-100583600D03*
X183477600Y-94523900D03*
X250022800Y-90655500D03*
X250764600Y-76450000D03*
X106095500Y-69722300D03*
X94990500Y-64793900D03*
X94710500Y-77358600D03*
X153595300Y-75106400D03*
X250460000Y-58063000D03*
X95586600Y-55979000D03*
%TO.N,/AddressBus4*%
X91220000Y-50243500D03*
%TO.N,/AddressBus5*%
X186300000Y-116100000D03*
X92616200Y-51486700D03*
%TO.N,/AddressBus14*%
X186507700Y-107231300D03*
%TO.N,/AddressBus11*%
X189988700Y-114680000D03*
X159434600Y-117554400D03*
X160884000Y-113895100D03*
%TO.N,/DataBus7*%
X102935500Y-76847000D03*
X102743600Y-90048100D03*
X102521200Y-55983000D03*
X242234000Y-96829900D03*
X182720800Y-100578400D03*
X256451900Y-58047500D03*
X257028800Y-114239600D03*
X257533700Y-76656600D03*
X98865000Y-65325100D03*
X164608400Y-87661400D03*
X257968600Y-95239500D03*
%TO.N,/~{W}*%
X92520000Y-50250600D03*
X115118700Y-104941500D03*
%TO.N,Net-(U4-RXA)*%
X133658900Y-23375100D03*
%TO.N,Net-(U4-RST)*%
X116781700Y-74046800D03*
X117385300Y-65342800D03*
%TO.N,Net-(U4-TXB)*%
X131357500Y-24047200D03*
%TO.N,Net-(U4-RXB)*%
X132811200Y-26483700D03*
%TO.N,Net-(U4-TXA)*%
X135461700Y-29718300D03*
%TO.N,Net-(U6A-D)*%
X212756400Y-122640900D03*
X172260300Y-78399300D03*
%TO.N,Net-(U6B-Q)*%
X218190000Y-120532900D03*
X222602000Y-136021000D03*
%TO.N,/~{W50h}*%
X225770000Y-131940100D03*
X143421000Y-124314900D03*
%TO.N,/SUA2*%
X256952100Y-59434300D03*
%TO.N,/+FAULT*%
X204749200Y-91103100D03*
X249190000Y-58053200D03*
X210853500Y-58903500D03*
X134003900Y-91358100D03*
%TO.N,/~{W10h}*%
X254241800Y-107472700D03*
X260172900Y-57066900D03*
%TO.N,Net-(U8-O0)*%
X249754200Y-62178300D03*
X212104400Y-61442600D03*
%TO.N,/SUA0*%
X188445300Y-55020500D03*
X254241800Y-59832000D03*
X144535400Y-48185400D03*
%TO.N,/+SEL*%
X130198500Y-48650900D03*
X130359000Y-92082500D03*
X209536900Y-61493400D03*
X178629000Y-67370600D03*
X148480000Y-47488000D03*
X251767100Y-66139300D03*
%TO.N,/SUA1*%
X146105400Y-47492900D03*
X254234700Y-58060600D03*
%TO.N,/SUA3*%
X243184100Y-54506400D03*
X147638100Y-47501700D03*
%TO.N,/~{R10h}*%
X247627600Y-75470000D03*
X243904100Y-90232200D03*
%TO.N,/+WGATE*%
X239526400Y-119551900D03*
X259350000Y-69313200D03*
X195170000Y-81269800D03*
X240680400Y-131721600D03*
X206948400Y-62636100D03*
%TO.N,/+RGATE*%
X257316200Y-79538900D03*
X199521200Y-86556600D03*
X205600200Y-62640000D03*
X241952300Y-132707700D03*
X224965800Y-86444600D03*
%TO.N,/~{R00h}*%
X250427500Y-88991800D03*
%TO.N,Net-(U11-O6)*%
X251313300Y-98483200D03*
%TO.N,Net-(U11-O0)*%
X249208100Y-102450600D03*
%TO.N,Net-(U11-O4)*%
X258772500Y-95394200D03*
X243315800Y-97911600D03*
%TO.N,Net-(U11-O1)*%
X252731500Y-105697100D03*
%TO.N,Net-(U11-O5)*%
X248993200Y-99632700D03*
X243416700Y-41169500D03*
%TO.N,Net-(U11-O2)*%
X254588600Y-105698300D03*
X262315100Y-39238000D03*
%TO.N,/~{W00h}*%
X259350000Y-98553200D03*
%TO.N,Net-(U11-O7)*%
X251331500Y-99347200D03*
%TO.N,Net-(U11-O3)*%
X252498500Y-101795800D03*
X254384900Y-51445000D03*
%TO.N,/~{R30h}*%
X229177000Y-96109300D03*
%TO.N,Net-(U13-I0b)*%
X119668700Y-94001700D03*
X232985700Y-88610400D03*
%TO.N,/~{R70h}*%
X133719300Y-84439900D03*
%TO.N,/~{START SEEK}*%
X205446500Y-95754900D03*
X206285400Y-137475600D03*
X201970200Y-109995200D03*
%TO.N,Net-(U14-E3)*%
X133595800Y-41632200D03*
%TO.N,/~{IO}*%
X136950000Y-101955000D03*
X92627100Y-47501900D03*
X131942400Y-54456200D03*
X143909800Y-67278700D03*
%TO.N,Net-(U15-~{Y1})*%
X105654900Y-89450700D03*
X93152100Y-45306200D03*
%TO.N,Net-(U15-~{Y4})*%
X99400900Y-49323500D03*
X163862200Y-76197500D03*
X136880000Y-53271200D03*
%TO.N,Net-(U15-~{Y2})*%
X117287700Y-48400100D03*
X93264700Y-44500600D03*
%TO.N,Net-(U15-~{Y0})*%
X96514400Y-47137200D03*
X136062500Y-53384000D03*
X162990800Y-76166700D03*
X100510000Y-50168500D03*
X103235000Y-50184600D03*
%TO.N,/~{W40h}*%
X131558500Y-95011300D03*
%TO.N,Net-(U16-O7)*%
X133422700Y-88732500D03*
%TO.N,/~{W20h}*%
X114332400Y-93084000D03*
%TO.N,/~{W30h}*%
X206617700Y-95385600D03*
X130348000Y-93585700D03*
%TO.N,Net-(U22A-Q)*%
X119229900Y-85768500D03*
X208677000Y-85392500D03*
%TO.N,Net-(U21B-Q)*%
X204903600Y-104291100D03*
%TO.N,Net-(U21A-Q)*%
X200244600Y-99848100D03*
%TO.N,Net-(U19-Pad1)*%
X170300500Y-70210000D03*
X218187900Y-70210000D03*
%TO.N,Net-(U21A-B)*%
X198070000Y-105663700D03*
X140076100Y-101891100D03*
%TO.N,/~{SEEK COMPLETE}*%
X203759600Y-88342800D03*
X119534600Y-91478300D03*
%TO.N,Net-(U23-~{PL})*%
X248228300Y-116740000D03*
X216692200Y-108975800D03*
X189334400Y-107982700D03*
%TO.N,Net-(U23-CP)*%
X237502500Y-137505200D03*
X200983700Y-109399200D03*
X138130000Y-41691600D03*
X250142700Y-118235900D03*
%TO.N,Net-(U23-Q7)*%
X257386700Y-108832800D03*
X242014900Y-106678200D03*
%TO.N,Net-(U24-D4)*%
X237380500Y-119835500D03*
X256219900Y-122038300D03*
%TO.N,Net-(U24-D5)*%
X238500000Y-122562100D03*
X255103200Y-121283200D03*
%TO.N,Net-(U24-D3)*%
X237850000Y-123046200D03*
X256790000Y-128947900D03*
%TO.N,Net-(U24-D2)*%
X255520000Y-128361800D03*
X239397700Y-122574400D03*
%TO.N,Net-(U24-D7)*%
X242206900Y-124795300D03*
X249982100Y-124940500D03*
%TO.N,Net-(U25-CP)*%
X241156800Y-120464600D03*
X169017100Y-77461400D03*
X140107100Y-44258400D03*
%TO.N,Net-(U25-DSA)*%
X235835900Y-126018800D03*
%TO.N,Net-(U26-~{MR})*%
X129558400Y-74733900D03*
X137743500Y-47059500D03*
%TO.N,Net-(U26-Q1)*%
X155030400Y-61309600D03*
X238620000Y-140570000D03*
X132550000Y-70259600D03*
%TO.N,Net-(U27A-Q3)*%
X158120900Y-63810800D03*
X144987700Y-61615800D03*
%TO.N,Net-(U27A-MR)*%
X118768300Y-70934700D03*
X151611900Y-63052900D03*
%TO.N,Net-(U27A-CP)*%
X169054800Y-61271700D03*
X236915000Y-136899300D03*
X152483100Y-64200800D03*
%TO.N,Net-(U27A-Q2)*%
X141025100Y-61786100D03*
X156978700Y-62768700D03*
%TO.N,Net-(U29-~{Y2})*%
X213200000Y-67500000D03*
X212014300Y-64900000D03*
%TO.N,Net-(U29-~{Y1})*%
X203212600Y-63206000D03*
X205433500Y-72997900D03*
%TO.N,Net-(U29-E2)*%
X169709500Y-70952100D03*
X207224800Y-79228100D03*
%TO.N,Net-(U30A-Q)*%
X122769900Y-47262800D03*
X101191300Y-47434300D03*
X103760000Y-44966000D03*
%TO.N,Net-(U31-OE)*%
X109000700Y-50304700D03*
X96818500Y-59729100D03*
%TO.N,Net-(U33-OEa)*%
X104644800Y-65053900D03*
X112729200Y-50173600D03*
X103784800Y-72370000D03*
X101300000Y-70900000D03*
%TO.N,Net-(U34-OE)*%
X93607800Y-81600300D03*
X102416800Y-44562600D03*
%TO.N,-5V*%
X150995100Y-104249900D03*
X146970000Y-135037400D03*
X207363500Y-104257400D03*
%TO.N,Net-(U38-Pad6)*%
X112486400Y-41590000D03*
X113200200Y-47339000D03*
%TO.N,Net-(U39-Pad2)*%
X137390000Y-66432000D03*
X132387100Y-55164400D03*
%TO.N,Net-(U39-Pad10)*%
X144389600Y-63658300D03*
X137198400Y-44859400D03*
%TO.N,Net-(U46-~{MR})*%
X142443700Y-58546600D03*
X165873400Y-63811900D03*
%TO.N,Net-(P1-+16_V)*%
X57601100Y-148447200D03*
%TO.N,Net-(U42-Pad13)*%
X171330700Y-72565700D03*
X234810000Y-131966000D03*
%TO.N,/CMDRW*%
X163550000Y-69024500D03*
X251730000Y-79705400D03*
X237976700Y-129574600D03*
X217020800Y-73158600D03*
X211552100Y-36943700D03*
%TO.N,Net-(U3-~{OE})*%
X185132200Y-112526000D03*
X228310000Y-131943400D03*
X181084600Y-113877300D03*
X147090000Y-63245000D03*
%TO.N,Net-(Q1-COLLECTOR)*%
X216575400Y-39178600D03*
X216512300Y-84178000D03*
%TO.N,Net-(R10-Pad1)*%
X207352100Y-85518700D03*
X207666200Y-91219800D03*
%TO.N,Net-(J5-Pin_2)*%
X58737500Y-150396900D03*
X106803900Y-129118000D03*
%TO.N,Net-(TP3-Pad1)*%
X121487200Y-69236100D03*
%TD*%
D22*
%TO.N,+5V*%
X143950500Y-84359500D02*
X145220000Y-83090000D01*
X225900000Y-76000000D02*
X223295200Y-78604800D01*
X183380000Y-137350000D02*
X183380000Y-124650000D01*
X225900000Y-76000000D02*
X224659400Y-74759400D01*
X144674700Y-99524700D02*
X145280000Y-100130000D01*
X224659400Y-74759400D02*
X224659400Y-62925600D01*
X224659400Y-62925600D02*
X225900000Y-61685000D01*
X183380000Y-124650000D02*
X180840000Y-122110000D01*
X178053700Y-119323700D02*
X178053700Y-110875900D01*
X143345300Y-99524700D02*
X143950500Y-99524700D01*
X143950500Y-99524700D02*
X143950500Y-84359500D01*
X142740000Y-100130000D02*
X143345300Y-99524700D01*
X143950500Y-99524700D02*
X144674700Y-99524700D01*
X223295200Y-78604800D02*
X223295200Y-87201400D01*
X180840000Y-122110000D02*
X178053700Y-119323700D01*
D23*
%TO.N,/IDEDataBus9*%
X95090200Y-51912300D02*
X94881800Y-52120700D01*
X96942000Y-48118100D02*
X96604100Y-48456000D01*
X101032500Y-43437000D02*
X99587100Y-44882400D01*
X97042500Y-48118100D02*
X96942000Y-48118100D01*
X96604100Y-48456000D02*
X96604100Y-48858100D01*
X101032500Y-37251200D02*
X101032500Y-43437000D01*
X102136800Y-36146900D02*
X101032500Y-37251200D01*
X95090200Y-50372000D02*
X95090200Y-51912300D01*
X99587100Y-45573500D02*
X97042500Y-48118100D01*
X99587100Y-44882400D02*
X99587100Y-45573500D01*
X102136800Y-32921600D02*
X102136800Y-36146900D01*
X96604100Y-48858100D02*
X95090200Y-50372000D01*
%TO.N,Net-(J4-Pin_33)*%
X89140000Y-26460000D02*
X90268900Y-27588900D01*
X81007900Y-24859000D02*
X87539000Y-24859000D01*
X79555200Y-26311700D02*
X81007900Y-24859000D01*
X79555200Y-40694400D02*
X79555200Y-26311700D01*
X90268900Y-38601200D02*
X89864800Y-39005300D01*
X87539000Y-24859000D02*
X89140000Y-26460000D01*
X77795100Y-42454500D02*
X79555200Y-40694400D01*
X89864800Y-39005300D02*
X89864800Y-81253600D01*
X90268900Y-27588900D02*
X90268900Y-38601200D01*
X89864800Y-81253600D02*
X98709400Y-90098200D01*
X44750000Y-40000000D02*
X47204500Y-42454500D01*
X47204500Y-42454500D02*
X77795100Y-42454500D01*
%TO.N,/IDEDataBus12*%
X111557900Y-31768000D02*
X111689000Y-31636900D01*
X103623600Y-64158400D02*
X103623600Y-65618600D01*
X103623600Y-65618600D02*
X107407200Y-69402200D01*
X107407200Y-69402200D02*
X107407200Y-70996200D01*
X111557900Y-49720000D02*
X111557900Y-31768000D01*
X102510600Y-58767300D02*
X111557900Y-49720000D01*
X102510600Y-63045400D02*
X102510600Y-58767300D01*
X102510600Y-63045400D02*
X103623600Y-64158400D01*
X102056900Y-63499100D02*
X102510600Y-63045400D01*
%TO.N,/IDEDataBus3*%
X68149400Y-41399400D02*
X77358000Y-41399400D01*
X68071400Y-58485900D02*
X68071400Y-44510000D01*
X66750000Y-40000000D02*
X68149400Y-41399400D01*
X77358000Y-41399400D02*
X78500100Y-40257300D01*
X80478400Y-23803800D02*
X114423800Y-23803800D01*
X84824600Y-75239100D02*
X68071400Y-58485900D01*
X78429200Y-25853000D02*
X80478400Y-23803800D01*
X78429200Y-25915000D02*
X78429200Y-25853000D01*
X78500100Y-25985900D02*
X78429200Y-25915000D01*
X78500100Y-40257300D02*
X78500100Y-25985900D01*
X114423800Y-23803800D02*
X117080000Y-26460000D01*
%TO.N,/IDEDataBus15*%
X109141400Y-29318600D02*
X109141400Y-47042000D01*
X109460000Y-29000000D02*
X109141400Y-29318600D01*
X109141400Y-47042000D02*
X103455000Y-52728400D01*
%TO.N,/IDEDataBus8*%
X97419700Y-49271500D02*
X97757500Y-48933700D01*
X95620100Y-55049000D02*
X95620100Y-50939800D01*
X95620100Y-50939800D02*
X97288400Y-49271500D01*
X94258200Y-56410900D02*
X95620100Y-55049000D01*
X99969800Y-45120800D02*
X105397800Y-39692800D01*
X94258200Y-63582000D02*
X94258200Y-56410900D01*
X97757500Y-48408500D02*
X99969800Y-46196200D01*
X97288400Y-49271500D02*
X97419700Y-49271500D01*
X97757500Y-48933700D02*
X97757500Y-48408500D01*
X99969800Y-46196200D02*
X99969800Y-45120800D01*
X105397800Y-39692800D02*
X105397800Y-33478300D01*
%TO.N,/IDEDataBus10*%
X102158900Y-60329000D02*
X101452900Y-61035000D01*
X110860800Y-49861300D02*
X102158900Y-58563200D01*
X101452900Y-66717800D02*
X105726700Y-70991600D01*
X98864100Y-60024200D02*
X99874900Y-61035000D01*
X110860800Y-33035300D02*
X110860800Y-49861300D01*
X101452900Y-61035000D02*
X101452900Y-66717800D01*
X99874900Y-61035000D02*
X101452900Y-61035000D01*
X105726700Y-70991600D02*
X106520000Y-70991600D01*
X102158900Y-58563200D02*
X102158900Y-60329000D01*
%TO.N,/IDEDataBus14*%
X112265700Y-29265700D02*
X112000000Y-29000000D01*
X111909600Y-50972400D02*
X111909600Y-34464700D01*
X111909600Y-34464700D02*
X112265700Y-34108600D01*
X103952600Y-58929400D02*
X111909600Y-50972400D01*
X112265700Y-34108600D02*
X112265700Y-29265700D01*
X104058100Y-60095300D02*
X103952600Y-59989800D01*
X103952600Y-59989800D02*
X103952600Y-58929400D01*
X104058100Y-65367700D02*
X104058100Y-60095300D01*
X108942700Y-70252300D02*
X104058100Y-65367700D01*
%TO.N,Net-(J4-Pin_38)*%
X87870100Y-28594200D02*
X87870100Y-83237200D01*
X87870100Y-83237200D02*
X94740000Y-90107100D01*
X87078300Y-27802400D02*
X87870100Y-28594200D01*
X84060000Y-29000000D02*
X85257600Y-27802400D01*
X85257600Y-27802400D02*
X87078300Y-27802400D01*
%TO.N,/IDEDataBus5*%
X120890000Y-57666800D02*
X111010300Y-67546500D01*
X111010300Y-67546500D02*
X111010300Y-69021200D01*
X120890000Y-36242000D02*
X120890000Y-57666800D01*
X122160000Y-26460000D02*
X120890000Y-27730000D01*
X120890000Y-27730000D02*
X120890000Y-36242000D01*
X111010300Y-69021200D02*
X108446000Y-71585500D01*
X108446000Y-71585500D02*
X100134600Y-71585500D01*
X100134600Y-71585500D02*
X99800100Y-71251000D01*
%TO.N,/IDEDataBus1*%
X110431800Y-24891800D02*
X95490000Y-24891800D01*
X95105500Y-24507300D02*
X95490000Y-24891800D01*
X95490000Y-24891800D02*
X95490000Y-45743000D01*
X62750000Y-40000000D02*
X64852800Y-42102800D01*
X93936600Y-47296400D02*
X93936600Y-55447500D01*
X79203500Y-40548700D02*
X79203500Y-26166000D01*
X93329700Y-69423700D02*
X93714900Y-69808900D01*
X112000000Y-26460000D02*
X110431800Y-24891800D01*
X64852800Y-42102800D02*
X77649400Y-42102800D01*
X93936600Y-55447500D02*
X93329700Y-56054400D01*
X80862200Y-24507300D02*
X95105500Y-24507300D01*
X93329700Y-56054400D02*
X93329700Y-69423700D01*
X95490000Y-45743000D02*
X93936600Y-47296400D01*
X77649400Y-42102800D02*
X79203500Y-40548700D01*
X79203500Y-26166000D02*
X80862200Y-24507300D01*
%TO.N,/~{DASP}*%
X34288600Y-41114700D02*
X33625500Y-40451600D01*
X35473500Y-41116200D02*
X35472000Y-41114700D01*
X33627000Y-38205800D02*
X33627000Y-37570700D01*
X38750000Y-40000000D02*
X37633800Y-41116200D01*
X37633800Y-41116200D02*
X35473500Y-41116200D01*
X33627000Y-37570700D02*
X37022700Y-34175000D01*
X33625500Y-40451600D02*
X33625500Y-38207300D01*
X35472000Y-41114700D02*
X34288600Y-41114700D01*
X33625500Y-38207300D02*
X33627000Y-38205800D01*
%TO.N,/IDEDataBus11*%
X109357800Y-65863900D02*
X108459300Y-65863900D01*
X119620000Y-29000000D02*
X119620000Y-55601700D01*
X108459300Y-65863900D02*
X107662700Y-65067300D01*
X107662700Y-65067300D02*
X107662700Y-59725300D01*
X107662700Y-59725300D02*
X106315000Y-58377600D01*
X119620000Y-55601700D02*
X109357800Y-65863900D01*
%TO.N,/IDEDataBus0*%
X94742700Y-82019800D02*
X95987600Y-83264700D01*
X94007800Y-80725900D02*
X94742700Y-81460800D01*
X100625400Y-26071500D02*
X100625400Y-43057100D01*
X94291700Y-72353700D02*
X94007800Y-72637600D01*
X93681400Y-64624000D02*
X93681400Y-56200200D01*
X97140000Y-46542500D02*
X97140000Y-47422700D01*
X94007800Y-72637600D02*
X94007800Y-80725900D01*
X93681400Y-56200200D02*
X94289800Y-55591800D01*
X94415300Y-65357900D02*
X93681400Y-64624000D01*
X100625400Y-43057100D02*
X97140000Y-46542500D01*
X108243700Y-25243700D02*
X101453200Y-25243700D01*
X94415300Y-65357900D02*
X94291700Y-65481500D01*
X94513300Y-50049400D02*
X94513300Y-50898000D01*
X94742700Y-81460800D02*
X94742700Y-82019800D01*
X94289800Y-51121500D02*
X94513300Y-50898000D01*
X101453200Y-25243700D02*
X100625400Y-26071500D01*
X109460000Y-26460000D02*
X108243700Y-25243700D01*
X94289800Y-55591800D02*
X94289800Y-51121500D01*
X97140000Y-47422700D02*
X94513300Y-50049400D01*
X94291700Y-65481500D02*
X94291700Y-72353700D01*
%TO.N,Net-(J4-Pin_36)*%
X86600000Y-83877900D02*
X86600000Y-29000000D01*
X99956300Y-97234200D02*
X86600000Y-83877900D01*
%TO.N,/IDEDataBus7*%
X78148400Y-26131600D02*
X78024700Y-26007900D01*
X78148400Y-40111600D02*
X78148400Y-26131600D01*
X77212300Y-41047700D02*
X78148400Y-40111600D01*
X75797700Y-41047700D02*
X77212300Y-41047700D01*
X115951000Y-63602700D02*
X115951000Y-64726200D01*
X125970000Y-26063100D02*
X125970000Y-26460000D01*
X78024700Y-25760100D02*
X80352400Y-23432400D01*
X74750000Y-40000000D02*
X75797700Y-41047700D01*
X115930400Y-66347100D02*
X104230600Y-78046900D01*
X125970000Y-26460000D02*
X125970000Y-53583700D01*
X123339300Y-23432400D02*
X125970000Y-26063100D01*
X127240000Y-26460000D02*
X125970000Y-26460000D01*
X115951000Y-64726200D02*
X115930400Y-64746800D01*
X80352400Y-23432400D02*
X123339300Y-23432400D01*
X78024700Y-26007900D02*
X78024700Y-25760100D01*
X115930400Y-64746800D02*
X115930400Y-66347100D01*
X104230600Y-78046900D02*
X104230600Y-81387500D01*
X125970000Y-53583700D02*
X115951000Y-63602700D01*
%TO.N,/~{D10W}*%
X101840000Y-26460000D02*
X103049200Y-27669200D01*
X103049200Y-37172200D02*
X101620000Y-38601400D01*
X103049200Y-27669200D02*
X103049200Y-37172200D01*
%TO.N,Net-(J4-Pin_37)*%
X65123300Y-43921100D02*
X77591300Y-43921100D01*
X40750000Y-40000000D02*
X45808800Y-45058800D01*
X63985600Y-45058800D02*
X65123300Y-43921100D01*
X85401300Y-51731100D02*
X85401300Y-87934600D01*
X85401300Y-87934600D02*
X94706600Y-97239900D01*
X77591300Y-43921100D02*
X78827700Y-45157500D01*
X45808800Y-45058800D02*
X63985600Y-45058800D01*
X78827700Y-45157500D02*
X85401300Y-51731100D01*
%TO.N,/IDEDataBus2*%
X95838700Y-68115400D02*
X95838700Y-66753800D01*
X78851800Y-25927800D02*
X80624000Y-24155600D01*
X108190100Y-44410900D02*
X108190100Y-28620800D01*
X96257300Y-63529500D02*
X96399700Y-63387100D01*
X96257300Y-66335200D02*
X96257300Y-63529500D01*
X64750000Y-40000000D02*
X66501100Y-41751100D01*
X95612200Y-68341900D02*
X95838700Y-68115400D01*
X95349700Y-72369000D02*
X95864700Y-72884000D01*
X96399700Y-61915100D02*
X95890000Y-61405400D01*
X112235600Y-24155600D02*
X114540000Y-26460000D01*
X95838700Y-66753800D02*
X96257300Y-66335200D01*
X77503700Y-41751100D02*
X78851800Y-40403000D01*
X96776900Y-56398800D02*
X96776900Y-55824100D01*
X95890000Y-57285700D02*
X96776900Y-56398800D01*
X95864700Y-75147600D02*
X95701300Y-75311000D01*
X95701300Y-81424800D02*
X97235000Y-82958500D01*
X96399700Y-63387100D02*
X96399700Y-61915100D01*
X66501100Y-41751100D02*
X77503700Y-41751100D01*
X109080900Y-27730000D02*
X113270000Y-27730000D01*
X95349700Y-68604400D02*
X95349700Y-72369000D01*
X95701300Y-75311000D02*
X95701300Y-81424800D01*
X96776900Y-55824100D02*
X108190100Y-44410900D01*
X78851800Y-40403000D02*
X78851800Y-25927800D01*
X95612200Y-68341900D02*
X95349700Y-68604400D01*
X95890000Y-61405400D02*
X95890000Y-57285700D01*
X80624000Y-24155600D02*
X112235600Y-24155600D01*
X113270000Y-27730000D02*
X114540000Y-26460000D01*
X97235000Y-82958500D02*
X97235000Y-84485000D01*
X95864700Y-72884000D02*
X95864700Y-75147600D01*
X108190100Y-28620800D02*
X109080900Y-27730000D01*
%TO.N,/IDEDataBus13*%
X108608900Y-57515100D02*
X108608900Y-64741400D01*
X108608900Y-57515100D02*
X106811900Y-57515100D01*
X114540000Y-29000000D02*
X114540000Y-51584000D01*
X108608900Y-64741400D02*
X109108300Y-65240800D01*
X114540000Y-51584000D02*
X108608900Y-57515100D01*
%TO.N,Net-(J4-Pin_35)*%
X79937900Y-26443700D02*
X81093800Y-25287800D01*
X81093800Y-25287800D02*
X85427800Y-25287800D01*
X85427800Y-25287800D02*
X86600000Y-26460000D01*
X45672700Y-42922700D02*
X42750000Y-40000000D01*
X98702100Y-97249700D02*
X85753000Y-84300600D01*
X79937900Y-41126200D02*
X79937900Y-26443700D01*
X78141400Y-42922700D02*
X79937900Y-41126200D01*
X78141400Y-42922700D02*
X45672700Y-42922700D01*
X85753000Y-84300600D02*
X85753000Y-50534300D01*
X85753000Y-50534300D02*
X78141400Y-42922700D01*
%TO.N,/INTRQ*%
X91680000Y-26460000D02*
X92822200Y-27602200D01*
X92822200Y-27602200D02*
X92822200Y-35008800D01*
X92822200Y-35008800D02*
X91460000Y-36371000D01*
%TO.N,Net-(J4-Pin_1)*%
X104332300Y-90246000D02*
X105691400Y-90246000D01*
X116282100Y-67927000D02*
X116282100Y-64892500D01*
X128453500Y-27786500D02*
X129780000Y-26460000D01*
X105691400Y-90246000D02*
X109125600Y-86811800D01*
X109125600Y-86811800D02*
X109125600Y-75083500D01*
X109125600Y-75083500D02*
X116282100Y-67927000D01*
X128453500Y-52721100D02*
X128453500Y-27786500D01*
X116282100Y-64892500D02*
X128453500Y-52721100D01*
%TO.N,/IDEDataBus6*%
X103644500Y-75917700D02*
X103644500Y-83810500D01*
X103644500Y-75917700D02*
X99166500Y-71439700D01*
X116243500Y-62812800D02*
X115578700Y-63477600D01*
X123430000Y-55624200D02*
X116243500Y-62810700D01*
X99166500Y-68476600D02*
X98816400Y-68126500D01*
X124700000Y-26460000D02*
X123430000Y-27730000D01*
X99166500Y-71439700D02*
X99166500Y-68476600D01*
X104628600Y-75917700D02*
X103644500Y-75917700D01*
X115578700Y-63477600D02*
X115578700Y-64967600D01*
X116243500Y-62810700D02*
X116243500Y-62812800D01*
X123430000Y-27730000D02*
X123430000Y-55624200D01*
X115578700Y-64967600D02*
X104628600Y-75917700D01*
X103644500Y-83810500D02*
X102810700Y-84644300D01*
%TO.N,/IDEDataBus4*%
X109844800Y-50281300D02*
X105227800Y-54898300D01*
X101419400Y-84218700D02*
X97721600Y-80520900D01*
X97369900Y-70502700D02*
X96817700Y-69950500D01*
X105227800Y-54898300D02*
X102107800Y-54898300D01*
X97410900Y-59536700D02*
X97410900Y-68103700D01*
X109844800Y-37018500D02*
X109844800Y-50281300D01*
X97410900Y-68103700D02*
X96817700Y-68696900D01*
X100356300Y-56591300D02*
X97410900Y-59536700D01*
X101072400Y-55933700D02*
X100694200Y-55933700D01*
X97721600Y-80520900D02*
X97721600Y-76924000D01*
X100356300Y-56271600D02*
X100356300Y-56591300D01*
X102107800Y-54898300D02*
X101072400Y-55933700D01*
X101419400Y-84516500D02*
X101419400Y-84218700D01*
X97721600Y-76924000D02*
X97721500Y-76924000D01*
X96817700Y-69950500D02*
X96817700Y-68696900D01*
X97369900Y-76572400D02*
X97369900Y-70502700D01*
X97721500Y-76924000D02*
X97369900Y-76572400D01*
X100694200Y-55933700D02*
X100356300Y-56271600D01*
%TO.N,/DMARQ*%
X104160000Y-32127500D02*
X105623700Y-30663800D01*
X105623700Y-27703700D02*
X104380000Y-26460000D01*
X104160000Y-38591400D02*
X104160000Y-32127500D01*
X105623700Y-30663800D02*
X105623700Y-27703700D01*
%TO.N,Net-(U103B-RCext)*%
X217394900Y-135172800D02*
X217394900Y-132486200D01*
X210983400Y-141584300D02*
X217394900Y-135172800D01*
%TO.N,Net-(D1-A)*%
X106852100Y-91823400D02*
X115656600Y-83018900D01*
X115656600Y-83018900D02*
X115656600Y-73426700D01*
%TO.N,/~{W60h}*%
X135785000Y-110860000D02*
X135785000Y-61431200D01*
X134820000Y-111825000D02*
X135785000Y-110860000D01*
X135785000Y-61431200D02*
X131374800Y-57021000D01*
%TO.N,/~{R60h}*%
X134590000Y-97760000D02*
X133426100Y-98923900D01*
X133426100Y-129002200D02*
X136734500Y-132310600D01*
X133426100Y-98923900D02*
X133426100Y-129002200D01*
%TO.N,Net-(OSC1-OUT)*%
X152840000Y-83090000D02*
X152840000Y-73015000D01*
X152840000Y-73015000D02*
X153207100Y-72647900D01*
%TO.N,Net-(C39-Pad2)*%
X211170200Y-110276900D02*
X209048800Y-110276900D01*
X209048800Y-110276900D02*
X176449300Y-77677400D01*
X226132700Y-125239400D02*
X211170200Y-110276900D01*
%TO.N,Net-(J6-Pin_2)*%
X207906600Y-62170800D02*
X207906600Y-79874700D01*
X207906600Y-79874700D02*
X206528000Y-81253300D01*
X206528000Y-81253300D02*
X206528000Y-83879000D01*
X203765000Y-55500000D02*
X203765000Y-58029200D01*
X207928800Y-85279800D02*
X207928800Y-85468900D01*
X206528000Y-83879000D02*
X207928800Y-85279800D01*
X207928800Y-85468900D02*
X209165300Y-86705400D01*
X203765000Y-58029200D02*
X207906600Y-62170800D01*
%TO.N,Net-(U1-~{RESET})*%
X178300000Y-122110000D02*
X171950000Y-115760000D01*
X171950000Y-115760000D02*
X171950000Y-114682100D01*
X120907900Y-67470100D02*
X120907800Y-67470100D01*
X120907900Y-76708800D02*
X120907900Y-67470100D01*
X169760200Y-112492300D02*
X169760200Y-101502700D01*
X171822500Y-93683300D02*
X171822500Y-87128300D01*
X120907800Y-67470100D02*
X120906600Y-67468900D01*
X169760200Y-101502700D02*
X169585000Y-101327500D01*
X169585000Y-101327500D02*
X169585000Y-95920800D01*
X171822500Y-87128300D02*
X168978800Y-84284600D01*
X169585000Y-95920800D02*
X171822500Y-93683300D01*
X122581400Y-78382300D02*
X120907900Y-76708800D01*
X171950000Y-114682100D02*
X169760200Y-112492300D01*
%TO.N,/RP1-11*%
X249132700Y-83114500D02*
X248291900Y-83955300D01*
X193498400Y-57890500D02*
X193498400Y-80442400D01*
X241733600Y-120076400D02*
X241733600Y-124453100D01*
X241733600Y-124453100D02*
X236080000Y-130106700D01*
X248291900Y-83955300D02*
X248291900Y-113518100D01*
X195759200Y-39756300D02*
X195759200Y-55629700D01*
X195915600Y-81700300D02*
X195915600Y-81848100D01*
X195759200Y-55629700D02*
X193498400Y-57890500D01*
X195915600Y-83818700D02*
X199230300Y-87133400D01*
X200460400Y-87133400D02*
X205520000Y-82073800D01*
X206014200Y-71601700D02*
X195915600Y-81700300D01*
X190544300Y-34541400D02*
X195759200Y-39756300D01*
X199230300Y-87133400D02*
X200460400Y-87133400D01*
X246743400Y-71249300D02*
X249132700Y-73638600D01*
X236080000Y-130106700D02*
X236080000Y-131977000D01*
X195915600Y-81848100D02*
X195915600Y-83818700D01*
X249132700Y-73638600D02*
X249132700Y-83114500D01*
X193498400Y-80442400D02*
X194904100Y-81848100D01*
X248291900Y-113518100D02*
X241733600Y-120076400D01*
X194904100Y-81848100D02*
X195915600Y-81848100D01*
%TO.N,/IMIBus5*%
X243099600Y-55237300D02*
X243099600Y-61567100D01*
X243099500Y-55237300D02*
X243099600Y-55237300D01*
X243974700Y-62442200D02*
X243974700Y-77865000D01*
X242606100Y-54743900D02*
X243099500Y-55237300D01*
X243974700Y-77865000D02*
X248204200Y-82094500D01*
X243099600Y-61567100D02*
X243974700Y-62442200D01*
X238190000Y-41700000D02*
X242606100Y-46116100D01*
X242606100Y-46116100D02*
X242606100Y-54743900D01*
%TO.N,/RP1-13*%
X207136200Y-81993300D02*
X207428600Y-81993300D01*
X209662300Y-38238200D02*
X209662300Y-33483800D01*
X210115200Y-71638700D02*
X210113700Y-71637200D01*
X207428600Y-81993300D02*
X210115200Y-79306700D01*
X210113700Y-71637200D02*
X210113700Y-61253000D01*
X210115200Y-79306700D02*
X210115200Y-71638700D01*
X209786000Y-38361900D02*
X209662300Y-38238200D01*
X209786000Y-60925300D02*
X209786000Y-38361900D01*
X209662300Y-33483800D02*
X209936600Y-33209500D01*
X210113700Y-61253000D02*
X209786000Y-60925300D01*
%TO.N,/+SYSCLK*%
X237330000Y-58950000D02*
X237330000Y-62219200D01*
X239688300Y-64577500D02*
X239688300Y-74548300D01*
X233880000Y-55500000D02*
X237330000Y-58950000D01*
X237330000Y-62219200D02*
X239688300Y-64577500D01*
X239688300Y-74548300D02*
X241140000Y-76000000D01*
%TO.N,/IMIBus6*%
X229300000Y-49027300D02*
X229300000Y-49598800D01*
X234559700Y-50410300D02*
X235650000Y-49320000D01*
X223217600Y-44116200D02*
X224388900Y-44116200D01*
X230111500Y-50410300D02*
X234559700Y-50410300D01*
X229300000Y-49598800D02*
X230111500Y-50410300D01*
X208703500Y-27883500D02*
X208703500Y-29602100D01*
X208703500Y-29602100D02*
X223217600Y-44116200D01*
X224388900Y-44116200D02*
X229300000Y-49027300D01*
X207490000Y-26670000D02*
X208703500Y-27883500D01*
%TO.N,/IMIBus3*%
X202410000Y-29210000D02*
X202410000Y-37374300D01*
X205714000Y-42831700D02*
X206141600Y-42831700D01*
X206141600Y-42831700D02*
X208482700Y-45172800D01*
X205083300Y-42201000D02*
X205714000Y-42831700D01*
X252551600Y-60449900D02*
X252551600Y-51966600D01*
X205083300Y-53199900D02*
X205414600Y-53531200D01*
X208482700Y-45172800D02*
X208482700Y-45451600D01*
X253047300Y-69711800D02*
X252768900Y-69433400D01*
X252768900Y-68081600D02*
X253047300Y-67803200D01*
X253676600Y-83252900D02*
X253352500Y-82928800D01*
X253254100Y-73605500D02*
X253047300Y-73398700D01*
X208482700Y-45451600D02*
X205083300Y-48851000D01*
X202410000Y-37374300D02*
X205083300Y-40047600D01*
X253047300Y-67803200D02*
X253047300Y-60945600D01*
X205083300Y-48851000D02*
X205083300Y-53199900D01*
X252768900Y-69433400D02*
X252768900Y-68081600D01*
X205083300Y-40047600D02*
X205083300Y-42201000D01*
X253352500Y-79629400D02*
X253254100Y-79531000D01*
X253254100Y-79531000D02*
X253254100Y-73605500D01*
X252551600Y-51966600D02*
X249955000Y-49370000D01*
X253047300Y-73398700D02*
X253047300Y-69711800D01*
X253352500Y-82928800D02*
X253352500Y-79629400D01*
X253047300Y-60945600D02*
X252551600Y-60449900D01*
%TO.N,/+RWDAT*%
X227249400Y-60478400D02*
X227249400Y-74809400D01*
X227249400Y-74809400D02*
X228440000Y-76000000D01*
X227249400Y-60478400D02*
X224758000Y-57987000D01*
X224758000Y-57987000D02*
X224758000Y-55500000D01*
X223720000Y-55500000D02*
X224758000Y-55500000D01*
X227249400Y-60478400D02*
X229773400Y-60478400D01*
X229773400Y-60478400D02*
X230980000Y-61685000D01*
%TO.N,/IMIBus7*%
X227532600Y-49320000D02*
X228030000Y-49320000D01*
X207490000Y-29210000D02*
X211865300Y-33585300D01*
X214027600Y-35815000D02*
X227532600Y-49320000D01*
X211865300Y-35815000D02*
X214027600Y-35815000D01*
X211865300Y-33585300D02*
X211865300Y-35815000D01*
X258130500Y-58447300D02*
X258130500Y-82644800D01*
X258130500Y-82644800D02*
X257292000Y-83483300D01*
X211865300Y-35815000D02*
X210240600Y-37439700D01*
X257440600Y-57757400D02*
X258130500Y-58447300D01*
X210240600Y-37439700D02*
X210240600Y-37999400D01*
%TO.N,/IMIBus4*%
X243360000Y-50375500D02*
X243360000Y-41928300D01*
X243360000Y-41928300D02*
X241947000Y-40515300D01*
X168970000Y-38094700D02*
X169568200Y-37496500D01*
X171603900Y-33730400D02*
X172499000Y-33730400D01*
X249484300Y-66461800D02*
X244112700Y-61090200D01*
X248996800Y-92413500D02*
X248643600Y-92060300D01*
X168970000Y-48050000D02*
X168970000Y-38094700D01*
X244112700Y-61090200D02*
X244112700Y-51128200D01*
X217770300Y-25173900D02*
X218920000Y-26323600D01*
X169568200Y-37496500D02*
X169568200Y-35766100D01*
X244112700Y-51128200D02*
X243360000Y-50375500D01*
X167700000Y-49320000D02*
X168970000Y-48050000D01*
X218920000Y-26323600D02*
X218920000Y-30050000D01*
X206446100Y-25173900D02*
X217770300Y-25173900D01*
X249484400Y-66461800D02*
X249484300Y-66461800D01*
X204950000Y-26670000D02*
X206446100Y-25173900D01*
X248643600Y-84101000D02*
X249484400Y-83260200D01*
X248643600Y-92060300D02*
X248643600Y-84101000D01*
X169568200Y-35766100D02*
X171603900Y-33730400D01*
X218920000Y-30050000D02*
X230570000Y-41700000D01*
X172499000Y-33730400D02*
X173221800Y-33007600D01*
X249484400Y-83260200D02*
X249484400Y-66461800D01*
X241947000Y-40515300D02*
X241947000Y-40243800D01*
%TO.N,/-SYSCLK*%
X238960000Y-55500000D02*
X236920000Y-53460000D01*
X236920000Y-53460000D02*
X236920000Y-38320000D01*
X236920000Y-38320000D02*
X227810000Y-29210000D01*
%TO.N,/IMIBus0*%
X226634800Y-26299600D02*
X224754100Y-24418900D01*
X256238500Y-88346300D02*
X256238500Y-87685700D01*
X256238500Y-87685700D02*
X255959300Y-87406500D01*
X202121100Y-24418900D02*
X199870000Y-26670000D01*
X256742900Y-80627300D02*
X256324500Y-80208900D01*
X176087400Y-26670000D02*
X161348500Y-41408900D01*
X256363500Y-81484500D02*
X256742900Y-81105100D01*
X161348500Y-45511500D02*
X157540000Y-49320000D01*
X256324500Y-80208900D02*
X256324400Y-80208900D01*
X199870000Y-26670000D02*
X176087400Y-26670000D01*
X256032900Y-69433500D02*
X256032900Y-67637500D01*
X255866500Y-71469600D02*
X255866500Y-69599900D01*
X255873600Y-67478200D02*
X255873600Y-56160400D01*
X252495000Y-41750000D02*
X241298400Y-30553400D01*
X256324400Y-80208900D02*
X256324400Y-71927500D01*
X228099300Y-27835200D02*
X227334600Y-27835200D01*
X255959300Y-87406500D02*
X255959300Y-85621600D01*
X229223300Y-28959200D02*
X228099300Y-27835200D01*
X241298400Y-30553400D02*
X230084300Y-30553400D01*
X261325000Y-41421300D02*
X260160800Y-40257100D01*
X255864600Y-88726400D02*
X255864600Y-88720200D01*
X229223300Y-29692400D02*
X229223300Y-28959200D01*
X256742900Y-81105100D02*
X256742900Y-80627300D01*
X227334600Y-27835200D02*
X226634800Y-27135400D01*
X255959300Y-85621600D02*
X256219100Y-85361800D01*
X256219100Y-84510400D02*
X256363500Y-84366000D01*
X256363500Y-84366000D02*
X256363500Y-81484500D01*
X256032900Y-67637500D02*
X255873600Y-67478200D01*
X256219100Y-85361800D02*
X256219100Y-84510400D01*
X255873600Y-56160400D02*
X261325000Y-50709000D01*
X161348500Y-41408900D02*
X161348500Y-45511500D01*
X255866500Y-69599900D02*
X256032900Y-69433500D01*
X253987900Y-40257100D02*
X252495000Y-41750000D01*
X255864600Y-88720200D02*
X256238500Y-88346300D01*
X230084300Y-30553400D02*
X229223300Y-29692400D01*
X261325000Y-50709000D02*
X261325000Y-41421300D01*
X260160800Y-40257100D02*
X253987900Y-40257100D01*
X226634800Y-27135400D02*
X226634800Y-26299600D01*
X224754100Y-24418900D02*
X202121100Y-24418900D01*
X256324400Y-71927500D02*
X255866500Y-71469600D01*
%TO.N,Net-(U9-I2a)*%
X208700000Y-41755000D02*
X206320500Y-39375500D01*
X206320500Y-26246100D02*
X207030100Y-25536500D01*
X207581500Y-47850300D02*
X209434300Y-45997500D01*
X206320500Y-39375500D02*
X206320500Y-26246100D01*
X209434300Y-42489300D02*
X208700000Y-41755000D01*
X208960200Y-61732200D02*
X208960200Y-59602200D01*
X208960200Y-59602200D02*
X207581500Y-58223500D01*
X209538500Y-71877700D02*
X208961700Y-71300900D01*
X207581500Y-58223500D02*
X207581500Y-47850300D01*
X208961700Y-71300900D02*
X208961700Y-61733700D01*
X207030100Y-25536500D02*
X208896500Y-25536500D01*
X209434300Y-45997500D02*
X209434300Y-42489300D01*
X208961700Y-61733700D02*
X208960200Y-61732200D01*
X208896500Y-25536500D02*
X210030000Y-26670000D01*
%TO.N,/RP1-14*%
X160080000Y-41700000D02*
X156420700Y-45359300D01*
X242957800Y-45380500D02*
X242957800Y-53464300D01*
X216523300Y-28083300D02*
X216523300Y-36915700D01*
X245539600Y-72406700D02*
X248550400Y-75417500D01*
X248550400Y-75417500D02*
X248550400Y-76305700D01*
X240997200Y-43419900D02*
X242957800Y-45380500D01*
X243760900Y-54267400D02*
X243760900Y-61669000D01*
X156420700Y-45359300D02*
X156420700Y-49821500D01*
X242957800Y-53464300D02*
X243760900Y-54267400D01*
X163453800Y-56854600D02*
X163453800Y-67989300D01*
X245539600Y-63447700D02*
X245539600Y-72406700D01*
X216523300Y-36915700D02*
X223027500Y-43419900D01*
X243760900Y-61669000D02*
X245539600Y-63447700D01*
X223027500Y-43419900D02*
X223348600Y-43419900D01*
X215110000Y-26670000D02*
X216523300Y-28083300D01*
X156420700Y-49821500D02*
X163453800Y-56854600D01*
%TO.N,/IMIBus1*%
X254605000Y-83637500D02*
X254460600Y-83781900D01*
X254460600Y-84545900D02*
X253257400Y-85749100D01*
X253750700Y-60654200D02*
X253750700Y-68094600D01*
X253958300Y-51833900D02*
X253958300Y-56986700D01*
X253958300Y-45011300D02*
X253958300Y-51056100D01*
X253958300Y-51056100D02*
X253808200Y-51206200D01*
X255393300Y-43576300D02*
X253958300Y-45011300D01*
X174463600Y-30373300D02*
X164056700Y-40780200D01*
X253750700Y-69420400D02*
X253750700Y-73107300D01*
X204731600Y-53663800D02*
X204731600Y-45996300D01*
X204731600Y-45996300D02*
X202406700Y-43671400D01*
X253750700Y-68094600D02*
X253472300Y-68373000D01*
X253915400Y-57029600D02*
X253915300Y-57029600D01*
X163705000Y-45695000D02*
X160080000Y-49320000D01*
X254058900Y-79342011D02*
X254058900Y-80058900D01*
X174463600Y-30064800D02*
X174463600Y-30373300D01*
X199870000Y-29210000D02*
X199342400Y-28682400D01*
X254460600Y-83781900D02*
X254460600Y-84545900D01*
X254058900Y-80556300D02*
X254055900Y-80559300D01*
X253958300Y-56986700D02*
X253915400Y-57029600D01*
X253808200Y-51683800D02*
X253958300Y-51833900D01*
X254460600Y-82315800D02*
X254460600Y-82723900D01*
X208608500Y-59921000D02*
X206835600Y-58148100D01*
X202406700Y-41408400D02*
X199870000Y-38871700D01*
X163705000Y-43280200D02*
X163705000Y-45695000D01*
X254605000Y-82868300D02*
X254605000Y-83637500D01*
X254055900Y-81911100D02*
X254460600Y-82315800D01*
X208610000Y-61879400D02*
X208608500Y-61877900D01*
X253472300Y-69142000D02*
X253750700Y-69420400D01*
X206835600Y-58148100D02*
X206835600Y-55767800D01*
X202406700Y-43671400D02*
X202406700Y-41408400D01*
X199342400Y-28682400D02*
X175846000Y-28682400D01*
X260115000Y-41750000D02*
X258288700Y-43576300D01*
X199870000Y-38871700D02*
X199870000Y-29210000D01*
X164056700Y-42928500D02*
X163705000Y-43280200D01*
X253257400Y-85749100D02*
X253257400Y-86003500D01*
X254058900Y-80058900D02*
X254058900Y-80556300D01*
X253472300Y-68373000D02*
X253472300Y-69142000D01*
X253257400Y-86003500D02*
X253257300Y-86003500D01*
X254460600Y-82723900D02*
X254605000Y-82868300D01*
X164056700Y-40780200D02*
X164056700Y-42928500D01*
X253750700Y-73107300D02*
X253957500Y-73314100D01*
X206835600Y-55767800D02*
X204731600Y-53663800D01*
X253915300Y-57029600D02*
X253255000Y-57689900D01*
X254055900Y-80559300D02*
X254055900Y-81911100D01*
X208610000Y-78185000D02*
X208610000Y-61879400D01*
X208841600Y-78416600D02*
X208610000Y-78185000D01*
X253255000Y-57689900D02*
X253255000Y-60158500D01*
X175846000Y-28682400D02*
X174463600Y-30064800D01*
X253957500Y-79240611D02*
X254058900Y-79342011D01*
X253255000Y-60158500D02*
X253750700Y-60654200D01*
X208608500Y-61877900D02*
X208608500Y-59921000D01*
X253808200Y-51206200D02*
X253808200Y-51683800D01*
X253957500Y-73314100D02*
X253957500Y-79240611D01*
X258288700Y-43576300D02*
X255393300Y-43576300D01*
%TO.N,/IMIBus2*%
X158981100Y-49763800D02*
X159630000Y-50412700D01*
X257575000Y-47504800D02*
X257575000Y-49370000D01*
X159630000Y-50412700D02*
X161527300Y-50412700D01*
X255170200Y-60216600D02*
X255050600Y-60336200D01*
X257575000Y-49370000D02*
X257575000Y-49567900D01*
X255137700Y-76685700D02*
X255139200Y-76687200D01*
X176014300Y-28016700D02*
X163705000Y-40326000D01*
X201140000Y-28016700D02*
X201140000Y-37752200D01*
X163705000Y-42598000D02*
X161700200Y-44602800D01*
X255660100Y-82431200D02*
X255660100Y-84074600D01*
X201140000Y-28016700D02*
X176014300Y-28016700D01*
X255137700Y-73506600D02*
X255137700Y-76685700D01*
X204731600Y-42346700D02*
X207384400Y-44999500D01*
X257170200Y-47100000D02*
X257575000Y-47504800D01*
X201140000Y-27940000D02*
X201140000Y-28016700D01*
X255515700Y-81878700D02*
X255515700Y-82286800D01*
X255050600Y-69421000D02*
X255050600Y-71648600D01*
X255050500Y-58625700D02*
X255050500Y-59327700D01*
X255164000Y-86217700D02*
X253909300Y-87472400D01*
X255050600Y-60336200D02*
X255050600Y-68094000D01*
X255329500Y-68372900D02*
X255329500Y-69142100D01*
X161700200Y-46070100D02*
X158981100Y-48789200D01*
X255163100Y-51979800D02*
X255163100Y-58513100D01*
X255515700Y-82286800D02*
X255660100Y-82431200D01*
X255200000Y-47100000D02*
X257170200Y-47100000D01*
X255139200Y-76687200D02*
X255139200Y-81502200D01*
X255329500Y-69142100D02*
X255050600Y-69421000D01*
X255139200Y-81502200D02*
X255515700Y-81878700D01*
X204731600Y-41343800D02*
X204731600Y-42346700D01*
X201140000Y-37752200D02*
X204731600Y-41343800D01*
X255050500Y-59327700D02*
X255170200Y-59447400D01*
X202410000Y-26670000D02*
X201140000Y-27940000D01*
X255660100Y-84074600D02*
X255515700Y-84219000D01*
X255515700Y-84219000D02*
X255515700Y-85070400D01*
X161700200Y-44602800D02*
X161700200Y-46070100D01*
X158981100Y-48789200D02*
X158981100Y-49763800D01*
X255515700Y-85070400D02*
X255164000Y-85422100D01*
X255050600Y-71648600D02*
X255050700Y-71648600D01*
X255607600Y-73036700D02*
X255137700Y-73506600D01*
X255163100Y-58513100D02*
X255050500Y-58625700D01*
X255607600Y-72205500D02*
X255607600Y-73036700D01*
X253909300Y-87472400D02*
X253909300Y-88994600D01*
X257575000Y-49567900D02*
X255163100Y-51979800D01*
X255170200Y-59447400D02*
X255170200Y-60216600D01*
X163705000Y-40326000D02*
X163705000Y-42598000D01*
X255050600Y-68094000D02*
X255329500Y-68372900D01*
X255050700Y-71648600D02*
X255607600Y-72205500D01*
X255164000Y-85422100D02*
X255164000Y-86217700D01*
X161527300Y-50412700D02*
X162620000Y-49320000D01*
%TO.N,/-RWDAT*%
X232172300Y-77192300D02*
X230980000Y-76000000D01*
X234677500Y-62842500D02*
X234677500Y-76534700D01*
X234677500Y-76534700D02*
X234019900Y-77192300D01*
X234019900Y-77192300D02*
X232172300Y-77192300D01*
X233520000Y-60220000D02*
X233520000Y-61685000D01*
X228800000Y-55500000D02*
X233520000Y-60220000D01*
X233520000Y-61685000D02*
X234677500Y-62842500D01*
%TO.N,Net-(J1-Pad15)*%
X207586900Y-41150500D02*
X207586900Y-43244700D01*
X209082600Y-45752900D02*
X206160000Y-48675500D01*
X209082600Y-44740400D02*
X209082600Y-45752900D01*
X207586900Y-43244700D02*
X209082600Y-44740400D01*
X206160000Y-48675500D02*
X206160000Y-49375000D01*
X222730000Y-26670000D02*
X220830600Y-24770600D01*
X205251400Y-24770600D02*
X203806200Y-26215800D01*
X203806200Y-37369800D02*
X207586900Y-41150500D01*
X220830600Y-24770600D02*
X205251400Y-24770600D01*
X203806200Y-26215800D02*
X203806200Y-37369800D01*
%TO.N,/TXA*%
X41470000Y-25185000D02*
X42546800Y-24108200D01*
X42546800Y-24108200D02*
X61388200Y-24108200D01*
X61388200Y-24108200D02*
X64280000Y-27000000D01*
%TO.N,Net-(U101-~{Y3})*%
X147830000Y-31247800D02*
X154415800Y-24662000D01*
X147830000Y-41761700D02*
X147830000Y-31247800D01*
%TO.N,Net-(U102A-~{Q})*%
X170196300Y-35962300D02*
X175944600Y-41710600D01*
X175944600Y-71501900D02*
X191180400Y-86737700D01*
X175944600Y-41710600D02*
X175944600Y-71501900D01*
%TO.N,Net-(U102B-~{Q})*%
X178125200Y-40292300D02*
X178125200Y-30042400D01*
X177748300Y-40669200D02*
X178125200Y-40292300D01*
X189224000Y-78723500D02*
X189162000Y-78723500D01*
X175991700Y-29034100D02*
X174815300Y-30210500D01*
X174815300Y-30210500D02*
X174815300Y-30847300D01*
X174815300Y-30847300D02*
X174553700Y-31108900D01*
X177748300Y-67309800D02*
X177748300Y-40669200D01*
X189775100Y-78172400D02*
X189224000Y-78723500D01*
X178125200Y-30042400D02*
X177116900Y-29034100D01*
X177116900Y-29034100D02*
X175991700Y-29034100D01*
X189162000Y-78723500D02*
X177748300Y-67309800D01*
%TO.N,Net-(U103A-~{Q})*%
X207898300Y-114643900D02*
X197008800Y-103754400D01*
X153867900Y-47329900D02*
X158810100Y-42387700D01*
X153867900Y-50471900D02*
X153867900Y-47329900D01*
X166007600Y-73130900D02*
X154026700Y-61150000D01*
X197008800Y-103754400D02*
X196783300Y-103754400D01*
X158810100Y-37706800D02*
X169424700Y-27092200D01*
X210469000Y-140410400D02*
X207898300Y-137839700D01*
X154026700Y-61150000D02*
X154026700Y-50630700D01*
X154026700Y-50630700D02*
X153867900Y-50471900D01*
X158810100Y-42387700D02*
X158810100Y-37706800D01*
X207898300Y-137839700D02*
X207898300Y-114643900D01*
X166159800Y-73130900D02*
X166007600Y-73130900D01*
X196783300Y-103754400D02*
X166159800Y-73130900D01*
%TO.N,Net-(U103B-~{Q})*%
X204326900Y-104529900D02*
X204326900Y-94883100D01*
X204326800Y-94883100D02*
X177044900Y-67601200D01*
X177044900Y-40202600D02*
X177396600Y-39850900D01*
X204326900Y-94883100D02*
X204326800Y-94883100D01*
X176451700Y-30097200D02*
X175744500Y-30097200D01*
X177044900Y-67601200D02*
X177044900Y-40202600D01*
X177396600Y-31577100D02*
X177397000Y-31576700D01*
X177397000Y-31576700D02*
X177397000Y-31042500D01*
X177396600Y-39850900D02*
X177396600Y-31577100D01*
X206495500Y-104867800D02*
X204664800Y-104867800D01*
X177397000Y-31042500D02*
X176451700Y-30097200D01*
X210765700Y-109138000D02*
X206495500Y-104867800D01*
X204664800Y-104867800D02*
X204326900Y-104529900D01*
%TO.N,Net-(R9-Pad1)*%
X177748700Y-30538800D02*
X176832000Y-29622100D01*
X177748700Y-39996200D02*
X177748700Y-30538800D01*
X201622600Y-91681400D02*
X189047400Y-79106200D01*
X189047300Y-79106200D02*
X177396600Y-67455500D01*
X177396600Y-40348300D02*
X177748700Y-39996200D01*
X189047400Y-79106200D02*
X189047300Y-79106200D01*
X177396600Y-67455500D02*
X177396600Y-40348300D01*
X205799900Y-91681400D02*
X201622600Y-91681400D01*
%TO.N,Net-(U2-~{OE})*%
X217532300Y-119038300D02*
X227040000Y-128546000D01*
X169933000Y-75188500D02*
X213782800Y-119038300D01*
X227040000Y-128546000D02*
X227040000Y-131932000D01*
X176684700Y-71412000D02*
X176684700Y-31473400D01*
X159125900Y-77835400D02*
X161843200Y-75118100D01*
X213782800Y-119038300D02*
X217532300Y-119038300D01*
X176684700Y-31473400D02*
X176820300Y-31337800D01*
X159125900Y-98984100D02*
X159125900Y-77835400D01*
X157980000Y-100130000D02*
X159125900Y-98984100D01*
%TO.N,Net-(U13-I0a)*%
X227024700Y-108620300D02*
X227024700Y-96757200D01*
X227024700Y-96757200D02*
X226427900Y-96160400D01*
X225840000Y-109805000D02*
X227024700Y-108620300D01*
%TO.N,Net-(U13-I1a)*%
X230920000Y-109805000D02*
X232278000Y-108447000D01*
X232278000Y-97337500D02*
X232367400Y-97248100D01*
X232278000Y-108447000D02*
X232278000Y-97337500D01*
%TO.N,Net-(U13-I3a)*%
X241080000Y-109805000D02*
X239713400Y-108438400D01*
X239713400Y-108438400D02*
X239713400Y-99980400D01*
X239713400Y-99980400D02*
X237852200Y-98119200D01*
%TO.N,Net-(U13-I1b)*%
X237270000Y-94627300D02*
X235193400Y-92550700D01*
X237270000Y-108535000D02*
X237270000Y-94627300D01*
X238540000Y-109805000D02*
X237270000Y-108535000D01*
%TO.N,Net-(U13-I2b)*%
X234650600Y-108614400D02*
X233460000Y-109805000D01*
X233790000Y-88751800D02*
X234601400Y-89563200D01*
X234601400Y-98165900D02*
X234650600Y-98215100D01*
X234601400Y-89563200D02*
X234601400Y-98165900D01*
X234650600Y-98215100D02*
X234650600Y-108614400D01*
%TO.N,Net-(U13-I3b)*%
X229763300Y-108421700D02*
X229763300Y-94329100D01*
X228380000Y-109805000D02*
X229763300Y-108421700D01*
X229763300Y-94329100D02*
X232576900Y-91515500D01*
%TO.N,/-SEL*%
X208755400Y-79213800D02*
X208258300Y-78716700D01*
X205086300Y-55083700D02*
X202511800Y-52509200D01*
X205086300Y-58357800D02*
X205086300Y-55083700D01*
X202511800Y-52509200D02*
X202511800Y-45695400D01*
X209392500Y-79213800D02*
X208755400Y-79213800D01*
X208258300Y-78716700D02*
X208258300Y-62025100D01*
X191881400Y-35065000D02*
X191881400Y-33966200D01*
X191881400Y-33966200D02*
X187182100Y-29266900D01*
X202511800Y-45695400D02*
X191881400Y-35065000D01*
X207658100Y-61424900D02*
X207658100Y-60929600D01*
X207658100Y-60929600D02*
X205086300Y-58357800D01*
X208258300Y-62025100D02*
X207658100Y-61424900D01*
%TO.N,Net-(U28A-~{Q})*%
X145750000Y-55526700D02*
X145982800Y-55526700D01*
X143304400Y-57970800D02*
X143304400Y-58444100D01*
X190909500Y-100240100D02*
X190909500Y-108776500D01*
X168632600Y-78389800D02*
X169059200Y-78389800D01*
X145750000Y-55438300D02*
X145750000Y-55525200D01*
X145750000Y-55525200D02*
X145750000Y-55526700D01*
X145982800Y-55526700D02*
X168088700Y-77632600D01*
X169059200Y-78389800D02*
X190909500Y-100240100D01*
X145750000Y-54250000D02*
X145750000Y-55438300D01*
X145750000Y-55525200D02*
X143304400Y-57970800D01*
X168088700Y-77632600D02*
X168088700Y-77845900D01*
X168088700Y-77845900D02*
X168632600Y-78389800D01*
%TO.N,Net-(U24-Cp)*%
X164622600Y-67251700D02*
X213901300Y-116530400D01*
X164622600Y-60644600D02*
X164622600Y-67251700D01*
%TO.N,Net-(R51-Pad1)*%
X134628000Y-57251200D02*
X134628000Y-57122300D01*
X134080900Y-56575200D02*
X134080900Y-55043600D01*
X143727100Y-66350300D02*
X134628000Y-57251200D01*
X150858700Y-80345700D02*
X150858700Y-73392900D01*
X150858700Y-73392900D02*
X143816100Y-66350300D01*
X134628000Y-57122300D02*
X134080900Y-56575200D01*
X143816100Y-66350300D02*
X143727100Y-66350300D01*
X134080900Y-55043600D02*
X131780200Y-52742900D01*
X131780200Y-52742900D02*
X131780200Y-52409900D01*
%TO.N,/DataBus3*%
X252343900Y-64747400D02*
X252343900Y-67511800D01*
X251707700Y-92664600D02*
X251707700Y-83849500D01*
X252343900Y-70003200D02*
X252343900Y-76453200D01*
X252343900Y-76453200D02*
X252325600Y-76453200D01*
X96834000Y-65024300D02*
X96834000Y-66382200D01*
X164142500Y-133727500D02*
X164142500Y-118868700D01*
X252065500Y-69724800D02*
X252343900Y-70003200D01*
X100662900Y-85093300D02*
X101692800Y-85093300D01*
X97018200Y-81448600D02*
X100662900Y-85093300D01*
X96240900Y-66975300D02*
X96240900Y-69873200D01*
X164163700Y-94413700D02*
X163000000Y-93250000D01*
X252343900Y-67511800D02*
X252065500Y-67790200D01*
X96241700Y-60866200D02*
X96241700Y-57431400D01*
X161959400Y-116685600D02*
X161959400Y-106875400D01*
X96240900Y-69873200D02*
X97018200Y-70650500D01*
X251938200Y-92895100D02*
X251707700Y-92664600D01*
X252447300Y-76556600D02*
X252343900Y-76453200D01*
X96834000Y-61458500D02*
X96241700Y-60866200D01*
X251707700Y-83849500D02*
X251594600Y-83736400D01*
X163000000Y-93250000D02*
X163000000Y-86957600D01*
X251353800Y-95317100D02*
X251938200Y-94732700D01*
X96834000Y-66382200D02*
X96240900Y-66975300D01*
X252065500Y-67790200D02*
X252065500Y-69724800D01*
X251594600Y-82595900D02*
X252447300Y-81743200D01*
X161959400Y-106875400D02*
X164163700Y-104671100D01*
X251938200Y-94732700D02*
X251938200Y-92895100D01*
X164142500Y-118868700D02*
X161959400Y-116685600D01*
X163000000Y-86957600D02*
X160477000Y-84434600D01*
X101692800Y-85093300D02*
X102014300Y-84771800D01*
X253208000Y-116133000D02*
X252560200Y-116780800D01*
X97272400Y-56400600D02*
X97353700Y-56400600D01*
X96834000Y-65024300D02*
X96834000Y-61458500D01*
X252560200Y-116780800D02*
X252560200Y-121909000D01*
X251594600Y-83736400D02*
X251594600Y-82595900D01*
X97272400Y-56400700D02*
X97272400Y-56400600D01*
X251206400Y-108867400D02*
X253208000Y-110869000D01*
X160520000Y-137350000D02*
X164142500Y-133727500D01*
X251498200Y-58053500D02*
X251498200Y-63901700D01*
X164163700Y-104671100D02*
X164163700Y-94413700D01*
X252447300Y-81743200D02*
X252447300Y-76556600D01*
X253208000Y-110869000D02*
X253208000Y-116133000D01*
X102014300Y-84771800D02*
X102014300Y-80915400D01*
X96241700Y-57431400D02*
X97272400Y-56400700D01*
X251498200Y-63901700D02*
X252343900Y-64747400D01*
X97018200Y-70650500D02*
X97018200Y-81448600D01*
X102014300Y-80915400D02*
X98450200Y-77351300D01*
%TO.N,Net-(U1-~{WAIT})*%
X214958500Y-121065900D02*
X214958500Y-120551700D01*
X216920500Y-123027900D02*
X214958500Y-121065900D01*
%TO.N,/~{IORQ}*%
X138178300Y-44280800D02*
X147026700Y-53129200D01*
X147026700Y-53129200D02*
X147026700Y-55829600D01*
X192129800Y-101312100D02*
X192129800Y-136220200D01*
X136048600Y-44564600D02*
X136332400Y-44280800D01*
X191832300Y-100635200D02*
X191832300Y-101014600D01*
X169235200Y-78038100D02*
X191832300Y-100635200D01*
X168440400Y-77700200D02*
X168778300Y-78038100D01*
X147026700Y-55829600D02*
X168440400Y-77243300D01*
X192129800Y-136220200D02*
X191000000Y-137350000D01*
X168440400Y-77243300D02*
X168440400Y-77700200D01*
X191832300Y-101014600D02*
X192129800Y-101312100D01*
X168778300Y-78038100D02*
X169235200Y-78038100D01*
X136332400Y-44280800D02*
X138178300Y-44280800D01*
%TO.N,/AddressBus8*%
X148923400Y-106315600D02*
X148923400Y-121006600D01*
X150360000Y-100130000D02*
X150338400Y-100151600D01*
X148923400Y-121006600D02*
X147820000Y-122110000D01*
X150338400Y-104900600D02*
X148923400Y-106315600D01*
X150338400Y-100151600D02*
X150338400Y-104900600D01*
%TO.N,/DataBus5*%
X100933000Y-56599300D02*
X100933000Y-56510400D01*
X256011800Y-81877400D02*
X255567200Y-81432800D01*
X255681200Y-68227200D02*
X255514800Y-68060800D01*
X255085100Y-88997900D02*
X254711100Y-88997900D01*
X255085100Y-87685800D02*
X255364300Y-87406600D01*
X255959300Y-72059800D02*
X255514800Y-71615300D01*
X97824400Y-68830300D02*
X97824400Y-59707900D01*
X255514800Y-66473200D02*
X255521900Y-66466100D01*
X255714400Y-76446900D02*
X255777700Y-76510200D01*
X97594700Y-69060000D02*
X97824400Y-68830300D01*
X255085100Y-88997900D02*
X255085100Y-87685800D01*
X255521900Y-66466100D02*
X255521900Y-55056400D01*
X97594700Y-69291100D02*
X97951500Y-69647900D01*
X253434900Y-99996100D02*
X253786600Y-99644400D01*
X255364300Y-87406600D02*
X255364300Y-86514800D01*
X253911400Y-117768700D02*
X253911400Y-109302100D01*
X253786600Y-96854900D02*
X255341800Y-95299700D01*
X255867400Y-84364700D02*
X256011800Y-84220300D01*
X255514800Y-68060800D02*
X255514800Y-66473200D01*
X255714400Y-76446900D02*
X255959300Y-76202000D01*
X253308300Y-102887300D02*
X253434900Y-102760700D01*
X255514800Y-69454200D02*
X255681200Y-69287800D01*
X255515700Y-85567800D02*
X255867400Y-85216100D01*
X97594700Y-69060000D02*
X97594700Y-69291100D01*
X253528100Y-118152000D02*
X253911400Y-117768700D01*
X253434900Y-102760700D02*
X253434900Y-99996100D01*
X255341800Y-95299700D02*
X255341800Y-89254600D01*
X255521900Y-55056400D02*
X255765300Y-54813000D01*
X255777700Y-76510200D02*
X255777700Y-80329700D01*
X256011800Y-84220300D02*
X256011800Y-81877400D01*
X97824400Y-59707900D02*
X100933000Y-56599300D01*
X255515700Y-86363400D02*
X255515700Y-85567800D01*
X253308300Y-108699000D02*
X253308300Y-102887300D01*
X255867400Y-85216100D02*
X255867400Y-84364700D01*
X255341800Y-89254600D02*
X255085100Y-88997900D01*
X253786600Y-99644400D02*
X253786600Y-96854900D01*
X97951500Y-69647900D02*
X97951500Y-76338500D01*
X255364300Y-86514800D02*
X255515700Y-86363400D01*
X255959300Y-76202000D02*
X255959300Y-72059800D01*
X255567200Y-80540200D02*
X255567200Y-81432800D01*
X255777700Y-80329700D02*
X255567200Y-80540200D01*
X255514800Y-71615300D02*
X255514800Y-69454200D01*
X255681200Y-69287800D02*
X255681200Y-68227200D01*
X253911400Y-109302100D02*
X253308300Y-108699000D01*
%TO.N,/DataBus4*%
X166969200Y-81660800D02*
X168699400Y-81660800D01*
X168699400Y-81660800D02*
X169543300Y-82504700D01*
X170174000Y-84166700D02*
X170283100Y-84166700D01*
X173275500Y-100074500D02*
X173220000Y-100130000D01*
X159365100Y-115920000D02*
X161642200Y-118197100D01*
X173275500Y-87159100D02*
X173275500Y-100074500D01*
X159718000Y-103269200D02*
X159365100Y-103622100D01*
X169543300Y-82504700D02*
X169543300Y-83536000D01*
X169543300Y-83536000D02*
X170174000Y-84166700D01*
X159365100Y-103622100D02*
X159365100Y-115920000D01*
X170283100Y-84166700D02*
X173275500Y-87159100D01*
X161642200Y-118197100D02*
X161642200Y-133687800D01*
X165540000Y-83090000D02*
X166969200Y-81660800D01*
X161642200Y-133687800D02*
X157980000Y-137350000D01*
%TO.N,/AddressBus3*%
X157980000Y-115370000D02*
X158066000Y-115370000D01*
X147760000Y-93747300D02*
X151651800Y-97639100D01*
X151651800Y-97639100D02*
X151651800Y-109041800D01*
X151651800Y-109041800D02*
X157980000Y-115370000D01*
X147760000Y-93250000D02*
X147760000Y-93747300D01*
X158066000Y-115370000D02*
X160520000Y-117824000D01*
X160520000Y-117824000D02*
X160520000Y-122110000D01*
%TO.N,/DataBus0*%
X168823000Y-105540200D02*
X168823000Y-102335800D01*
X251470800Y-126090000D02*
X249605800Y-127955000D01*
X168140000Y-115370000D02*
X168823000Y-114687000D01*
X172088300Y-133678300D02*
X172088300Y-119318300D01*
X250481100Y-105697100D02*
X250481100Y-111553900D01*
X252631200Y-113704000D02*
X251470800Y-114864400D01*
X251470800Y-114864400D02*
X251470800Y-126090000D01*
X175760000Y-137350000D02*
X172088300Y-133678300D01*
X160852600Y-83090000D02*
X160460000Y-83090000D01*
X166809900Y-100322700D02*
X166809900Y-89047300D01*
X168823000Y-102335800D02*
X166809900Y-100322700D01*
X168823000Y-114687000D02*
X168823000Y-105540200D01*
X250481100Y-111553900D02*
X252631200Y-113704000D01*
X166809900Y-89047300D02*
X160852600Y-83090000D01*
X172088300Y-119318300D02*
X168140000Y-115370000D01*
%TO.N,/AddressBus13*%
X146270100Y-134753700D02*
X146270100Y-135800100D01*
X147820000Y-100130000D02*
X147820000Y-102883900D01*
X146270100Y-135800100D02*
X147820000Y-137350000D01*
X147820000Y-102883900D02*
X146733900Y-103970000D01*
X146733900Y-134289900D02*
X146270100Y-134753700D01*
X146733900Y-103970000D02*
X146733900Y-134289900D01*
%TO.N,/AddressBus1*%
X165600000Y-117910000D02*
X165600000Y-122110000D01*
X163060000Y-115370000D02*
X165600000Y-117910000D01*
%TO.N,Net-(U1-~{MREQ})*%
X134432600Y-54897900D02*
X133826900Y-54292200D01*
X143898000Y-65998600D02*
X135103600Y-57204200D01*
X161944900Y-101245100D02*
X157561900Y-101245100D01*
X133826900Y-52684000D02*
X131776200Y-50633300D01*
X177523200Y-105328100D02*
X177523200Y-109235500D01*
X177523200Y-109235500D02*
X182156400Y-113868700D01*
X163060000Y-100130000D02*
X161944900Y-101245100D01*
X182156400Y-122566500D02*
X188460000Y-128870100D01*
X182156400Y-113868700D02*
X182156400Y-122566500D01*
X143983000Y-65998600D02*
X143898000Y-65998600D01*
X135103600Y-57204200D02*
X135103600Y-56605200D01*
X151457300Y-73472900D02*
X143983000Y-65998600D01*
X156663400Y-100346600D02*
X156663400Y-98640200D01*
X133826900Y-54292200D02*
X133826900Y-52684000D01*
X151457300Y-80613200D02*
X151457300Y-73472900D01*
X156663400Y-98640200D02*
X151392400Y-93369200D01*
X188460000Y-128870100D02*
X188460000Y-137350000D01*
X151392400Y-93369200D02*
X151392400Y-80678100D01*
X135103600Y-56605200D02*
X134432600Y-55934200D01*
X151392400Y-80678100D02*
X151457300Y-80613200D01*
X157561900Y-101245100D02*
X156663400Y-100346600D01*
X134432600Y-55934200D02*
X134432600Y-54897900D01*
%TO.N,/AddressBus0*%
X141556100Y-84213900D02*
X142680000Y-83090000D01*
X165600000Y-110461200D02*
X162631600Y-107492800D01*
X165600000Y-115867300D02*
X165600000Y-115370000D01*
X168140000Y-122110000D02*
X168140000Y-118407300D01*
X165600000Y-115370000D02*
X165600000Y-110461200D01*
X142734800Y-107094500D02*
X141556100Y-105915800D01*
X168140000Y-118407300D02*
X165600000Y-115867300D01*
X141556100Y-105915800D02*
X141556100Y-84213900D01*
%TO.N,/~{R}*%
X172118400Y-98856900D02*
X172118400Y-100561700D01*
X178397100Y-109507100D02*
X191000000Y-122110000D01*
X171574200Y-98312700D02*
X172118400Y-98856900D01*
X172118400Y-100561700D02*
X175269200Y-103712500D01*
X176732900Y-103712500D02*
X178397100Y-105376700D01*
X178397100Y-105376700D02*
X178397100Y-109507100D01*
X175269200Y-103712500D02*
X176732900Y-103712500D01*
%TO.N,Net-(U1-~{CLK})*%
X223230000Y-137476500D02*
X214380000Y-128626500D01*
X214380000Y-128626500D02*
X214380000Y-126072100D01*
%TO.N,/DataBus2*%
X166686100Y-82961200D02*
X167634800Y-82012500D01*
X253318900Y-109871400D02*
X253559700Y-110112200D01*
X251261700Y-93233800D02*
X251356000Y-93139500D01*
X251242900Y-83882100D02*
X251242900Y-82129400D01*
X172174200Y-95951700D02*
X172563300Y-95951700D01*
X172122200Y-138792200D02*
X178393200Y-138792200D01*
X172174200Y-86664300D02*
X172174200Y-95951700D01*
X253148400Y-119797500D02*
X253148400Y-127643200D01*
X171766700Y-113916700D02*
X173220000Y-115370000D01*
X163000000Y-83090000D02*
X164115600Y-84205600D01*
X170680000Y-137350000D02*
X172122200Y-138792200D01*
X252411800Y-108964300D02*
X252411800Y-106192900D01*
X179386600Y-121536600D02*
X173220000Y-115370000D01*
X253148400Y-127643200D02*
X252990000Y-127801600D01*
X252933500Y-119582600D02*
X253148400Y-119797500D01*
X172174200Y-95951700D02*
X170995900Y-97130000D01*
X168525300Y-82012500D02*
X169191600Y-82678800D01*
X178393200Y-138792200D02*
X179386600Y-137798800D01*
X251242900Y-82129400D02*
X251862800Y-81509500D01*
X253559700Y-116340700D02*
X252933500Y-116966900D01*
X166686100Y-83512900D02*
X166686100Y-82961200D01*
X251356000Y-93139500D02*
X251356000Y-83995200D01*
X250736600Y-94338400D02*
X251261700Y-93813300D01*
X252411800Y-106192900D02*
X250736600Y-104517700D01*
X170995900Y-98551400D02*
X171766700Y-99322200D01*
X253559700Y-110112200D02*
X253559700Y-116340700D01*
X170995900Y-97130000D02*
X170995900Y-98551400D01*
X172563300Y-95951700D02*
X172685600Y-96074000D01*
X167634800Y-82012500D02*
X168525300Y-82012500D01*
X164115600Y-84205600D02*
X165993400Y-84205600D01*
X252933500Y-116966900D02*
X252933500Y-119582600D01*
X179386600Y-137798800D02*
X179386600Y-121536600D01*
X251356000Y-83995200D02*
X251242900Y-83882100D01*
X253318900Y-109871400D02*
X252411800Y-108964300D01*
X250736600Y-104517700D02*
X250736600Y-94338400D01*
X171766700Y-99322200D02*
X171766700Y-113916700D01*
X169191600Y-83681700D02*
X172174200Y-86664300D01*
X165993400Y-84205600D02*
X166686100Y-83512900D01*
X251261700Y-93813300D02*
X251261700Y-93233800D01*
X169191600Y-82678800D02*
X169191600Y-83681700D01*
%TO.N,/AddressBus12*%
X145280000Y-115370000D02*
X146372500Y-116462500D01*
X146372500Y-122835000D02*
X145280000Y-123927500D01*
X146372500Y-116462500D02*
X146372500Y-122835000D01*
X145280000Y-123927500D02*
X145280000Y-137350000D01*
%TO.N,/AddressBus6*%
X125737100Y-109227100D02*
X125737100Y-115827900D01*
X121890000Y-105380000D02*
X125737100Y-109227100D01*
X152900000Y-117910000D02*
X152900000Y-122110000D01*
X150360000Y-115370000D02*
X152900000Y-117910000D01*
X125737100Y-115827900D02*
X122120000Y-119445000D01*
%TO.N,/~{M1}*%
X154493800Y-65743200D02*
X168195500Y-79444900D01*
X151141500Y-65743200D02*
X154493800Y-65743200D01*
X168508900Y-79444900D02*
X179448700Y-90384700D01*
X168195500Y-79444900D02*
X168508900Y-79444900D01*
X179448700Y-90384700D02*
X179448700Y-108880100D01*
%TO.N,/DataBus6*%
X176849500Y-137810700D02*
X176849500Y-136481600D01*
X257851000Y-89320700D02*
X257851000Y-85809900D01*
X168080000Y-84889400D02*
X168080000Y-83090000D01*
X176849500Y-136481600D02*
X174490100Y-134122200D01*
X172766400Y-138440500D02*
X176219700Y-138440500D01*
X168140000Y-100130000D02*
X169196700Y-99073300D01*
X255614900Y-103312000D02*
X256461900Y-102465000D01*
X166811000Y-136139000D02*
X170996900Y-136139000D01*
X169196700Y-99073300D02*
X169196700Y-86006100D01*
X255614900Y-115461700D02*
X255614900Y-103312000D01*
X169408500Y-115668000D02*
X169408500Y-101895800D01*
X174490100Y-120749600D02*
X169408500Y-115668000D01*
X165600000Y-137350000D02*
X166811000Y-136139000D01*
X257357100Y-101569800D02*
X257357100Y-89814600D01*
X171950000Y-137092100D02*
X171950000Y-137624100D01*
X255614900Y-125732000D02*
X255614900Y-121587100D01*
X255614900Y-115461700D02*
X254839900Y-115461700D01*
X257357100Y-89814600D02*
X257851000Y-89320700D01*
X255614900Y-121587100D02*
X255679900Y-121522100D01*
X256461900Y-102465000D02*
X257357100Y-101569800D01*
X169196700Y-86006100D02*
X168080000Y-84889400D01*
X168080000Y-84889400D02*
X165239800Y-84889400D01*
X174490100Y-134122200D02*
X174490100Y-120749600D01*
X168140000Y-100627300D02*
X168140000Y-100130000D01*
X255679900Y-121522100D02*
X255679900Y-115526700D01*
X170996900Y-136139000D02*
X171950000Y-137092100D01*
X169408500Y-101895800D02*
X168140000Y-100627300D01*
X171950000Y-137624100D02*
X172766400Y-138440500D01*
X176219700Y-138440500D02*
X176849500Y-137810700D01*
X255679900Y-115526700D02*
X255614900Y-115461700D01*
X258060000Y-132187500D02*
X258060000Y-128177100D01*
X258060000Y-128177100D02*
X255614900Y-125732000D01*
%TO.N,/AddressBus7*%
X147820000Y-104278900D02*
X147820000Y-115370000D01*
X146596400Y-103114800D02*
X146596400Y-99792000D01*
X146012100Y-103699100D02*
X146596400Y-103114800D01*
X141874900Y-107698700D02*
X142946200Y-107698700D01*
X147389100Y-98999300D02*
X148216700Y-98999300D01*
X142946200Y-107698700D02*
X146012100Y-104632800D01*
X146012100Y-104632800D02*
X146012100Y-103699100D01*
X148216700Y-98999300D02*
X148906500Y-99689100D01*
X146596400Y-99792000D02*
X147389100Y-98999300D01*
X131179300Y-46716500D02*
X131179300Y-55808400D01*
X148906500Y-103192400D02*
X147820000Y-104278900D01*
X136366600Y-102190400D02*
X141874900Y-107698700D01*
X148906500Y-99689100D02*
X148906500Y-103192400D01*
X133140800Y-44755000D02*
X131179300Y-46716500D01*
X131179300Y-55808400D02*
X136366600Y-60995700D01*
X136366600Y-60995700D02*
X136366600Y-102190400D01*
%TO.N,/AddressBus2*%
X149030000Y-94476000D02*
X149030000Y-92980400D01*
X148193100Y-92143500D02*
X146326500Y-92143500D01*
X160294700Y-103030300D02*
X159956900Y-102692500D01*
X159956900Y-102692500D02*
X156388700Y-102692500D01*
X146326500Y-92143500D02*
X145220000Y-93250000D01*
X160520000Y-115867300D02*
X163060000Y-118407300D01*
X163060000Y-118407300D02*
X163060000Y-122110000D01*
X160520000Y-115370000D02*
X160294700Y-115144700D01*
X156388700Y-102692500D02*
X154170100Y-100473900D01*
X154170100Y-100473900D02*
X154170100Y-99616100D01*
X149030000Y-92980400D02*
X148193100Y-92143500D01*
X160294700Y-115144700D02*
X160294700Y-103030300D01*
X160520000Y-115370000D02*
X160520000Y-115867300D01*
X154170100Y-99616100D02*
X149030000Y-94476000D01*
%TO.N,/DataBus1*%
X94359500Y-73147500D02*
X94359500Y-77007600D01*
X94990500Y-64793900D02*
X94834900Y-64638300D01*
X187243000Y-100583600D02*
X187243000Y-98289300D01*
X250539500Y-83953800D02*
X250539500Y-76450000D01*
X250022800Y-102451700D02*
X250022800Y-94057400D01*
X250022800Y-90655500D02*
X249850800Y-90483500D01*
X250022800Y-94057400D02*
X250277400Y-93802800D01*
X250539500Y-76450000D02*
X250764600Y-76450000D01*
X248927000Y-114784300D02*
X248927000Y-103547500D01*
X94993600Y-67445800D02*
X94643400Y-67796000D01*
X177030000Y-121720000D02*
X177030000Y-136080000D01*
X187243000Y-98289300D02*
X183477600Y-94523900D01*
X177030000Y-136080000D02*
X178300000Y-137350000D01*
X94643400Y-67796000D02*
X94643400Y-72863600D01*
X250539500Y-58142500D02*
X250460000Y-58063000D01*
X249850800Y-84642500D02*
X250539500Y-83953800D01*
X250277400Y-93802800D02*
X250277400Y-90910100D01*
X248927000Y-103547500D02*
X250022800Y-102451700D01*
X250539500Y-76450000D02*
X250539500Y-58142500D01*
X94834900Y-64638300D02*
X94834900Y-56730700D01*
X94990500Y-64793900D02*
X94993600Y-64797000D01*
X94359500Y-77007600D02*
X94710500Y-77358600D01*
X249850800Y-90483500D02*
X249850800Y-84642500D01*
X170680000Y-115370000D02*
X177030000Y-121720000D01*
X94834900Y-56730700D02*
X95586600Y-55979000D01*
X94643400Y-72863600D02*
X94359500Y-73147500D01*
X250277400Y-90910100D02*
X250022800Y-90655500D01*
X94993600Y-64797000D02*
X94993600Y-67445800D01*
%TO.N,/AddressBus4*%
X157980000Y-117910000D02*
X157980000Y-122110000D01*
X118222500Y-109980800D02*
X118222500Y-118262500D01*
X155440000Y-115370000D02*
X157980000Y-117910000D01*
X91220000Y-50243500D02*
X91220000Y-81558700D01*
X91220000Y-81558700D02*
X99496300Y-89835000D01*
X118222500Y-118262500D02*
X117040000Y-119445000D01*
X99496300Y-89835000D02*
X99496300Y-91254600D01*
X99496300Y-91254600D02*
X118222500Y-109980800D01*
%TO.N,/AddressBus5*%
X98693500Y-88037400D02*
X99190900Y-88037400D01*
X103553600Y-92400100D02*
X110052700Y-92400100D01*
X92620500Y-81964400D02*
X98693500Y-88037400D01*
X152900000Y-115370000D02*
X155440000Y-117910000D01*
X92616200Y-51486700D02*
X92620500Y-51491000D01*
X110052700Y-92400100D02*
X112364900Y-94712300D01*
X112364900Y-98394900D02*
X119350000Y-105380000D01*
X155440000Y-117910000D02*
X155440000Y-122110000D01*
X99190900Y-88037400D02*
X103553600Y-92400100D01*
X92620500Y-51491000D02*
X92620500Y-81964400D01*
X112364900Y-94712300D02*
X112364900Y-98394900D01*
%TO.N,/AddressBus14*%
X148902300Y-138807700D02*
X150360000Y-137350000D01*
X142277800Y-138807700D02*
X148902300Y-138807700D01*
X141610900Y-116499100D02*
X141610900Y-138140800D01*
X141610900Y-138140800D02*
X142277800Y-138807700D01*
X142740000Y-115370000D02*
X141610900Y-116499100D01*
%TO.N,/AddressBus11*%
X148261900Y-138440600D02*
X149090000Y-137612500D01*
X149090000Y-137612500D02*
X149090000Y-135271800D01*
X159599900Y-101838100D02*
X157148100Y-101838100D01*
X159434600Y-124927200D02*
X159434600Y-117554400D01*
X143830600Y-138440600D02*
X148261900Y-138440600D01*
X142740000Y-137350000D02*
X143830600Y-138440600D01*
X149090000Y-135271800D02*
X159434600Y-124927200D01*
X160884000Y-113895100D02*
X160884000Y-103122200D01*
X160884000Y-103122200D02*
X159599900Y-101838100D01*
X157148100Y-101838100D02*
X155440000Y-100130000D01*
%TO.N,/DataBus7*%
X166870000Y-101400000D02*
X166870000Y-116516200D01*
X165600000Y-100130000D02*
X166870000Y-101400000D01*
X169452300Y-133582300D02*
X173220000Y-137350000D01*
X166870000Y-116516200D02*
X169452300Y-119098500D01*
X98814800Y-72726300D02*
X102935500Y-76847000D01*
X98198600Y-65991500D02*
X98198600Y-69397500D01*
X98198600Y-69397500D02*
X98814800Y-70013700D01*
X98865000Y-65325100D02*
X98198600Y-65991500D01*
X256451900Y-58047500D02*
X257533700Y-59129300D01*
X169452300Y-119098500D02*
X169452300Y-133582300D01*
X257028800Y-114239600D02*
X257968600Y-113299800D01*
X98814800Y-70013700D02*
X98814800Y-72726300D01*
X257968600Y-113299800D02*
X257968600Y-95239500D01*
X257533700Y-59129300D02*
X257533700Y-76656600D01*
%TO.N,/~{W}*%
X91999500Y-50771100D02*
X91999500Y-81492500D01*
X92268800Y-81761800D02*
X92268800Y-82110100D01*
X120850100Y-119714400D02*
X121657400Y-120521700D01*
X126123300Y-120521700D02*
X127200000Y-119445000D01*
X115118700Y-104941500D02*
X115118700Y-105628600D01*
X98547800Y-88389100D02*
X98566300Y-88389100D01*
X115118700Y-105628600D02*
X120850100Y-111360000D01*
X92268800Y-82110100D02*
X98547800Y-88389100D01*
X121657400Y-120521700D02*
X126123300Y-120521700D01*
X120850100Y-111360000D02*
X120850100Y-119714400D01*
X92520000Y-50250600D02*
X91999500Y-50771100D01*
X91999500Y-81492500D02*
X92268800Y-81761800D01*
X98566300Y-88389100D02*
X115118700Y-104941500D01*
%TO.N,Net-(U4-RXA)*%
X150375600Y-70691200D02*
X152654400Y-70691200D01*
X143212300Y-63794300D02*
X144253600Y-64835600D01*
X134883500Y-53519500D02*
X135487700Y-54123700D01*
X135487700Y-54123700D02*
X135487700Y-55043800D01*
X143212300Y-63413500D02*
X143212300Y-63794300D01*
X134883500Y-24599700D02*
X134883500Y-53519500D01*
X144253600Y-64835600D02*
X144520000Y-64835600D01*
X141953500Y-61401500D02*
X141953500Y-62154700D01*
X135487700Y-55043800D02*
X141301600Y-60857700D01*
X152654400Y-70691200D02*
X155380000Y-73416800D01*
X144520000Y-64835600D02*
X150375600Y-70691200D01*
X141953500Y-62154700D02*
X143212300Y-63413500D01*
X155380000Y-73416800D02*
X155380000Y-83090000D01*
X133658900Y-23375100D02*
X134883500Y-24599700D01*
X141409700Y-60857700D02*
X141953500Y-61401500D01*
X141301600Y-60857700D02*
X141409700Y-60857700D01*
%TO.N,Net-(U4-RST)*%
X116781700Y-74046800D02*
X116781700Y-68667200D01*
X117385300Y-68063600D02*
X117385300Y-65342800D01*
X116781700Y-68667200D02*
X117385300Y-68063600D01*
%TO.N,Net-(U4-TXB)*%
X135136000Y-55191900D02*
X135136000Y-54606500D01*
X141264000Y-61209400D02*
X141153500Y-61209400D01*
X134531400Y-27221100D02*
X131357500Y-24047200D01*
X141451100Y-62530500D02*
X141451100Y-62175700D01*
X154207400Y-89537400D02*
X154207400Y-72795000D01*
X141601800Y-61547200D02*
X141264000Y-61209400D01*
X157920000Y-93250000D02*
X154207400Y-89537400D01*
X154207400Y-72795000D02*
X152702500Y-71290100D01*
X150456000Y-71290100D02*
X144353200Y-65187300D01*
X141451100Y-62175700D02*
X141601800Y-62025000D01*
X141153500Y-61209400D02*
X135136000Y-55191900D01*
X134531400Y-54001900D02*
X134531400Y-27221100D01*
X135136000Y-54606500D02*
X134531400Y-54001900D01*
X144107900Y-65187300D02*
X141451100Y-62530500D01*
X141601800Y-62025000D02*
X141601800Y-61547200D01*
X144353200Y-65187300D02*
X144107900Y-65187300D01*
X152702500Y-71290100D02*
X150456000Y-71290100D01*
%TO.N,Net-(U4-RXB)*%
X155380000Y-93250000D02*
X151744100Y-89614100D01*
X151809000Y-80758900D02*
X151809000Y-73316900D01*
X135455300Y-57032100D02*
X135455300Y-56459500D01*
X143962200Y-65539000D02*
X135455300Y-57032100D01*
X134178600Y-54146500D02*
X134178600Y-27851100D01*
X151744100Y-89614100D02*
X151744100Y-80823800D01*
X144031100Y-65539000D02*
X143962200Y-65539000D01*
X134178600Y-27851100D02*
X132811200Y-26483700D01*
X151809000Y-73316900D02*
X144031100Y-65539000D01*
X151744100Y-80823800D02*
X151809000Y-80758900D01*
X134784300Y-55788500D02*
X134784300Y-54752200D01*
X134784300Y-54752200D02*
X134178600Y-54146500D01*
X135455300Y-56459500D02*
X134784300Y-55788500D01*
%TO.N,Net-(U4-TXA)*%
X144399300Y-64483900D02*
X145212400Y-64483900D01*
X152664400Y-70118600D02*
X157920000Y-75374200D01*
X135461700Y-53599100D02*
X135839400Y-53976800D01*
X141480000Y-60506000D02*
X141555400Y-60506000D01*
X135839400Y-53976800D02*
X135839400Y-54865400D01*
X141555400Y-60506000D02*
X142305200Y-61255800D01*
X157920000Y-75374200D02*
X157920000Y-83090000D01*
X135839400Y-54865400D02*
X141480000Y-60506000D01*
X135461700Y-29718300D02*
X135461700Y-53599100D01*
X145212400Y-64483900D02*
X150847100Y-70118600D01*
X142305200Y-61255800D02*
X142305200Y-62003600D01*
X142305200Y-62003600D02*
X143564000Y-63262400D01*
X150847100Y-70118600D02*
X152664400Y-70118600D01*
X143564000Y-63648600D02*
X144399300Y-64483900D01*
X143564000Y-63262400D02*
X143564000Y-63648600D01*
%TO.N,Net-(U6A-D)*%
X212756400Y-122640900D02*
X212756400Y-118895400D01*
X212756400Y-118895400D02*
X172260300Y-78399300D01*
%TO.N,Net-(U6B-Q)*%
X222602000Y-136021000D02*
X218190000Y-131609000D01*
X218190000Y-131609000D02*
X218190000Y-120532900D01*
%TO.N,/+FAULT*%
X204749200Y-91103000D02*
X205654600Y-91103000D01*
X210853500Y-85904100D02*
X210853500Y-58903500D01*
X205654600Y-91103000D02*
X210853500Y-85904100D01*
X204749200Y-91103100D02*
X204749200Y-91103000D01*
%TO.N,/~{W10h}*%
X256362200Y-98063600D02*
X254138300Y-100287500D01*
X256713900Y-89190100D02*
X256713900Y-89463000D01*
X256713900Y-89463000D02*
X256362200Y-89814700D01*
X256922500Y-85653200D02*
X256713900Y-85861800D01*
X256793000Y-89111000D02*
X256713900Y-89190100D01*
X254138300Y-100287500D02*
X254138300Y-103052100D01*
X256793000Y-88786600D02*
X256793000Y-89111000D01*
X254138300Y-103052100D02*
X254011700Y-103178700D01*
X256713900Y-87166300D02*
X256941900Y-87394300D01*
X256362200Y-89814700D02*
X256362200Y-98063600D01*
X256713900Y-85861800D02*
X256713900Y-87166300D01*
X254011700Y-103178700D02*
X254011700Y-107242600D01*
X256941900Y-87394300D02*
X256941900Y-88637700D01*
X260172900Y-81551400D02*
X256922500Y-84801800D01*
X256922500Y-84801800D02*
X256922500Y-85653200D01*
X260172900Y-57066900D02*
X260172900Y-81551400D01*
X254011700Y-107242600D02*
X254241800Y-107472700D01*
X256941900Y-88637700D02*
X256793000Y-88786600D01*
%TO.N,/SUA0*%
X183140100Y-43025100D02*
X183140100Y-49715300D01*
X183140100Y-49715300D02*
X188445300Y-55020500D01*
X181870000Y-41755000D02*
X183140100Y-43025100D01*
%TO.N,/+SEL*%
X192030000Y-41755000D02*
X189490000Y-44295000D01*
X189490000Y-44295000D02*
X186950000Y-44295000D01*
X236060000Y-76000000D02*
X236060000Y-83620000D01*
X130198500Y-48650900D02*
X128923200Y-49926200D01*
X184410000Y-41755000D02*
X183316700Y-40661700D01*
X128923200Y-90646700D02*
X130359000Y-92082500D01*
X208700000Y-49375000D02*
X209313400Y-49988400D01*
X238600000Y-73460000D02*
X236060000Y-76000000D01*
X186950000Y-44295000D02*
X186950000Y-49375000D01*
X183316700Y-40661700D02*
X181414600Y-40661700D01*
X180646400Y-41429900D02*
X180646400Y-48058600D01*
X179330000Y-49375000D02*
X178629000Y-50076000D01*
X186950000Y-44295000D02*
X184410000Y-41755000D01*
X128923200Y-49926200D02*
X128923200Y-90646700D01*
X180646400Y-48058600D02*
X179330000Y-49375000D01*
X181414600Y-40661700D02*
X180646400Y-41429900D01*
X209313400Y-61269900D02*
X209536900Y-61493400D01*
X238600000Y-69305000D02*
X238600000Y-73460000D01*
X178629000Y-50076000D02*
X178629000Y-67370600D01*
X209313400Y-49988400D02*
X209313400Y-61269900D01*
%TO.N,/~{R10h}*%
X248781000Y-82968800D02*
X243904100Y-87845700D01*
X248781000Y-81510700D02*
X248781000Y-82968800D01*
X247627700Y-75470000D02*
X247627700Y-80357400D01*
X247627700Y-80357400D02*
X248781000Y-81510700D01*
X243904100Y-87845700D02*
X243904100Y-90232200D01*
X247627600Y-75470000D02*
X247627700Y-75470000D01*
%TO.N,/+WGATE*%
X242655600Y-76807600D02*
X237506400Y-81956800D01*
X242959300Y-98867900D02*
X242959300Y-116119000D01*
X241140000Y-61685000D02*
X242655600Y-63200600D01*
X206948400Y-69491400D02*
X195170000Y-81269800D01*
X242655600Y-63200600D02*
X242655600Y-76807600D01*
X242959300Y-116119000D02*
X239526400Y-119551900D01*
X241849500Y-97758300D02*
X241939100Y-97758300D01*
X242931300Y-98840000D02*
X242931400Y-98840000D01*
X242931400Y-98840000D02*
X242959300Y-98867900D01*
X242387400Y-98296100D02*
X242931300Y-98840000D01*
X241305600Y-90854000D02*
X241305600Y-97214400D01*
X237506400Y-81956800D02*
X237506400Y-87054800D01*
X241939100Y-97758300D02*
X242387400Y-98206600D01*
X241305600Y-97214400D02*
X241849500Y-97758300D01*
X242387400Y-98206600D02*
X242387400Y-98296100D01*
X237506400Y-87054800D02*
X241305600Y-90854000D01*
X206948400Y-62636100D02*
X206948400Y-69491400D01*
%TO.N,/+RGATE*%
X257316200Y-81415200D02*
X256715200Y-82016200D01*
X256441300Y-88640900D02*
X256441300Y-88965300D01*
X253786600Y-102906400D02*
X253660000Y-103033000D01*
X256362200Y-87312000D02*
X256590200Y-87540000D01*
X206202300Y-62037900D02*
X207220300Y-62037900D01*
X257316200Y-79538900D02*
X257316200Y-81415200D01*
X256715200Y-82016200D02*
X256715200Y-84511700D01*
X199521200Y-85022600D02*
X199521200Y-86556600D01*
X256441300Y-88965300D02*
X256362200Y-89044400D01*
X256362200Y-89044400D02*
X256362200Y-89142100D01*
X230980000Y-83620000D02*
X229842700Y-82482700D01*
X254263100Y-127348600D02*
X248904000Y-132707700D01*
X255964500Y-89539800D02*
X255964500Y-97643100D01*
X256362200Y-85716100D02*
X256362200Y-87312000D01*
X225900000Y-85510400D02*
X224965800Y-86444600D01*
X256570800Y-84656100D02*
X256570800Y-85507500D01*
X207554900Y-62372500D02*
X207554900Y-76988900D01*
X254263100Y-108570500D02*
X254263100Y-127348600D01*
X225900000Y-83620000D02*
X225900000Y-85510400D01*
X248904000Y-132707700D02*
X241952300Y-132707700D01*
X207220300Y-62037900D02*
X207554900Y-62372500D01*
X256590200Y-88492000D02*
X256441300Y-88640900D01*
X256362200Y-89142100D02*
X255964500Y-89539800D01*
X253660000Y-103033000D02*
X253660000Y-107967400D01*
X205600200Y-62640000D02*
X206202300Y-62037900D01*
X227037300Y-82482700D02*
X225900000Y-83620000D01*
X253786600Y-100141800D02*
X253786600Y-102906400D01*
X256570800Y-85507500D02*
X256362200Y-85716100D01*
X254138300Y-99790100D02*
X253786600Y-100141800D01*
X253660000Y-107967400D02*
X254263100Y-108570500D01*
X256590200Y-87540000D02*
X256590200Y-88492000D01*
X255964500Y-97643100D02*
X254138300Y-99469300D01*
X256715200Y-84511700D02*
X256570800Y-84656100D01*
X207554900Y-76988900D02*
X199521200Y-85022600D01*
X229842700Y-82482700D02*
X227037300Y-82482700D01*
X254138300Y-99469300D02*
X254138300Y-99790100D01*
%TO.N,Net-(U11-O6)*%
X251946300Y-83590700D02*
X252059400Y-83703800D01*
X252059400Y-92518900D02*
X252289900Y-92749400D01*
X252417200Y-67935900D02*
X252417200Y-69579100D01*
X252902400Y-81826000D02*
X251946300Y-82782100D01*
X252902400Y-73751200D02*
X252902400Y-81826000D01*
X252695600Y-73544400D02*
X252902400Y-73751200D01*
X252059400Y-83703800D02*
X252059400Y-92518900D01*
X252199900Y-54154900D02*
X252199900Y-60595600D01*
X252417200Y-69579100D02*
X252695600Y-69857500D01*
X251946300Y-82782100D02*
X251946300Y-83590700D01*
X252199900Y-60595600D02*
X252695600Y-61091300D01*
X252695600Y-67657500D02*
X252417200Y-67935900D01*
X247415000Y-49370000D02*
X252199900Y-54154900D01*
X252695600Y-69857500D02*
X252695600Y-73544400D01*
X252695600Y-61091300D02*
X252695600Y-67657500D01*
X252289900Y-92749400D02*
X252289900Y-97506600D01*
X252289900Y-97506600D02*
X251313300Y-98483200D01*
%TO.N,Net-(U11-O0)*%
X249574000Y-94008700D02*
X249925700Y-93657000D01*
X249574000Y-102084700D02*
X249574000Y-94008700D01*
X247415000Y-47541100D02*
X247415000Y-41750000D01*
X250187800Y-83629100D02*
X250187800Y-65983300D01*
X249925700Y-91374200D02*
X249434900Y-90883400D01*
X249434900Y-84382000D02*
X250187800Y-83629100D01*
X249208100Y-102450600D02*
X249574000Y-102084700D01*
X249925700Y-93657000D02*
X249925700Y-91374200D01*
X246284400Y-48671700D02*
X247415000Y-47541100D01*
X249434900Y-90883400D02*
X249434900Y-84382000D01*
X250187800Y-65983300D02*
X246284400Y-62079900D01*
X246284400Y-62079900D02*
X246284400Y-48671700D01*
%TO.N,Net-(U11-O4)*%
X230003400Y-53833400D02*
X233804600Y-53833400D01*
X241143000Y-60110000D02*
X243315800Y-62282800D01*
X225490000Y-49320000D02*
X230003400Y-53833400D01*
X243315800Y-62282800D02*
X243315800Y-97911600D01*
X233804600Y-53833400D02*
X235103600Y-55132400D01*
X235103600Y-55912500D02*
X239301100Y-60110000D01*
X235103600Y-55132400D02*
X235103600Y-55912500D01*
X239301100Y-60110000D02*
X241143000Y-60110000D01*
%TO.N,Net-(U11-O1)*%
X254759300Y-81000000D02*
X254760900Y-80998400D01*
X255255900Y-72351200D02*
X254918100Y-72013400D01*
X254698800Y-58480000D02*
X254811400Y-58367400D01*
X254977800Y-68996400D02*
X254977800Y-68518600D01*
X252731500Y-105697100D02*
X252731500Y-102966700D01*
X254811400Y-58367400D02*
X254811400Y-51834100D01*
X254811400Y-51834100D02*
X254961600Y-51683900D01*
X254818500Y-60070900D02*
X254818500Y-59593100D01*
X253434900Y-92402200D02*
X253332500Y-92299800D01*
X254760900Y-80998400D02*
X254760900Y-78904100D01*
X255308400Y-83928900D02*
X255308400Y-82576900D01*
X254777200Y-78887800D02*
X254777200Y-73307700D01*
X254777200Y-73307700D02*
X255255900Y-72829000D01*
X254698900Y-60190500D02*
X254818500Y-60070900D01*
X254818500Y-59593100D02*
X254698800Y-59473400D01*
X253332400Y-87304300D02*
X254358700Y-86278000D01*
X254961600Y-49443400D02*
X255035000Y-49370000D01*
X254918100Y-72013400D02*
X254808400Y-72013400D01*
X253332500Y-87362800D02*
X253332400Y-87362700D01*
X253083200Y-102615000D02*
X253083200Y-99850400D01*
X254698900Y-68239700D02*
X254698900Y-60190500D01*
X254977800Y-68518600D02*
X254698900Y-68239700D01*
X254759300Y-81619700D02*
X254759300Y-81000000D01*
X253434900Y-99498700D02*
X253434900Y-92402200D01*
X255164000Y-84073300D02*
X255308400Y-83928900D01*
X254698800Y-59473400D02*
X254698800Y-58480000D01*
X255164000Y-84924700D02*
X255164000Y-84073300D01*
X254482500Y-86278000D02*
X254812300Y-85948200D01*
X253083200Y-99850400D02*
X253434900Y-99498700D01*
X254812300Y-85948200D02*
X254812300Y-85276400D01*
X254808400Y-72013400D02*
X254698900Y-71903900D01*
X254760900Y-78904100D02*
X254777200Y-78887800D01*
X255255900Y-72829000D02*
X255255900Y-72351200D01*
X253332400Y-87362700D02*
X253332400Y-87304300D01*
X255164000Y-82432500D02*
X255164000Y-82024400D01*
X252731500Y-102966700D02*
X253083200Y-102615000D01*
X254961600Y-51683900D02*
X254961600Y-49443400D01*
X254698900Y-69275300D02*
X254977800Y-68996400D01*
X254812300Y-85276400D02*
X255164000Y-84924700D01*
X254358700Y-86278000D02*
X254482500Y-86278000D01*
X255164000Y-82024400D02*
X254759300Y-81619700D01*
X254698900Y-71903900D02*
X254698900Y-69275300D01*
X255308400Y-82576900D02*
X255164000Y-82432500D01*
X253332500Y-92299800D02*
X253332500Y-87362800D01*
%TO.N,Net-(U11-O5)*%
X249836100Y-66221500D02*
X249836100Y-83405900D01*
X249574000Y-92174900D02*
X249574000Y-93334400D01*
X249574000Y-93334400D02*
X248993200Y-93915200D01*
X249836100Y-83405900D02*
X248995300Y-84246700D01*
X243715200Y-41468000D02*
X243715200Y-50058300D01*
X245932700Y-62318100D02*
X249836100Y-66221500D01*
X248993200Y-93915200D02*
X248993200Y-99632700D01*
X243715200Y-50058300D02*
X245932700Y-52275800D01*
X243416700Y-41169500D02*
X243715200Y-41468000D01*
X248995300Y-91596200D02*
X249574000Y-92174900D01*
X245932700Y-52275800D02*
X245932700Y-62318100D01*
X248995300Y-84246700D02*
X248995300Y-91596200D01*
%TO.N,Net-(U11-O2)*%
X257293600Y-87248600D02*
X257065600Y-87020600D01*
X257065600Y-87020600D02*
X257065600Y-86007500D01*
X262315100Y-80139500D02*
X262315100Y-39238000D01*
X257065600Y-89608700D02*
X257065600Y-89335800D01*
X256713900Y-99079300D02*
X256713900Y-89960400D01*
X256713900Y-89960400D02*
X257065600Y-89608700D01*
X257274200Y-85180400D02*
X262315100Y-80139500D01*
X257274200Y-85798900D02*
X257274200Y-85180400D01*
X257293600Y-89107800D02*
X257293600Y-87248600D01*
X254588600Y-105698300D02*
X254588600Y-101204600D01*
X254588600Y-101204600D02*
X256713900Y-99079300D01*
X257065600Y-86007500D02*
X257274200Y-85798900D01*
X257065600Y-89335800D02*
X257293600Y-89107800D01*
%TO.N,Net-(U11-O7)*%
X253605800Y-79385300D02*
X253706000Y-79485500D01*
X255035000Y-41750000D02*
X253605300Y-43179700D01*
X253120600Y-69287700D02*
X253399000Y-69566100D01*
X254108900Y-83636200D02*
X254108900Y-84236200D01*
X253456500Y-51829500D02*
X253605300Y-51978300D01*
X253399000Y-60799900D02*
X253399000Y-67948900D01*
X253605300Y-51978300D02*
X253605300Y-56842200D01*
X252903300Y-60304200D02*
X253399000Y-60799900D01*
X254108900Y-82869600D02*
X254253300Y-83014000D01*
X254253300Y-83491800D02*
X254108900Y-83636200D01*
X253399000Y-67948900D02*
X253120600Y-68227300D01*
X254108900Y-84236200D02*
X252411100Y-85934000D01*
X253706000Y-79485500D02*
X253706000Y-80411800D01*
X253456500Y-51060500D02*
X253456500Y-51829500D01*
X253120600Y-68227300D02*
X253120600Y-69287700D01*
X252903300Y-57544200D02*
X252903300Y-60304200D01*
X253605800Y-73459800D02*
X253605800Y-79385300D01*
X254108900Y-82461500D02*
X254108900Y-82869600D01*
X253399000Y-69566100D02*
X253399000Y-73253000D01*
X252411100Y-92373200D02*
X252641600Y-92603700D01*
X252411100Y-85934000D02*
X252411100Y-92373200D01*
X253605300Y-50911700D02*
X253456500Y-51060500D01*
X253704200Y-80413600D02*
X253704200Y-82056800D01*
X252641600Y-92603700D02*
X252641600Y-98037100D01*
X253704200Y-82056800D02*
X254108900Y-82461500D01*
X253706000Y-80411800D02*
X253704200Y-80413600D01*
X253605300Y-43179700D02*
X253605300Y-50911700D01*
X254253300Y-83014000D02*
X254253300Y-83491800D01*
X252641600Y-98037100D02*
X251331500Y-99347200D01*
X253399000Y-73253000D02*
X253605800Y-73459800D01*
X253605300Y-56842200D02*
X252903300Y-57544200D01*
%TO.N,Net-(U11-O3)*%
X254384900Y-57181100D02*
X254184700Y-57381300D01*
X254309200Y-73168400D02*
X254309200Y-78917300D01*
X254407600Y-80705000D02*
X254407600Y-81765400D01*
X254102400Y-69274700D02*
X254102400Y-72961600D01*
X254409900Y-80702700D02*
X254409900Y-79018000D01*
X254956700Y-82722600D02*
X254956700Y-83783200D01*
X253824000Y-68996300D02*
X254102400Y-69274700D01*
X254407600Y-80705000D02*
X254409900Y-80702700D01*
X253606700Y-60012800D02*
X254102400Y-60508500D01*
X254102400Y-68240300D02*
X253824000Y-68518700D01*
X254102400Y-60508500D02*
X254102400Y-68240300D01*
X254460600Y-85130700D02*
X254460600Y-85678700D01*
X254812300Y-84779000D02*
X254460600Y-85130700D01*
X254812300Y-83927600D02*
X254812300Y-84779000D01*
X252498500Y-99937700D02*
X252498500Y-101795800D01*
X253824000Y-68518700D02*
X253824000Y-68996300D01*
X252980800Y-87508500D02*
X252980800Y-92445500D01*
X254061000Y-57381300D02*
X253606700Y-57835600D01*
X253083200Y-92547900D02*
X253083200Y-99353000D01*
X254384900Y-51445000D02*
X254384900Y-57181100D01*
X253083200Y-99353000D02*
X252498500Y-99937700D01*
X254184700Y-57381300D02*
X254061000Y-57381300D01*
X252980800Y-92445500D02*
X253083200Y-92547900D01*
X252893200Y-87420900D02*
X252980800Y-87508500D01*
X254409900Y-79018000D02*
X254309200Y-78917300D01*
X252893200Y-87246100D02*
X252893200Y-87420900D01*
X254407600Y-81765400D02*
X254812300Y-82170100D01*
X253606700Y-57835600D02*
X253606700Y-60012800D01*
X254460600Y-85678700D02*
X252893200Y-87246100D01*
X254812300Y-82578200D02*
X254956700Y-82722600D01*
X254102400Y-72961600D02*
X254309200Y-73168400D01*
X254956700Y-83783200D02*
X254812300Y-83927600D01*
X254812300Y-82170100D02*
X254812300Y-82578200D01*
%TO.N,/~{R70h}*%
X132050000Y-105380000D02*
X132050000Y-99282800D01*
X133380200Y-97952600D02*
X133380200Y-95745400D01*
X134604200Y-94521400D02*
X134604200Y-85324800D01*
X132050000Y-99282800D02*
X133380200Y-97952600D01*
X133380200Y-95745400D02*
X134604200Y-94521400D01*
X134604200Y-85324800D02*
X133719300Y-84439900D01*
%TO.N,/~{START SEEK}*%
X206285400Y-137475600D02*
X201970200Y-133160400D01*
X201970200Y-133160400D02*
X201970200Y-109995200D01*
%TO.N,Net-(U14-E3)*%
X128656900Y-118361900D02*
X128656900Y-110822900D01*
X130787300Y-60762300D02*
X130787300Y-44440700D01*
X129510000Y-109969800D02*
X129510000Y-105380000D01*
X130600900Y-104289100D02*
X130600900Y-94191000D01*
X129510000Y-105380000D02*
X130600900Y-104289100D01*
X130941200Y-60916200D02*
X130787300Y-60762300D01*
X128656900Y-110822900D02*
X129510000Y-109969800D01*
X130941200Y-93850700D02*
X130941200Y-60916200D01*
X130600900Y-94191000D02*
X130941200Y-93850700D01*
X130787300Y-44440700D02*
X133595800Y-41632200D01*
X129740000Y-119445000D02*
X128656900Y-118361900D01*
%TO.N,/~{IO}*%
X126088800Y-118016200D02*
X126088800Y-107038800D01*
X141427900Y-67638200D02*
X143550300Y-67638200D01*
X124660000Y-119445000D02*
X126088800Y-118016200D01*
X136950000Y-72116100D02*
X136950000Y-101955000D01*
X131942400Y-54456200D02*
X132497500Y-54456200D01*
X141427900Y-67638200D02*
X136950000Y-72116100D01*
X134276300Y-57274300D02*
X134276300Y-57486000D01*
X141427900Y-64637600D02*
X141427900Y-67638200D01*
X126088800Y-107038800D02*
X124430000Y-105380000D01*
X133377500Y-56375500D02*
X134276300Y-57274300D01*
X132497500Y-54456200D02*
X133377500Y-55336200D01*
X133377500Y-55336200D02*
X133377500Y-56375500D01*
X143550300Y-67638200D02*
X143909800Y-67278700D01*
X134276300Y-57486000D02*
X141427900Y-64637600D01*
%TO.N,Net-(U15-~{Y1})*%
X93152100Y-45306200D02*
X93213900Y-45368000D01*
X103858900Y-87654700D02*
X105654900Y-89450700D01*
X92972200Y-55739700D02*
X92972200Y-81818700D01*
X93213900Y-45368000D02*
X93213900Y-55498000D01*
X92972200Y-81818700D02*
X98808200Y-87654700D01*
X93213900Y-55498000D02*
X92972200Y-55739700D01*
X98808200Y-87654700D02*
X103858900Y-87654700D01*
%TO.N,Net-(U15-~{Y4})*%
X136880000Y-54771400D02*
X137635300Y-55526700D01*
X163862200Y-75750000D02*
X163862200Y-76197500D01*
X155886300Y-67774100D02*
X163862200Y-75750000D01*
X143463500Y-60935100D02*
X150302500Y-67774100D01*
X143352400Y-60687600D02*
X143463500Y-60798700D01*
X150302500Y-67774100D02*
X155886300Y-67774100D01*
X142812400Y-60687600D02*
X143352400Y-60687600D01*
X143463500Y-60798700D02*
X143463500Y-60935100D01*
X137651500Y-55526700D02*
X142812400Y-60687600D01*
X136880000Y-53271200D02*
X136880000Y-54771400D01*
X137635300Y-55526700D02*
X137651500Y-55526700D01*
%TO.N,Net-(U15-~{Y0})*%
X136191100Y-53512600D02*
X136062500Y-53384000D01*
X142584600Y-61037800D02*
X136191100Y-54644300D01*
X162990800Y-76166700D02*
X162990800Y-75411200D01*
X155736400Y-68156800D02*
X150187800Y-68156800D01*
X150187800Y-68156800D02*
X143070400Y-61039400D01*
X143070400Y-61039400D02*
X143070400Y-61039300D01*
X143070400Y-61039300D02*
X142666700Y-61039300D01*
X136191100Y-54644300D02*
X136191100Y-53512600D01*
X162990800Y-75411200D02*
X155736400Y-68156800D01*
X142666700Y-61039300D02*
X142665200Y-61037800D01*
X142665200Y-61037800D02*
X142584600Y-61037800D01*
%TO.N,Net-(U16-O7)*%
X133422700Y-94846900D02*
X133422700Y-88732500D01*
X132280000Y-119445000D02*
X130967100Y-118132100D01*
X130967100Y-97302500D02*
X133422700Y-94846900D01*
X130967100Y-118132100D02*
X130967100Y-97302500D01*
%TO.N,/~{W20h}*%
X120620000Y-103872900D02*
X120620000Y-107785000D01*
X114332400Y-93084000D02*
X114332400Y-97585300D01*
X120620000Y-107785000D02*
X124660000Y-111825000D01*
X114332400Y-97585300D02*
X120620000Y-103872900D01*
%TO.N,/~{W30h}*%
X127200000Y-111825000D02*
X127200000Y-107722300D01*
X128379800Y-106542500D02*
X128379800Y-95553900D01*
X128379800Y-95553900D02*
X130348000Y-93585700D01*
X127200000Y-107722300D02*
X128379800Y-106542500D01*
%TO.N,Net-(U22A-Q)*%
X211240000Y-41755000D02*
X210146500Y-42848500D01*
X210466900Y-83602600D02*
X208677000Y-85392500D01*
X210466900Y-61108800D02*
X210466900Y-83602600D01*
X210146500Y-60788400D02*
X210466900Y-61108800D01*
X210146500Y-42848500D02*
X210146500Y-60788400D01*
%TO.N,Net-(U21B-Q)*%
X211439300Y-97755400D02*
X204903600Y-104291100D01*
X211439300Y-49574300D02*
X211439300Y-97755400D01*
X211240000Y-49375000D02*
X211439300Y-49574300D01*
%TO.N,Net-(U19-Pad1)*%
X246191400Y-41443100D02*
X246191400Y-48053600D01*
X248866400Y-40661400D02*
X246973100Y-40661400D01*
X222950000Y-49320000D02*
X218187900Y-54082100D01*
X249955000Y-41750000D02*
X248866400Y-40661400D01*
X234389500Y-42960500D02*
X230570000Y-42960500D01*
X246973100Y-40661400D02*
X246191400Y-41443100D01*
X246191400Y-48053600D02*
X244875000Y-49370000D01*
X218187900Y-54082100D02*
X218187900Y-70210000D01*
X253765000Y-42009000D02*
X251989500Y-43784500D01*
X256484500Y-40659500D02*
X254562700Y-40659500D01*
X254562700Y-40659500D02*
X253765000Y-41457200D01*
X251989500Y-43784500D02*
X249955000Y-41750000D01*
X229290500Y-42960500D02*
X228030000Y-41700000D01*
X252495000Y-44290000D02*
X252495000Y-49370000D01*
X257575000Y-41750000D02*
X256484500Y-40659500D01*
X235650000Y-41700000D02*
X234389500Y-42960500D01*
X230570000Y-49320000D02*
X230570000Y-42960500D01*
X230570000Y-42960500D02*
X229290500Y-42960500D01*
X251989500Y-43784500D02*
X252495000Y-44290000D01*
X253765000Y-41457200D02*
X253765000Y-42009000D01*
%TO.N,Net-(U23-~{PL})*%
X138750000Y-55668400D02*
X142204900Y-59123300D01*
X167737000Y-77991600D02*
X168486900Y-78741500D01*
X189334400Y-99162500D02*
X189334400Y-107982700D01*
X138750000Y-55526700D02*
X138750000Y-55668400D01*
X142204900Y-59123300D02*
X148975300Y-59123300D01*
X167737000Y-77885000D02*
X167737000Y-77991600D01*
X168486900Y-78741500D02*
X168913400Y-78741500D01*
X148975300Y-59123300D02*
X167737000Y-77885000D01*
X168913400Y-78741500D02*
X189334400Y-99162500D01*
X138750000Y-54250000D02*
X138750000Y-55526700D01*
%TO.N,Net-(U23-CP)*%
X151473300Y-54063800D02*
X151473300Y-59121200D01*
X237502500Y-130876100D02*
X250142700Y-118235900D01*
X138130000Y-41691600D02*
X139101100Y-41691600D01*
X151473300Y-59121200D02*
X165834700Y-73482600D01*
X139101100Y-41691600D02*
X151473300Y-54063800D01*
X192184000Y-99771000D02*
X192184000Y-100599500D01*
X165834700Y-73482600D02*
X165895600Y-73482600D01*
X192184000Y-100599500D02*
X200983700Y-109399200D01*
X165895600Y-73482600D02*
X192184000Y-99771000D01*
X237502500Y-137505200D02*
X237502500Y-130876100D01*
%TO.N,Net-(U23-Q7)*%
X230663700Y-85843700D02*
X231728600Y-85843700D01*
X242255900Y-99159500D02*
X242255900Y-106437200D01*
X242255900Y-106437200D02*
X242014900Y-106678200D01*
X240602200Y-97505800D02*
X242255900Y-99159500D01*
X240602200Y-94717300D02*
X240602200Y-97505800D01*
X228440000Y-83620000D02*
X230663700Y-85843700D01*
X231728600Y-85843700D02*
X240602200Y-94717300D01*
%TO.N,Net-(U25-CP)*%
X243194100Y-98488300D02*
X243311000Y-98605200D01*
X242739100Y-98051400D02*
X242739100Y-98150400D01*
X242739100Y-98150400D02*
X243077000Y-98488300D01*
X147623900Y-52110800D02*
X147623900Y-55897000D01*
X241995200Y-97406600D02*
X242094300Y-97406600D01*
X238600000Y-83620000D02*
X241657300Y-86677300D01*
X243077000Y-98488300D02*
X243194100Y-98488300D01*
X140107100Y-44258400D02*
X140107100Y-44594000D01*
X242094300Y-97406600D02*
X242739100Y-98051400D01*
X243311000Y-98605200D02*
X243311000Y-117816200D01*
X241156800Y-119970400D02*
X241156800Y-120464600D01*
X241657300Y-86677300D02*
X241657300Y-97068700D01*
X243311000Y-117816200D02*
X241156800Y-119970400D01*
X140107100Y-44594000D02*
X147623900Y-52110800D01*
X169017100Y-77290200D02*
X169017100Y-77461400D01*
X147623900Y-55897000D02*
X169017100Y-77290200D01*
X241657300Y-97068700D02*
X241995200Y-97406600D01*
%TO.N,Net-(U25-DSA)*%
X237145700Y-87366700D02*
X240953900Y-91174900D01*
X242607600Y-99013700D02*
X242607600Y-115586600D01*
X237145700Y-81645100D02*
X237145700Y-87366700D01*
X240953900Y-97360100D02*
X241703800Y-98110000D01*
X242303900Y-65388900D02*
X242303900Y-76486900D01*
X238600000Y-61685000D02*
X242303900Y-65388900D01*
X241703800Y-98110000D02*
X241703900Y-98110000D01*
X235835900Y-122358300D02*
X235835900Y-126018800D01*
X242607600Y-115586600D02*
X235835900Y-122358300D01*
X240953900Y-91174900D02*
X240953900Y-97360100D01*
X241703900Y-98110000D02*
X242607600Y-99013700D01*
X242303900Y-76486900D02*
X237145700Y-81645100D01*
%TO.N,Net-(U26-Q1)*%
X238620000Y-139593400D02*
X217000200Y-117973600D01*
X168922600Y-72777700D02*
X166171700Y-72777700D01*
X166171700Y-72777700D02*
X155030400Y-61636400D01*
X155030400Y-61636400D02*
X155030400Y-61309600D01*
X217000200Y-117973600D02*
X214118500Y-117973600D01*
X214118500Y-117973600D02*
X168922600Y-72777700D01*
X238620000Y-140570000D02*
X238620000Y-139593400D01*
%TO.N,Net-(U27A-CP)*%
X236915000Y-136899300D02*
X215937900Y-115922200D01*
X213850900Y-115922200D02*
X169054900Y-71126200D01*
X215937900Y-115922200D02*
X213850900Y-115922200D01*
X169054900Y-61271700D02*
X169054800Y-61271700D01*
X169054900Y-71126200D02*
X169054900Y-61271700D01*
%TO.N,Net-(U31-OE)*%
X101625300Y-54505200D02*
X104800200Y-54505200D01*
X96818500Y-59729100D02*
X96818500Y-59312000D01*
X104800200Y-54505200D02*
X109000700Y-50304700D01*
X96818500Y-59312000D02*
X101625300Y-54505200D01*
%TO.N,Net-(U33-OEa)*%
X112729200Y-50173600D02*
X112729200Y-50758500D01*
X112729200Y-50758500D02*
X105241900Y-58245800D01*
X105104000Y-63888900D02*
X105104000Y-64594700D01*
X105241900Y-58245800D02*
X105241900Y-63751000D01*
X105241900Y-63751000D02*
X105104000Y-63888900D01*
X105104000Y-64594700D02*
X104644800Y-65053900D01*
%TO.N,Net-(U34-OE)*%
X95304000Y-81623600D02*
X95304000Y-75210900D01*
X95905600Y-66122700D02*
X95905600Y-63383800D01*
X95513000Y-75001900D02*
X95513000Y-74246400D01*
X95988400Y-63301000D02*
X95988400Y-62739400D01*
X93607900Y-81700900D02*
X95748600Y-83841600D01*
X96304200Y-56254600D02*
X96304200Y-50884400D01*
X95304000Y-75210900D02*
X95513000Y-75001900D01*
X96570800Y-83534000D02*
X96570800Y-82890400D01*
X95511700Y-57047100D02*
X96304200Y-56254600D01*
X95988400Y-62739400D02*
X95511700Y-62262700D01*
X94995200Y-68116800D02*
X95487000Y-67625000D01*
X94995200Y-73728600D02*
X94995200Y-68116800D01*
X102416800Y-44771800D02*
X102416800Y-44562600D01*
X93607800Y-81600300D02*
X93607900Y-81600300D01*
X95511700Y-62262700D02*
X95511700Y-57047100D01*
X96570800Y-82890400D02*
X95304000Y-81623600D01*
X93607900Y-81600300D02*
X93607900Y-81700900D01*
X96263200Y-83841600D02*
X96570800Y-83534000D01*
X95748600Y-83841600D02*
X96263200Y-83841600D01*
X95487000Y-67625000D02*
X95487000Y-66541300D01*
X95487000Y-66541300D02*
X95905600Y-66122700D01*
X95513000Y-74246400D02*
X94995200Y-73728600D01*
X95905600Y-63383800D02*
X95988400Y-63301000D01*
X96304200Y-50884400D02*
X102416800Y-44771800D01*
D24*
%TO.N,-5V*%
X229710000Y-72190000D02*
X231389000Y-73868900D01*
X151630000Y-114644900D02*
X150995100Y-114010000D01*
X229710000Y-62955000D02*
X229710000Y-72190000D01*
X229621700Y-75636200D02*
X229621700Y-77871600D01*
X224098100Y-83395200D02*
X224098100Y-87522800D01*
X150995100Y-114010000D02*
X150995100Y-104249900D01*
X151630000Y-115882700D02*
X151630000Y-114644900D01*
X154100900Y-127906500D02*
X154100900Y-118353600D01*
X231389000Y-73868900D02*
X233520000Y-76000000D01*
X231389000Y-73868900D02*
X229621700Y-75636200D01*
X146970000Y-135037400D02*
X154100900Y-127906500D01*
X224098100Y-87522800D02*
X207363500Y-104257400D01*
X228440000Y-61685000D02*
X229710000Y-62955000D01*
X229621700Y-77871600D02*
X224098100Y-83395200D01*
X154100900Y-118353600D02*
X151630000Y-115882700D01*
D23*
%TO.N,Net-(U39-Pad2)*%
X137390000Y-61521700D02*
X137390000Y-66432000D01*
X132387100Y-55164400D02*
X132387100Y-56094200D01*
X136716800Y-60423900D02*
X136716800Y-60848500D01*
X136716800Y-60848500D02*
X137390000Y-61521700D01*
X132387100Y-56094200D02*
X136716800Y-60423900D01*
%TO.N,Net-(U42-Pad13)*%
X177110900Y-77468000D02*
X172208700Y-72565800D01*
X234810000Y-131966000D02*
X212563100Y-109719100D01*
X212563100Y-109719100D02*
X209018700Y-109719100D01*
X172208700Y-72565800D02*
X171330700Y-72565800D01*
X177110900Y-77811300D02*
X177110900Y-77468000D01*
X209018700Y-109719100D02*
X177110900Y-77811300D01*
X171330700Y-72565800D02*
X171330700Y-72565700D01*
%TO.N,/CMDRW*%
X164056700Y-43426000D02*
X164056700Y-59809000D01*
X211552100Y-36943700D02*
X212542600Y-37934200D01*
X251004300Y-84140900D02*
X251004300Y-92513100D01*
X250383400Y-103937200D02*
X249507400Y-104813200D01*
X165160000Y-41700000D02*
X165160000Y-42322700D01*
X249507400Y-118310400D02*
X238243200Y-129574600D01*
X212542600Y-37934200D02*
X212542600Y-59594400D01*
X249507400Y-104813200D02*
X249507400Y-118310400D01*
X250629100Y-92888300D02*
X250629100Y-93948500D01*
X250629100Y-93948500D02*
X250383400Y-94194200D01*
X164045900Y-68528600D02*
X163550000Y-69024500D01*
X251004300Y-92513100D02*
X250629100Y-92888300D01*
X212542600Y-59594400D02*
X217020800Y-64072600D01*
X164056700Y-59809000D02*
X164045900Y-59819800D01*
X250891200Y-84027800D02*
X251004300Y-84140900D01*
X217020800Y-64072600D02*
X217020800Y-73158600D01*
X251730000Y-79705400D02*
X250891200Y-80544200D01*
X164045900Y-59819800D02*
X164045900Y-68528600D01*
X165160000Y-42322700D02*
X164056700Y-43426000D01*
X250383400Y-94194200D02*
X250383400Y-103937200D01*
X250891200Y-80544200D02*
X250891200Y-84027800D01*
X238243200Y-129574600D02*
X237976700Y-129574600D01*
%TO.N,Net-(BZ1--)*%
X201225000Y-55500000D02*
X199800000Y-55500000D01*
X199800000Y-55500000D02*
X194800000Y-60500000D01*
%TO.N,Net-(BZ1-+)*%
X180843300Y-55420000D02*
X185923300Y-60500000D01*
X187200000Y-60500000D02*
X185923300Y-60500000D01*
X180610000Y-55420000D02*
X180843300Y-55420000D01*
%TO.N,Net-(U3-~{OE})*%
X147474600Y-63629600D02*
X151850800Y-63629600D01*
X167385300Y-78054900D02*
X167385300Y-78137300D01*
X152137400Y-63343000D02*
X152673400Y-63343000D01*
X168685900Y-79093200D02*
X179876100Y-90283400D01*
X147090000Y-63245000D02*
X147474600Y-63629600D01*
X167385300Y-78137300D02*
X168341200Y-79093200D01*
X168341200Y-79093200D02*
X168685900Y-79093200D01*
X151850800Y-63629600D02*
X152137400Y-63343000D01*
X179876100Y-107269900D02*
X185132200Y-112526000D01*
X179876100Y-90283400D02*
X179876100Y-107269900D01*
X152673400Y-63343000D02*
X167385300Y-78054900D01*
%TO.N,Net-(Q1-COLLECTOR)*%
X217597500Y-83092800D02*
X216512300Y-84178000D01*
X217597500Y-40200700D02*
X217597500Y-83092800D01*
X216575400Y-39178600D02*
X217597500Y-40200700D01*
%TO.N,Net-(R10-Pad1)*%
X190351800Y-78781500D02*
X190351800Y-75321800D01*
X205349400Y-87521400D02*
X199091700Y-87521400D01*
X199091700Y-87521400D02*
X190351800Y-78781500D01*
X207352100Y-85518700D02*
X205349400Y-87521400D01*
X190351800Y-75321800D02*
X180610000Y-65580000D01*
%TD*%
M02*
