%TF.GenerationSoftware,KiCad,Pcbnew,9.0.6*%
%TF.CreationDate,2026-03-28T18:16:25-05:00*%
%TF.ProjectId,W2I-S100,5732492d-5331-4303-902e-6b696361645f,rev?*%
%TF.SameCoordinates,Original*%
%TF.FileFunction,Soldermask,Top*%
%TF.FilePolarity,Negative*%
%FSLAX46Y46*%
G04 Gerber Fmt 4.6, Leading zero omitted, Abs format (unit mm)*
G04 Created by KiCad (PCBNEW 9.0.6) date 2026-03-28 18:16:25*
%MOMM*%
%LPD*%
G01*
G04 APERTURE LIST*
G04 Aperture macros list*
%AMRoundRect*
0 Rectangle with rounded corners*
0 $1 Rounding radius*
0 $2 $3 $4 $5 $6 $7 $8 $9 X,Y pos of 4 corners*
0 Add a 4 corners polygon primitive as box body*
4,1,4,$2,$3,$4,$5,$6,$7,$8,$9,$2,$3,0*
0 Add four circle primitives for the rounded corners*
1,1,$1+$1,$2,$3*
1,1,$1+$1,$4,$5*
1,1,$1+$1,$6,$7*
1,1,$1+$1,$8,$9*
0 Add four rect primitives between the rounded corners*
20,1,$1+$1,$2,$3,$4,$5,0*
20,1,$1+$1,$4,$5,$6,$7,0*
20,1,$1+$1,$6,$7,$8,$9,0*
20,1,$1+$1,$8,$9,$2,$3,0*%
%AMFreePoly0*
4,1,148,0.979806,0.999029,1.024951,0.990000,1.060000,0.990000,1.072127,0.988507,1.110971,0.978796,1.159806,0.969029,1.162127,0.968507,1.242127,0.948507,1.252361,0.944721,1.286371,0.927716,1.329806,0.919029,1.342361,0.914721,1.382361,0.894721,1.390000,0.890000,1.428884,0.860837,1.455149,0.843327,1.492361,0.824721,1.500000,0.820000,1.540000,0.790000,1.545355,0.785355,
1.602840,0.727870,1.640000,0.700000,1.645355,0.695355,1.705355,0.635355,1.714721,0.622361,1.732704,0.586394,1.760000,0.550000,1.761603,0.547735,1.781603,0.517735,1.784721,0.512361,1.824721,0.432361,1.828507,0.422127,1.839039,0.380000,3.500000,0.380000,3.535355,0.365355,3.550000,0.330000,3.550000,-0.330000,3.535355,-0.365355,3.500000,-0.380000,1.839039,-0.380000,
1.828507,-0.422127,1.824721,-0.432361,1.764721,-0.552361,1.755355,-0.565355,1.731093,-0.589617,1.714721,-0.622361,1.705355,-0.635355,1.677870,-0.662840,1.650000,-0.700000,1.640000,-0.710000,1.602840,-0.737870,1.575355,-0.765355,1.567735,-0.771603,1.538884,-0.790837,1.460000,-0.850000,1.457735,-0.851603,1.427735,-0.871603,1.422361,-0.874721,1.342361,-0.914721,1.338570,-0.916424,
1.288570,-0.936424,1.282127,-0.938507,1.207451,-0.957176,1.172361,-0.974721,1.150000,-0.980000,1.106155,-0.980000,1.032127,-0.998507,1.020000,-1.000000,-1.020000,-1.000000,-1.032127,-0.998507,-1.106155,-0.980000,-1.150000,-0.980000,-1.172361,-0.974721,-1.207451,-0.957176,-1.240971,-0.948796,-1.289806,-0.939029,-1.302361,-0.934721,-1.422361,-0.874721,-1.427735,-0.871603,-1.457735,-0.851603,
-1.460000,-0.850000,-1.538884,-0.790837,-1.567735,-0.771603,-1.570000,-0.770000,-1.610000,-0.740000,-1.615355,-0.735355,-1.645355,-0.705355,-1.650000,-0.700000,-1.677870,-0.662840,-1.705355,-0.635355,-1.714721,-0.622361,-1.731093,-0.589617,-1.755355,-0.565355,-1.764721,-0.552361,-1.864721,-0.352361,-1.868507,-0.342127,-1.877683,-0.305421,-1.896424,-0.258570,-1.898507,-0.252127,-1.908507,-0.212127,
-1.910000,-0.200000,-1.910000,-0.164951,-1.918796,-0.120971,-1.928507,-0.082127,-1.930000,-0.070000,-1.930000,0.070000,-1.928507,0.082127,-1.910000,0.156155,-1.910000,0.200000,-1.908507,0.212127,-1.898507,0.252127,-1.894721,0.262361,-1.877716,0.296371,-1.869029,0.339806,-1.864721,0.352361,-1.784721,0.512361,-1.781603,0.517735,-1.761603,0.547735,-1.760000,0.550000,-1.732704,0.586394,
-1.714721,0.622361,-1.705355,0.635355,-1.615355,0.725355,-1.610000,0.730000,-1.572840,0.757870,-1.545355,0.785355,-1.540000,0.790000,-1.500000,0.820000,-1.492361,0.824721,-1.455149,0.843327,-1.428884,0.860837,-1.390000,0.890000,-1.382361,0.894721,-1.342361,0.914721,-1.332127,0.918507,-1.295421,0.927683,-1.248570,0.946424,-1.242127,0.948507,-1.162127,0.968507,-1.159806,0.969029,
-1.110971,0.978796,-1.072127,0.988507,-1.060000,0.990000,-1.024951,0.990000,-0.979806,0.999029,-0.970000,1.000000,0.970000,1.000000,0.979806,0.999029,0.979806,0.999029,$1*%
G04 Aperture macros list end*
%ADD10C,0.806000*%
%ADD11R,0.800000X0.900000*%
%ADD12R,1.700000X1.210000*%
%ADD13R,0.900000X0.800000*%
%ADD14R,2.000000X2.000000*%
%ADD15O,0.570000X2.040000*%
%ADD16R,3.500000X1.200000*%
%ADD17RoundRect,0.250000X0.550000X-0.550000X0.550000X0.550000X-0.550000X0.550000X-0.550000X-0.550000X0*%
%ADD18C,1.600000*%
%ADD19R,1.210000X1.700000*%
%ADD20RoundRect,0.250000X-0.600000X0.600000X-0.600000X-0.600000X0.600000X-0.600000X0.600000X0.600000X0*%
%ADD21C,1.700000*%
%ADD22R,0.400000X1.700000*%
%ADD23R,0.860000X0.810000*%
%ADD24R,1.700000X1.700000*%
%ADD25C,4.000000*%
%ADD26O,0.600000X1.970000*%
%ADD27R,1.600000X1.600000*%
%ADD28C,3.000000*%
%ADD29R,1.400000X1.000000*%
%ADD30R,0.980000X2.460000*%
%ADD31O,0.400000X1.800000*%
%ADD32O,0.600000X2.230000*%
%ADD33O,0.360000X1.740000*%
%ADD34R,1.200000X3.500000*%
%ADD35C,2.000000*%
%ADD36O,0.340000X1.730000*%
%ADD37R,1.800000X2.000000*%
%ADD38O,0.310000X1.450000*%
%ADD39R,2.800000X1.100000*%
%ADD40O,0.590000X1.970000*%
%ADD41R,1.100000X2.800000*%
%ADD42R,2.794000X7.620000*%
%ADD43R,1.778000X7.620000*%
%ADD44R,1.600000X3.000000*%
%ADD45R,12.700000X12.700000*%
%ADD46R,1.150000X0.950000*%
%ADD47RoundRect,0.250000X-0.550000X-0.550000X0.550000X-0.550000X0.550000X0.550000X-0.550000X0.550000X0*%
%ADD48O,0.570000X1.950000*%
%ADD49R,0.670000X1.580000*%
%ADD50FreePoly0,270.000000*%
G04 APERTURE END LIST*
%TO.C,J2*%
D10*
X35153000Y-38000000D02*
G75*
G02*
X34347000Y-38000000I-403000J0D01*
G01*
X34347000Y-38000000D02*
G75*
G02*
X35153000Y-38000000I403000J0D01*
G01*
X35153000Y-40000000D02*
G75*
G02*
X34347000Y-40000000I-403000J0D01*
G01*
X34347000Y-40000000D02*
G75*
G02*
X35153000Y-40000000I403000J0D01*
G01*
X37153000Y-38000000D02*
G75*
G02*
X36347000Y-38000000I-403000J0D01*
G01*
X36347000Y-38000000D02*
G75*
G02*
X37153000Y-38000000I403000J0D01*
G01*
X37153000Y-40000000D02*
G75*
G02*
X36347000Y-40000000I-403000J0D01*
G01*
X36347000Y-40000000D02*
G75*
G02*
X37153000Y-40000000I403000J0D01*
G01*
X39153000Y-38000000D02*
G75*
G02*
X38347000Y-38000000I-403000J0D01*
G01*
X38347000Y-38000000D02*
G75*
G02*
X39153000Y-38000000I403000J0D01*
G01*
X39153000Y-40000000D02*
G75*
G02*
X38347000Y-40000000I-403000J0D01*
G01*
X38347000Y-40000000D02*
G75*
G02*
X39153000Y-40000000I403000J0D01*
G01*
X41153000Y-38000000D02*
G75*
G02*
X40347000Y-38000000I-403000J0D01*
G01*
X40347000Y-38000000D02*
G75*
G02*
X41153000Y-38000000I403000J0D01*
G01*
X41153000Y-40000000D02*
G75*
G02*
X40347000Y-40000000I-403000J0D01*
G01*
X40347000Y-40000000D02*
G75*
G02*
X41153000Y-40000000I403000J0D01*
G01*
X43153000Y-38000000D02*
G75*
G02*
X42347000Y-38000000I-403000J0D01*
G01*
X42347000Y-38000000D02*
G75*
G02*
X43153000Y-38000000I403000J0D01*
G01*
X43153000Y-40000000D02*
G75*
G02*
X42347000Y-40000000I-403000J0D01*
G01*
X42347000Y-40000000D02*
G75*
G02*
X43153000Y-40000000I403000J0D01*
G01*
X45153000Y-38000000D02*
G75*
G02*
X44347000Y-38000000I-403000J0D01*
G01*
X44347000Y-38000000D02*
G75*
G02*
X45153000Y-38000000I403000J0D01*
G01*
X45153000Y-40000000D02*
G75*
G02*
X44347000Y-40000000I-403000J0D01*
G01*
X44347000Y-40000000D02*
G75*
G02*
X45153000Y-40000000I403000J0D01*
G01*
X47153000Y-38000000D02*
G75*
G02*
X46347000Y-38000000I-403000J0D01*
G01*
X46347000Y-38000000D02*
G75*
G02*
X47153000Y-38000000I403000J0D01*
G01*
X47153000Y-40000000D02*
G75*
G02*
X46347000Y-40000000I-403000J0D01*
G01*
X46347000Y-40000000D02*
G75*
G02*
X47153000Y-40000000I403000J0D01*
G01*
X49153000Y-38000000D02*
G75*
G02*
X48347000Y-38000000I-403000J0D01*
G01*
X48347000Y-38000000D02*
G75*
G02*
X49153000Y-38000000I403000J0D01*
G01*
X49153000Y-40000000D02*
G75*
G02*
X48347000Y-40000000I-403000J0D01*
G01*
X48347000Y-40000000D02*
G75*
G02*
X49153000Y-40000000I403000J0D01*
G01*
X51153000Y-38000000D02*
G75*
G02*
X50347000Y-38000000I-403000J0D01*
G01*
X50347000Y-38000000D02*
G75*
G02*
X51153000Y-38000000I403000J0D01*
G01*
X51153000Y-40000000D02*
G75*
G02*
X50347000Y-40000000I-403000J0D01*
G01*
X50347000Y-40000000D02*
G75*
G02*
X51153000Y-40000000I403000J0D01*
G01*
X53153000Y-38000000D02*
G75*
G02*
X52347000Y-38000000I-403000J0D01*
G01*
X52347000Y-38000000D02*
G75*
G02*
X53153000Y-38000000I403000J0D01*
G01*
X53153000Y-40000000D02*
G75*
G02*
X52347000Y-40000000I-403000J0D01*
G01*
X52347000Y-40000000D02*
G75*
G02*
X53153000Y-40000000I403000J0D01*
G01*
X55153000Y-38000000D02*
G75*
G02*
X54347000Y-38000000I-403000J0D01*
G01*
X54347000Y-38000000D02*
G75*
G02*
X55153000Y-38000000I403000J0D01*
G01*
X55153000Y-40000000D02*
G75*
G02*
X54347000Y-40000000I-403000J0D01*
G01*
X54347000Y-40000000D02*
G75*
G02*
X55153000Y-40000000I403000J0D01*
G01*
X57153000Y-38000000D02*
G75*
G02*
X56347000Y-38000000I-403000J0D01*
G01*
X56347000Y-38000000D02*
G75*
G02*
X57153000Y-38000000I403000J0D01*
G01*
X57153000Y-40000000D02*
G75*
G02*
X56347000Y-40000000I-403000J0D01*
G01*
X56347000Y-40000000D02*
G75*
G02*
X57153000Y-40000000I403000J0D01*
G01*
X59153000Y-38000000D02*
G75*
G02*
X58347000Y-38000000I-403000J0D01*
G01*
X58347000Y-38000000D02*
G75*
G02*
X59153000Y-38000000I403000J0D01*
G01*
X59153000Y-40000000D02*
G75*
G02*
X58347000Y-40000000I-403000J0D01*
G01*
X58347000Y-40000000D02*
G75*
G02*
X59153000Y-40000000I403000J0D01*
G01*
X61153000Y-38000000D02*
G75*
G02*
X60347000Y-38000000I-403000J0D01*
G01*
X60347000Y-38000000D02*
G75*
G02*
X61153000Y-38000000I403000J0D01*
G01*
X61153000Y-40000000D02*
G75*
G02*
X60347000Y-40000000I-403000J0D01*
G01*
X60347000Y-40000000D02*
G75*
G02*
X61153000Y-40000000I403000J0D01*
G01*
X63153000Y-38000000D02*
G75*
G02*
X62347000Y-38000000I-403000J0D01*
G01*
X62347000Y-38000000D02*
G75*
G02*
X63153000Y-38000000I403000J0D01*
G01*
X63153000Y-40000000D02*
G75*
G02*
X62347000Y-40000000I-403000J0D01*
G01*
X62347000Y-40000000D02*
G75*
G02*
X63153000Y-40000000I403000J0D01*
G01*
X65153000Y-38000000D02*
G75*
G02*
X64347000Y-38000000I-403000J0D01*
G01*
X64347000Y-38000000D02*
G75*
G02*
X65153000Y-38000000I403000J0D01*
G01*
X65153000Y-40000000D02*
G75*
G02*
X64347000Y-40000000I-403000J0D01*
G01*
X64347000Y-40000000D02*
G75*
G02*
X65153000Y-40000000I403000J0D01*
G01*
X67153000Y-38000000D02*
G75*
G02*
X66347000Y-38000000I-403000J0D01*
G01*
X66347000Y-38000000D02*
G75*
G02*
X67153000Y-38000000I403000J0D01*
G01*
X67153000Y-40000000D02*
G75*
G02*
X66347000Y-40000000I-403000J0D01*
G01*
X66347000Y-40000000D02*
G75*
G02*
X67153000Y-40000000I403000J0D01*
G01*
X69153000Y-38000000D02*
G75*
G02*
X68347000Y-38000000I-403000J0D01*
G01*
X68347000Y-38000000D02*
G75*
G02*
X69153000Y-38000000I403000J0D01*
G01*
X69153000Y-40000000D02*
G75*
G02*
X68347000Y-40000000I-403000J0D01*
G01*
X68347000Y-40000000D02*
G75*
G02*
X69153000Y-40000000I403000J0D01*
G01*
X71153000Y-38000000D02*
G75*
G02*
X70347000Y-38000000I-403000J0D01*
G01*
X70347000Y-38000000D02*
G75*
G02*
X71153000Y-38000000I403000J0D01*
G01*
X71153000Y-40000000D02*
G75*
G02*
X70347000Y-40000000I-403000J0D01*
G01*
X70347000Y-40000000D02*
G75*
G02*
X71153000Y-40000000I403000J0D01*
G01*
X73153000Y-38000000D02*
G75*
G02*
X72347000Y-38000000I-403000J0D01*
G01*
X72347000Y-38000000D02*
G75*
G02*
X73153000Y-38000000I403000J0D01*
G01*
X73153000Y-40000000D02*
G75*
G02*
X72347000Y-40000000I-403000J0D01*
G01*
X72347000Y-40000000D02*
G75*
G02*
X73153000Y-40000000I403000J0D01*
G01*
X75153000Y-38000000D02*
G75*
G02*
X74347000Y-38000000I-403000J0D01*
G01*
X74347000Y-38000000D02*
G75*
G02*
X75153000Y-38000000I403000J0D01*
G01*
X75153000Y-40000000D02*
G75*
G02*
X74347000Y-40000000I-403000J0D01*
G01*
X74347000Y-40000000D02*
G75*
G02*
X75153000Y-40000000I403000J0D01*
G01*
X77153000Y-38000000D02*
G75*
G02*
X76347000Y-38000000I-403000J0D01*
G01*
X76347000Y-38000000D02*
G75*
G02*
X77153000Y-38000000I403000J0D01*
G01*
X77153000Y-40000000D02*
G75*
G02*
X76347000Y-40000000I-403000J0D01*
G01*
X76347000Y-40000000D02*
G75*
G02*
X77153000Y-40000000I403000J0D01*
G01*
%TD*%
D11*
%TO.C,C21*%
X197940000Y-98175500D03*
X199340000Y-98175500D03*
%TD*%
D12*
%TO.C,R46*%
X96540000Y-34520000D03*
X96540000Y-37480000D03*
%TD*%
D13*
%TO.C,C32*%
X233477500Y-124300000D03*
X233477500Y-122900000D03*
%TD*%
D14*
%TO.C,TP1*%
X110750000Y-95500000D03*
%TD*%
D11*
%TO.C,C59*%
X96000000Y-40900000D03*
X97400000Y-40900000D03*
%TD*%
D13*
%TO.C,C64*%
X245898000Y-60700000D03*
X245898000Y-59300000D03*
%TD*%
D12*
%TO.C,R34*%
X194000000Y-100730000D03*
X194000000Y-97770000D03*
%TD*%
%TO.C,R35*%
X208350000Y-114480000D03*
X208350000Y-111520000D03*
%TD*%
D13*
%TO.C,C49*%
X194768000Y-105445000D03*
X194768000Y-104045000D03*
%TD*%
%TO.C,C77*%
X222852000Y-66205000D03*
X222852000Y-64805000D03*
%TD*%
%TO.C,C74*%
X180162000Y-111241000D03*
X180162000Y-109841000D03*
%TD*%
D15*
%TO.C,U25*%
X235427500Y-126270000D03*
X236697500Y-126270000D03*
X237967500Y-126270000D03*
X239237500Y-126270000D03*
X240507500Y-126270000D03*
X241777500Y-126270000D03*
X243047500Y-126270000D03*
X243047500Y-120730000D03*
X241777500Y-120730000D03*
X240507500Y-120730000D03*
X239237500Y-120730000D03*
X237967500Y-120730000D03*
X236697500Y-120730000D03*
X235427500Y-120730000D03*
%TD*%
D13*
%TO.C,C6*%
X202568000Y-89545000D03*
X202568000Y-90945000D03*
%TD*%
D16*
%TO.C,C19*%
X27420000Y-36750000D03*
X22080000Y-36750000D03*
%TD*%
D15*
%TO.C,U40*%
X138190000Y-65520000D03*
X139460000Y-65520000D03*
X140730000Y-65520000D03*
X142000000Y-65520000D03*
X143270000Y-65520000D03*
X144540000Y-65520000D03*
X145810000Y-65520000D03*
X145810000Y-59980000D03*
X144540000Y-59980000D03*
X143270000Y-59980000D03*
X142000000Y-59980000D03*
X140730000Y-59980000D03*
X139460000Y-59980000D03*
X138190000Y-59980000D03*
%TD*%
D17*
%TO.C,SW1*%
X225840000Y-109805000D03*
D18*
X228380000Y-109805000D03*
X230920000Y-109805000D03*
X233460000Y-109805000D03*
X236000000Y-109805000D03*
X238540000Y-109805000D03*
X241080000Y-109805000D03*
X241080000Y-102185000D03*
X238540000Y-102185000D03*
X236000000Y-102185000D03*
X233460000Y-102185000D03*
X230920000Y-102185000D03*
X228380000Y-102185000D03*
X225840000Y-102185000D03*
%TD*%
D13*
%TO.C,C60*%
X202109000Y-67510000D03*
X202109000Y-66110000D03*
%TD*%
D11*
%TO.C,C34*%
X211901000Y-110421500D03*
X210501000Y-110421500D03*
%TD*%
D19*
%TO.C,R11*%
X188270000Y-70750000D03*
X191230000Y-70750000D03*
%TD*%
D12*
%TO.C,R16*%
X88900000Y-37510000D03*
X88900000Y-34550000D03*
%TD*%
D13*
%TO.C,C63*%
X228766000Y-93762000D03*
X228766000Y-92362000D03*
%TD*%
D11*
%TO.C,C37*%
X166805000Y-139885000D03*
X168205000Y-139885000D03*
%TD*%
D20*
%TO.C,J1*%
X240510000Y-26670000D03*
D21*
X240510000Y-29210000D03*
X237970000Y-26670000D03*
X237970000Y-29210000D03*
X235430000Y-26670000D03*
X235430000Y-29210000D03*
X232890000Y-26670000D03*
X232890000Y-29210000D03*
X230350000Y-26670000D03*
X230350000Y-29210000D03*
X227810000Y-26670000D03*
X227810000Y-29210000D03*
X225270000Y-26670000D03*
X225270000Y-29210000D03*
X222730000Y-26670000D03*
X222730000Y-29210000D03*
X220190000Y-26670000D03*
X220190000Y-29210000D03*
X217650000Y-26670000D03*
X217650000Y-29210000D03*
X215110000Y-26670000D03*
X215110000Y-29210000D03*
X212570000Y-26670000D03*
X212570000Y-29210000D03*
X210030000Y-26670000D03*
X210030000Y-29210000D03*
X207490000Y-26670000D03*
X207490000Y-29210000D03*
X204950000Y-26670000D03*
X204950000Y-29210000D03*
X202410000Y-26670000D03*
X202410000Y-29210000D03*
X199870000Y-26670000D03*
X199870000Y-29210000D03*
%TD*%
D12*
%TO.C,R38*%
X124940500Y-60325500D03*
X124940500Y-57365500D03*
%TD*%
D15*
%TO.C,U39*%
X131690000Y-48770000D03*
X132960000Y-48770000D03*
X134230000Y-48770000D03*
X135500000Y-48770000D03*
X136770000Y-48770000D03*
X138040000Y-48770000D03*
X139310000Y-48770000D03*
X139310000Y-43230000D03*
X138040000Y-43230000D03*
X136770000Y-43230000D03*
X135500000Y-43230000D03*
X134230000Y-43230000D03*
X132960000Y-43230000D03*
X131690000Y-43230000D03*
%TD*%
D13*
%TO.C,C24*%
X176282000Y-46270000D03*
X176282000Y-44870000D03*
%TD*%
D22*
%TO.C,U44*%
X204350000Y-69600000D03*
X205000000Y-69600000D03*
X205650000Y-69600000D03*
X206300000Y-69600000D03*
X206950000Y-69600000D03*
X207600000Y-69600000D03*
X208250000Y-69600000D03*
X208250000Y-64000000D03*
X207600000Y-64000000D03*
X206950000Y-64000000D03*
X206300000Y-64000000D03*
X205650000Y-64000000D03*
X205000000Y-64000000D03*
X204350000Y-64000000D03*
%TD*%
D23*
%TO.C,R6*%
X164654000Y-24733000D03*
X164654000Y-26233000D03*
%TD*%
D14*
%TO.C,TP5*%
X149250000Y-54250000D03*
%TD*%
D15*
%TO.C,U6*%
X211840000Y-124550000D03*
X213110000Y-124550000D03*
X214380000Y-124550000D03*
X215650000Y-124550000D03*
X216920000Y-124550000D03*
X218190000Y-124550000D03*
X219460000Y-124550000D03*
X219460000Y-119010000D03*
X218190000Y-119010000D03*
X216920000Y-119010000D03*
X215650000Y-119010000D03*
X214380000Y-119010000D03*
X213110000Y-119010000D03*
X211840000Y-119010000D03*
%TD*%
D19*
%TO.C,R41*%
X119680000Y-75700000D03*
X116720000Y-75700000D03*
%TD*%
D13*
%TO.C,C25*%
X198032000Y-46270000D03*
X198032000Y-44870000D03*
%TD*%
D12*
%TO.C,R26*%
X241080000Y-115095000D03*
X241080000Y-112135000D03*
%TD*%
%TO.C,R17*%
X260000000Y-85080000D03*
X260000000Y-82120000D03*
%TD*%
D11*
%TO.C,C39*%
X238700000Y-130500000D03*
X237300000Y-130500000D03*
%TD*%
D23*
%TO.C,R22*%
X183972000Y-24662000D03*
X183972000Y-26162000D03*
%TD*%
D13*
%TO.C,C42*%
X91648000Y-94614000D03*
X91648000Y-96014000D03*
%TD*%
%TO.C,C16*%
X57280000Y-26300000D03*
X57280000Y-27700000D03*
%TD*%
%TO.C,C43*%
X127440500Y-53145500D03*
X127440500Y-54545500D03*
%TD*%
%TO.C,C58*%
X157952000Y-75007500D03*
X157952000Y-73607500D03*
%TD*%
%TO.C,C69*%
X245898000Y-75000000D03*
X245898000Y-73600000D03*
%TD*%
D14*
%TO.C,TP3*%
X142250000Y-54250000D03*
%TD*%
D21*
%TO.C,P7*%
X90667500Y-135288500D03*
X93207500Y-135288500D03*
X95747500Y-135288500D03*
D24*
X98287500Y-135288500D03*
D21*
X100827500Y-135288500D03*
%TD*%
D25*
%TO.C,MH1*%
X82720000Y-116600000D03*
%TD*%
D13*
%TO.C,C9*%
X204203000Y-135475000D03*
X204203000Y-136875000D03*
%TD*%
D26*
%TO.C,U21*%
X196800000Y-107490000D03*
X198070000Y-107490000D03*
X199340000Y-107490000D03*
X200620000Y-107490000D03*
X201880000Y-107490000D03*
X203150000Y-107490000D03*
X204420000Y-107490000D03*
X205690000Y-107490000D03*
X205690000Y-102010000D03*
X204420000Y-102010000D03*
X203150000Y-102010000D03*
X201880000Y-102010000D03*
X200620000Y-102010000D03*
X199340000Y-102010000D03*
X198070000Y-102010000D03*
X196800000Y-102010000D03*
%TD*%
D27*
%TO.C,RP2*%
X223720000Y-55500000D03*
D18*
X226260000Y-55500000D03*
X228800000Y-55500000D03*
X231340000Y-55500000D03*
X233880000Y-55500000D03*
X236420000Y-55500000D03*
X238960000Y-55500000D03*
X241500000Y-55500000D03*
%TD*%
D13*
%TO.C,C50*%
X113250000Y-90700000D03*
X113250000Y-89300000D03*
%TD*%
D28*
%TO.C,MH2*%
X18200000Y-28200000D03*
%TD*%
D29*
%TO.C,LED2*%
X147382000Y-24721000D03*
X147382000Y-26821000D03*
%TD*%
D30*
%TO.C,C5*%
X198000000Y-133730000D03*
X198000000Y-137770000D03*
%TD*%
D13*
%TO.C,C62*%
X231640000Y-136916000D03*
X231640000Y-135516000D03*
%TD*%
D23*
%TO.C,R1*%
X153478000Y-24662000D03*
X153478000Y-26162000D03*
%TD*%
D13*
%TO.C,C33*%
X130190500Y-53145500D03*
X130190500Y-54545500D03*
%TD*%
D11*
%TO.C,C3*%
X195118000Y-91596000D03*
X193718000Y-91596000D03*
%TD*%
D13*
%TO.C,C29*%
X218785000Y-136875000D03*
X218785000Y-135475000D03*
%TD*%
D27*
%TO.C,OSC2*%
X196290000Y-120610000D03*
D18*
X203910000Y-120610000D03*
X203910000Y-112990000D03*
X196290000Y-112990000D03*
%TD*%
D31*
%TO.C,U42*%
X160950000Y-77607500D03*
X161600000Y-77607500D03*
X162250000Y-77607500D03*
X162900000Y-77607500D03*
X163550000Y-77607500D03*
X164200000Y-77607500D03*
X164850000Y-77607500D03*
X164850000Y-71007500D03*
X164200000Y-71007500D03*
X163550000Y-71007500D03*
X162900000Y-71007500D03*
X162250000Y-71007500D03*
X161600000Y-71007500D03*
X160950000Y-71007500D03*
%TD*%
D29*
%TO.C,LED5*%
X158558000Y-24721000D03*
X158558000Y-26821000D03*
%TD*%
D32*
%TO.C,U31*%
X93295000Y-61500000D03*
X94565000Y-61500000D03*
X95835000Y-61500000D03*
X97105000Y-61500000D03*
X98385000Y-61500000D03*
X99645000Y-61500000D03*
X100915000Y-61500000D03*
X102185000Y-61500000D03*
X103455000Y-61500000D03*
X104725000Y-61500000D03*
X104725000Y-54360000D03*
X103455000Y-54360000D03*
X102185000Y-54360000D03*
X100915000Y-54360000D03*
X99645000Y-54360000D03*
X98385000Y-54360000D03*
X97105000Y-54360000D03*
X95835000Y-54360000D03*
X94565000Y-54360000D03*
X93295000Y-54360000D03*
%TD*%
D16*
%TO.C,C70*%
X115952000Y-139456000D03*
X110612000Y-139456000D03*
%TD*%
D25*
%TO.C,MH3*%
X82720000Y-78300000D03*
%TD*%
D33*
%TO.C,U33*%
X104570000Y-72370000D03*
X105220000Y-72370000D03*
X105870000Y-72370000D03*
X106520000Y-72370000D03*
X107180000Y-72370000D03*
X107830000Y-72370000D03*
X108480000Y-72370000D03*
X109130000Y-72370000D03*
X109780000Y-72370000D03*
X110430000Y-72370000D03*
X110430000Y-66630000D03*
X109780000Y-66630000D03*
X109130000Y-66630000D03*
X108480000Y-66630000D03*
X107830000Y-66630000D03*
X107180000Y-66630000D03*
X106520000Y-66630000D03*
X105870000Y-66630000D03*
X105220000Y-66630000D03*
X104570000Y-66630000D03*
%TD*%
D17*
%TO.C,U17*%
X179330000Y-49375000D03*
D18*
X181870000Y-49375000D03*
X184410000Y-49375000D03*
X186950000Y-49375000D03*
X189490000Y-49375000D03*
X192030000Y-49375000D03*
X194570000Y-49375000D03*
X194570000Y-41755000D03*
X192030000Y-41755000D03*
X189490000Y-41755000D03*
X186950000Y-41755000D03*
X184410000Y-41755000D03*
X181870000Y-41755000D03*
X179330000Y-41755000D03*
%TD*%
D24*
%TO.C,J3*%
X61740000Y-27000000D03*
D21*
X64280000Y-27000000D03*
X66820000Y-27000000D03*
X69360000Y-27000000D03*
X71900000Y-27000000D03*
%TD*%
D19*
%TO.C,R12*%
X190945000Y-91596000D03*
X187985000Y-91596000D03*
%TD*%
D34*
%TO.C,C7*%
X179250000Y-74910000D03*
X179250000Y-80250000D03*
%TD*%
D29*
%TO.C,LED13*%
X190068000Y-24721000D03*
X190068000Y-26821000D03*
%TD*%
D14*
%TO.C,TP14*%
X104850000Y-141400000D03*
%TD*%
D29*
%TO.C,LED6*%
X162622000Y-24687000D03*
X162622000Y-26787000D03*
%TD*%
%TO.C,LED8*%
X170750000Y-24687000D03*
X170750000Y-26787000D03*
%TD*%
D14*
%TO.C,TP10*%
X90900000Y-141400000D03*
%TD*%
%TO.C,TP12*%
X97900000Y-141400000D03*
%TD*%
%TO.C,TP7*%
X156250000Y-54250000D03*
%TD*%
D16*
%TO.C,C72*%
X115952000Y-128456000D03*
X110612000Y-128456000D03*
%TD*%
D11*
%TO.C,C35*%
X119100000Y-78950000D03*
X117700000Y-78950000D03*
%TD*%
D17*
%TO.C,U20*%
X244875000Y-49370000D03*
D18*
X247415000Y-49370000D03*
X249955000Y-49370000D03*
X252495000Y-49370000D03*
X255035000Y-49370000D03*
X257575000Y-49370000D03*
X260115000Y-49370000D03*
X260115000Y-41750000D03*
X257575000Y-41750000D03*
X255035000Y-41750000D03*
X252495000Y-41750000D03*
X249955000Y-41750000D03*
X247415000Y-41750000D03*
X244875000Y-41750000D03*
%TD*%
D13*
%TO.C,C26*%
X219775000Y-46220000D03*
X219775000Y-44820000D03*
%TD*%
D23*
%TO.C,R7*%
X168718000Y-24733000D03*
X168718000Y-26233000D03*
%TD*%
D17*
%TO.C,U4*%
X142680000Y-93250000D03*
D18*
X145220000Y-93250000D03*
X147760000Y-93250000D03*
X150300000Y-93250000D03*
X152840000Y-93250000D03*
X155380000Y-93250000D03*
X157920000Y-93250000D03*
X160460000Y-93250000D03*
X163000000Y-93250000D03*
X165540000Y-93250000D03*
X168080000Y-93250000D03*
X170620000Y-93250000D03*
X170620000Y-83090000D03*
X168080000Y-83090000D03*
X165540000Y-83090000D03*
X163000000Y-83090000D03*
X160460000Y-83090000D03*
X157920000Y-83090000D03*
X155380000Y-83090000D03*
X152840000Y-83090000D03*
X150300000Y-83090000D03*
X147760000Y-83090000D03*
X145220000Y-83090000D03*
X142680000Y-83090000D03*
%TD*%
D17*
%TO.C,U1*%
X142740000Y-137350000D03*
D18*
X145280000Y-137350000D03*
X147820000Y-137350000D03*
X150360000Y-137350000D03*
X152900000Y-137350000D03*
X155440000Y-137350000D03*
X157980000Y-137350000D03*
X160520000Y-137350000D03*
X163060000Y-137350000D03*
X165600000Y-137350000D03*
X168140000Y-137350000D03*
X170680000Y-137350000D03*
X173220000Y-137350000D03*
X175760000Y-137350000D03*
X178300000Y-137350000D03*
X180840000Y-137350000D03*
X183380000Y-137350000D03*
X185920000Y-137350000D03*
X188460000Y-137350000D03*
X191000000Y-137350000D03*
X191000000Y-122110000D03*
X188460000Y-122110000D03*
X185920000Y-122110000D03*
X183380000Y-122110000D03*
X180840000Y-122110000D03*
X178300000Y-122110000D03*
X175760000Y-122110000D03*
X173220000Y-122110000D03*
X170680000Y-122110000D03*
X168140000Y-122110000D03*
X165600000Y-122110000D03*
X163060000Y-122110000D03*
X160520000Y-122110000D03*
X157980000Y-122110000D03*
X155440000Y-122110000D03*
X152900000Y-122110000D03*
X150360000Y-122110000D03*
X147820000Y-122110000D03*
X145280000Y-122110000D03*
X142740000Y-122110000D03*
%TD*%
D23*
%TO.C,R9*%
X176832000Y-26196000D03*
X176832000Y-24696000D03*
%TD*%
D13*
%TO.C,C13*%
X209920000Y-57635000D03*
X209920000Y-56235000D03*
%TD*%
D19*
%TO.C,R15*%
X183717000Y-140530000D03*
X180757000Y-140530000D03*
%TD*%
D12*
%TO.C,R28*%
X233460000Y-115095000D03*
X233460000Y-112135000D03*
%TD*%
D14*
%TO.C,BZ1*%
X187200000Y-60500000D03*
D35*
X194800000Y-60500000D03*
%TD*%
D15*
%TO.C,U47*%
X233540000Y-139040000D03*
X234810000Y-139040000D03*
X236080000Y-139040000D03*
X237350000Y-139040000D03*
X238620000Y-139040000D03*
X239890000Y-139040000D03*
X241160000Y-139040000D03*
X241160000Y-133500000D03*
X239890000Y-133500000D03*
X238620000Y-133500000D03*
X237350000Y-133500000D03*
X236080000Y-133500000D03*
X234810000Y-133500000D03*
X233540000Y-133500000D03*
%TD*%
D12*
%TO.C,R44*%
X101620000Y-37480000D03*
X101620000Y-34520000D03*
%TD*%
D36*
%TO.C,U101*%
X145220000Y-48870000D03*
X145870000Y-48870000D03*
X146520000Y-48870000D03*
X147180000Y-48870000D03*
X147830000Y-48870000D03*
X148480000Y-48870000D03*
X149130000Y-48870000D03*
X149780000Y-48870000D03*
X149780000Y-43130000D03*
X149130000Y-43130000D03*
X148480000Y-43130000D03*
X147830000Y-43130000D03*
X147180000Y-43130000D03*
X146520000Y-43130000D03*
X145870000Y-43130000D03*
X145220000Y-43130000D03*
%TD*%
D12*
%TO.C,R25*%
X236000000Y-115095000D03*
X236000000Y-112135000D03*
%TD*%
D13*
%TO.C,C65*%
X114119000Y-116275000D03*
X114119000Y-114875000D03*
%TD*%
D37*
%TO.C,OSC3*%
X212460000Y-59100000D03*
X217540000Y-59100000D03*
X217540000Y-54900000D03*
X212460000Y-54900000D03*
%TD*%
D28*
%TO.C,MH4*%
X260800000Y-27600000D03*
%TD*%
D13*
%TO.C,C22*%
X207700000Y-107300000D03*
X207700000Y-108700000D03*
%TD*%
D29*
%TO.C,LED4*%
X139254000Y-24755000D03*
X139254000Y-26855000D03*
%TD*%
D13*
%TO.C,C54*%
X107204000Y-46700000D03*
X107204000Y-45300000D03*
%TD*%
D38*
%TO.C,U3*%
X186030000Y-114680000D03*
X186580000Y-114680000D03*
X187130000Y-114680000D03*
X187680000Y-114680000D03*
X188230000Y-114680000D03*
X188780000Y-114680000D03*
X189330000Y-114680000D03*
X189330000Y-101820000D03*
X188780000Y-101820000D03*
X188230000Y-101820000D03*
X187680000Y-101820000D03*
X187130000Y-101820000D03*
X186580000Y-101820000D03*
X186030000Y-101820000D03*
X185470000Y-101820000D03*
X184920000Y-101820000D03*
X184370000Y-101820000D03*
X183820000Y-101820000D03*
X183270000Y-101820000D03*
X182720000Y-101820000D03*
X182170000Y-101820000D03*
X182180000Y-114680000D03*
X182730000Y-114680000D03*
X183280000Y-114680000D03*
X183830000Y-114680000D03*
X184380000Y-114680000D03*
X184930000Y-114680000D03*
X185480000Y-114680000D03*
%TD*%
D18*
%TO.C,R10*%
X180610000Y-65580000D03*
X180610000Y-55420000D03*
%TD*%
D25*
%TO.C,MH5*%
X21000000Y-58400000D03*
%TD*%
%TO.C,MH6*%
X82720000Y-135000000D03*
%TD*%
D23*
%TO.C,R2*%
X149414000Y-24709000D03*
X149414000Y-26209000D03*
%TD*%
D32*
%TO.C,U24*%
X247900000Y-130570000D03*
X249170000Y-130570000D03*
X250440000Y-130570000D03*
X251710000Y-130570000D03*
X252990000Y-130570000D03*
X254250000Y-130570000D03*
X255520000Y-130570000D03*
X256790000Y-130570000D03*
X258060000Y-130570000D03*
X259330000Y-130570000D03*
X259330000Y-123430000D03*
X258060000Y-123430000D03*
X256790000Y-123430000D03*
X255520000Y-123430000D03*
X254250000Y-123430000D03*
X252990000Y-123430000D03*
X251710000Y-123430000D03*
X250440000Y-123430000D03*
X249170000Y-123430000D03*
X247900000Y-123430000D03*
%TD*%
D33*
%TO.C,U13*%
X230530000Y-95870000D03*
X231180000Y-95870000D03*
X231830000Y-95870000D03*
X232480000Y-95870000D03*
X233140000Y-95870000D03*
X233790000Y-95870000D03*
X234440000Y-95870000D03*
X235090000Y-95870000D03*
X235740000Y-95870000D03*
X236390000Y-95870000D03*
X236390000Y-90130000D03*
X235740000Y-90130000D03*
X235090000Y-90130000D03*
X234440000Y-90130000D03*
X233790000Y-90130000D03*
X233140000Y-90130000D03*
X232480000Y-90130000D03*
X231830000Y-90130000D03*
X231180000Y-90130000D03*
X230530000Y-90130000D03*
%TD*%
D39*
%TO.C,C71*%
X138442000Y-133456000D03*
X135122000Y-133456000D03*
%TD*%
D26*
%TO.C,U23*%
X249050000Y-116740000D03*
X250320000Y-116740000D03*
X251590000Y-116740000D03*
X252870000Y-116740000D03*
X254130000Y-116740000D03*
X255400000Y-116740000D03*
X256670000Y-116740000D03*
X257940000Y-116740000D03*
X257940000Y-111260000D03*
X256670000Y-111260000D03*
X255400000Y-111260000D03*
X254130000Y-111260000D03*
X252870000Y-111260000D03*
X251590000Y-111260000D03*
X250320000Y-111260000D03*
X249050000Y-111260000D03*
%TD*%
D13*
%TO.C,C78*%
X222852000Y-80393000D03*
X222852000Y-78993000D03*
%TD*%
%TO.C,C44*%
X103000000Y-70200000D03*
X103000000Y-68800000D03*
%TD*%
%TO.C,C15*%
X33280000Y-31400000D03*
X33280000Y-30000000D03*
%TD*%
D26*
%TO.C,U46*%
X165795000Y-65490000D03*
X167065000Y-65490000D03*
X168335000Y-65490000D03*
X169615000Y-65490000D03*
X170875000Y-65490000D03*
X172145000Y-65490000D03*
X173415000Y-65490000D03*
X174685000Y-65490000D03*
X174685000Y-60010000D03*
X173415000Y-60010000D03*
X172145000Y-60010000D03*
X170875000Y-60010000D03*
X169615000Y-60010000D03*
X168335000Y-60010000D03*
X167065000Y-60010000D03*
X165795000Y-60010000D03*
%TD*%
D13*
%TO.C,C46*%
X91009000Y-58649000D03*
X91009000Y-57249000D03*
%TD*%
%TO.C,C31*%
X246000000Y-127762000D03*
X246000000Y-126362000D03*
%TD*%
D39*
%TO.C,C73*%
X138442000Y-140456000D03*
X135122000Y-140456000D03*
%TD*%
D29*
%TO.C,LED1*%
X151446000Y-24721000D03*
X151446000Y-26821000D03*
%TD*%
D40*
%TO.C,U27*%
X151940000Y-65480000D03*
X153210000Y-65480000D03*
X154480000Y-65480000D03*
X155750000Y-65480000D03*
X157020000Y-65480000D03*
X158290000Y-65480000D03*
X159560000Y-65480000D03*
X159560000Y-60020000D03*
X158290000Y-60020000D03*
X157020000Y-60020000D03*
X155750000Y-60020000D03*
X154480000Y-60020000D03*
X153210000Y-60020000D03*
X151940000Y-60020000D03*
%TD*%
D14*
%TO.C,TP6*%
X152750000Y-54250000D03*
%TD*%
D12*
%TO.C,R53*%
X227500000Y-125480000D03*
X227500000Y-122520000D03*
%TD*%
D19*
%TO.C,R51*%
X124670500Y-52845500D03*
X121710500Y-52845500D03*
%TD*%
D27*
%TO.C,OSC1*%
X142090000Y-78560000D03*
D18*
X149710000Y-78560000D03*
X149710000Y-70940000D03*
X142090000Y-70940000D03*
%TD*%
D13*
%TO.C,C48*%
X202690000Y-78450000D03*
X202690000Y-77050000D03*
%TD*%
D41*
%TO.C,C14*%
X215000000Y-76000000D03*
X215000000Y-79320000D03*
%TD*%
D13*
%TO.C,C8*%
X185500000Y-84800000D03*
X185500000Y-86200000D03*
%TD*%
%TO.C,C17*%
X57280000Y-31400000D03*
X57280000Y-30000000D03*
%TD*%
D33*
%TO.C,U32*%
X93005000Y-72480000D03*
X93655000Y-72480000D03*
X94305000Y-72480000D03*
X94955000Y-72480000D03*
X95615000Y-72480000D03*
X96265000Y-72480000D03*
X96915000Y-72480000D03*
X97565000Y-72480000D03*
X98215000Y-72480000D03*
X98865000Y-72480000D03*
X98865000Y-66740000D03*
X98215000Y-66740000D03*
X97565000Y-66740000D03*
X96915000Y-66740000D03*
X96265000Y-66740000D03*
X95615000Y-66740000D03*
X94955000Y-66740000D03*
X94305000Y-66740000D03*
X93655000Y-66740000D03*
X93005000Y-66740000D03*
%TD*%
D19*
%TO.C,R36*%
X113421000Y-83523000D03*
X116381000Y-83523000D03*
%TD*%
D12*
%TO.C,R33*%
X223250000Y-88520000D03*
X223250000Y-91480000D03*
%TD*%
D11*
%TO.C,C23*%
X118708000Y-83142000D03*
X120108000Y-83142000D03*
%TD*%
D12*
%TO.C,R49*%
X91460000Y-34520000D03*
X91460000Y-37480000D03*
%TD*%
D14*
%TO.C,TP4*%
X145750000Y-54250000D03*
%TD*%
D12*
%TO.C,R45*%
X99080000Y-37480000D03*
X99080000Y-34520000D03*
%TD*%
D14*
%TO.C,TP13*%
X101400000Y-141400000D03*
%TD*%
D24*
%TO.C,J7*%
X257650000Y-52700000D03*
D21*
X260190000Y-52700000D03*
%TD*%
D29*
%TO.C,LED3*%
X143318000Y-24767000D03*
X143318000Y-26867000D03*
%TD*%
D32*
%TO.C,U35*%
X93675000Y-98870000D03*
X94945000Y-98870000D03*
X96215000Y-98870000D03*
X97485000Y-98870000D03*
X98765000Y-98870000D03*
X100025000Y-98870000D03*
X101295000Y-98870000D03*
X102565000Y-98870000D03*
X103835000Y-98870000D03*
X105105000Y-98870000D03*
X105105000Y-91730000D03*
X103835000Y-91730000D03*
X102565000Y-91730000D03*
X101295000Y-91730000D03*
X100025000Y-91730000D03*
X98765000Y-91730000D03*
X97485000Y-91730000D03*
X96215000Y-91730000D03*
X94945000Y-91730000D03*
X93675000Y-91730000D03*
%TD*%
D23*
%TO.C,R50*%
X192100000Y-24662000D03*
X192100000Y-26162000D03*
%TD*%
D13*
%TO.C,C36*%
X126825000Y-75278000D03*
X126825000Y-73878000D03*
%TD*%
D11*
%TO.C,C4*%
X207300000Y-131010000D03*
X208700000Y-131010000D03*
%TD*%
D32*
%TO.C,U11*%
X247920000Y-104070000D03*
X249190000Y-104070000D03*
X250460000Y-104070000D03*
X251730000Y-104070000D03*
X253010000Y-104070000D03*
X254270000Y-104070000D03*
X255540000Y-104070000D03*
X256810000Y-104070000D03*
X258080000Y-104070000D03*
X259350000Y-104070000D03*
X259350000Y-96930000D03*
X258080000Y-96930000D03*
X256810000Y-96930000D03*
X255540000Y-96930000D03*
X254270000Y-96930000D03*
X253010000Y-96930000D03*
X251730000Y-96930000D03*
X250460000Y-96930000D03*
X249190000Y-96930000D03*
X247920000Y-96930000D03*
%TD*%
D42*
%TO.C,P1*%
X53467000Y-152781000D03*
D43*
X57150000Y-152781000D03*
X60325000Y-152781000D03*
X63500000Y-152781000D03*
X66675000Y-152781000D03*
X69850000Y-152781000D03*
X73025000Y-152781000D03*
X76200000Y-152781000D03*
X79375000Y-152781000D03*
X82550000Y-152781000D03*
X85725000Y-152781000D03*
X88900000Y-152781000D03*
X92075000Y-152781000D03*
X95250000Y-152781000D03*
X98425000Y-152781000D03*
X101600000Y-152781000D03*
X104775000Y-152781000D03*
X107950000Y-152781000D03*
X111125000Y-152781000D03*
X114300000Y-152781000D03*
X117475000Y-152781000D03*
X120650000Y-152781000D03*
X123825000Y-152781000D03*
X127000000Y-152781000D03*
X130175000Y-152781000D03*
X133350000Y-152781000D03*
X136525000Y-152781000D03*
X139700000Y-152781000D03*
X142875000Y-152781000D03*
X146050000Y-152781000D03*
X149225000Y-152781000D03*
X152400000Y-152781000D03*
X155575000Y-152781000D03*
X158750000Y-152781000D03*
X161925000Y-152781000D03*
X165100000Y-152781000D03*
X168275000Y-152781000D03*
X171450000Y-152781000D03*
X174625000Y-152781000D03*
X177800000Y-152781000D03*
X180975000Y-152781000D03*
X184150000Y-152781000D03*
X187325000Y-152781000D03*
X190500000Y-152781000D03*
X193675000Y-152781000D03*
X196850000Y-152781000D03*
X200025000Y-152781000D03*
X203200000Y-152781000D03*
X206375000Y-152781000D03*
D42*
X210058000Y-152781000D03*
%TD*%
D13*
%TO.C,C28*%
X209935000Y-122480000D03*
X209935000Y-121080000D03*
%TD*%
D23*
%TO.C,R31*%
X188036000Y-24662000D03*
X188036000Y-26162000D03*
%TD*%
D12*
%TO.C,R47*%
X94000000Y-34520000D03*
X94000000Y-37480000D03*
%TD*%
D32*
%TO.C,U9*%
X247920000Y-78070000D03*
X249190000Y-78070000D03*
X250460000Y-78070000D03*
X251730000Y-78070000D03*
X253010000Y-78070000D03*
X254270000Y-78070000D03*
X255540000Y-78070000D03*
X256810000Y-78070000D03*
X258080000Y-78070000D03*
X259350000Y-78070000D03*
X259350000Y-70930000D03*
X258080000Y-70930000D03*
X256810000Y-70930000D03*
X255540000Y-70930000D03*
X254270000Y-70930000D03*
X253010000Y-70930000D03*
X251730000Y-70930000D03*
X250460000Y-70930000D03*
X249190000Y-70930000D03*
X247920000Y-70930000D03*
%TD*%
D44*
%TO.C,U48*%
X123502000Y-141526000D03*
D45*
X125782000Y-131456000D03*
D44*
X128062000Y-141526000D03*
%TD*%
D26*
%TO.C,U22*%
X115150000Y-92740000D03*
X116420000Y-92740000D03*
X117690000Y-92740000D03*
X118970000Y-92740000D03*
X120230000Y-92740000D03*
X121500000Y-92740000D03*
X122770000Y-92740000D03*
X124040000Y-92740000D03*
X124040000Y-87260000D03*
X122770000Y-87260000D03*
X121500000Y-87260000D03*
X120230000Y-87260000D03*
X118970000Y-87260000D03*
X117690000Y-87260000D03*
X116420000Y-87260000D03*
X115150000Y-87260000D03*
%TD*%
D14*
%TO.C,TP8*%
X247750000Y-137750000D03*
%TD*%
D25*
%TO.C,MH7*%
X82720000Y-58400000D03*
%TD*%
D12*
%TO.C,R18*%
X109000000Y-57000000D03*
X109000000Y-59960000D03*
%TD*%
%TO.C,R27*%
X238540000Y-115095000D03*
X238540000Y-112135000D03*
%TD*%
D17*
%TO.C,RP1*%
X155000000Y-49320000D03*
D18*
X157540000Y-49320000D03*
X160080000Y-49320000D03*
X162620000Y-49320000D03*
X165160000Y-49320000D03*
X167700000Y-49320000D03*
X170240000Y-49320000D03*
X172780000Y-49320000D03*
X172780000Y-41700000D03*
X170240000Y-41700000D03*
X167700000Y-41700000D03*
X165160000Y-41700000D03*
X162620000Y-41700000D03*
X160080000Y-41700000D03*
X157540000Y-41700000D03*
X155000000Y-41700000D03*
%TD*%
D13*
%TO.C,C52*%
X209848000Y-105445000D03*
X209848000Y-104045000D03*
%TD*%
%TO.C,C51*%
X149913000Y-63426000D03*
X149913000Y-62026000D03*
%TD*%
D23*
%TO.C,R5*%
X160590000Y-24733000D03*
X160590000Y-26233000D03*
%TD*%
D26*
%TO.C,U102*%
X187550000Y-88240000D03*
X188820000Y-88240000D03*
X190090000Y-88240000D03*
X191370000Y-88240000D03*
X192630000Y-88240000D03*
X193900000Y-88240000D03*
X195170000Y-88240000D03*
X196440000Y-88240000D03*
X196440000Y-82760000D03*
X195170000Y-82760000D03*
X193900000Y-82760000D03*
X192630000Y-82760000D03*
X191370000Y-82760000D03*
X190090000Y-82760000D03*
X188820000Y-82760000D03*
X187550000Y-82760000D03*
%TD*%
D13*
%TO.C,C27*%
X241700000Y-46270000D03*
X241700000Y-44870000D03*
%TD*%
D17*
%TO.C,U2*%
X142740000Y-115370000D03*
D18*
X145280000Y-115370000D03*
X147820000Y-115370000D03*
X150360000Y-115370000D03*
X152900000Y-115370000D03*
X155440000Y-115370000D03*
X157980000Y-115370000D03*
X160520000Y-115370000D03*
X163060000Y-115370000D03*
X165600000Y-115370000D03*
X168140000Y-115370000D03*
X170680000Y-115370000D03*
X173220000Y-115370000D03*
X175760000Y-115370000D03*
X175760000Y-100130000D03*
X173220000Y-100130000D03*
X170680000Y-100130000D03*
X168140000Y-100130000D03*
X165600000Y-100130000D03*
X163060000Y-100130000D03*
X160520000Y-100130000D03*
X157980000Y-100130000D03*
X155440000Y-100130000D03*
X152900000Y-100130000D03*
X150360000Y-100130000D03*
X147820000Y-100130000D03*
X145280000Y-100130000D03*
X142740000Y-100130000D03*
%TD*%
D29*
%TO.C,LED11*%
X181940000Y-24650000D03*
X181940000Y-26750000D03*
%TD*%
D13*
%TO.C,C40*%
X163763000Y-62082000D03*
X163763000Y-63482000D03*
%TD*%
D23*
%TO.C,R4*%
X141286000Y-24789000D03*
X141286000Y-26289000D03*
%TD*%
D25*
%TO.C,MH8*%
X21000000Y-135000000D03*
%TD*%
D26*
%TO.C,U103*%
X206230000Y-138980000D03*
X207500000Y-138980000D03*
X208770000Y-138980000D03*
X210050000Y-138980000D03*
X211310000Y-138980000D03*
X212580000Y-138980000D03*
X213850000Y-138980000D03*
X215120000Y-138980000D03*
X215120000Y-133500000D03*
X213850000Y-133500000D03*
X212580000Y-133500000D03*
X211310000Y-133500000D03*
X210050000Y-133500000D03*
X208770000Y-133500000D03*
X207500000Y-133500000D03*
X206230000Y-133500000D03*
%TD*%
D13*
%TO.C,C1*%
X143568000Y-45362000D03*
X143568000Y-46762000D03*
%TD*%
D14*
%TO.C,TP11*%
X94400000Y-141400000D03*
%TD*%
D13*
%TO.C,C57*%
X127965000Y-90708000D03*
X127965000Y-89308000D03*
%TD*%
D11*
%TO.C,C11*%
X136650000Y-80850000D03*
X138050000Y-80850000D03*
%TD*%
D15*
%TO.C,U7*%
X220690000Y-139010000D03*
X221960000Y-139010000D03*
X223230000Y-139010000D03*
X224500000Y-139010000D03*
X225770000Y-139010000D03*
X227040000Y-139010000D03*
X228310000Y-139010000D03*
X228310000Y-133470000D03*
X227040000Y-133470000D03*
X225770000Y-133470000D03*
X224500000Y-133470000D03*
X223230000Y-133470000D03*
X221960000Y-133470000D03*
X220690000Y-133470000D03*
%TD*%
D13*
%TO.C,C76*%
X210540000Y-67200000D03*
X210540000Y-65800000D03*
%TD*%
D14*
%TO.C,TP2*%
X138750000Y-54250000D03*
%TD*%
D12*
%TO.C,R24*%
X230920000Y-115095000D03*
X230920000Y-112135000D03*
%TD*%
D17*
%TO.C,U14*%
X116810000Y-105380000D03*
D18*
X119350000Y-105380000D03*
X121890000Y-105380000D03*
X124430000Y-105380000D03*
X126970000Y-105380000D03*
X129510000Y-105380000D03*
X132050000Y-105380000D03*
X134590000Y-105380000D03*
X134590000Y-97760000D03*
X132050000Y-97760000D03*
X129510000Y-97760000D03*
X126970000Y-97760000D03*
X124430000Y-97760000D03*
X121890000Y-97760000D03*
X119350000Y-97760000D03*
X116810000Y-97760000D03*
%TD*%
D13*
%TO.C,C75*%
X139505000Y-87400000D03*
X139505000Y-88800000D03*
%TD*%
D29*
%TO.C,LED7*%
X166686000Y-24687000D03*
X166686000Y-26787000D03*
%TD*%
D19*
%TO.C,R40*%
X218186000Y-110421500D03*
X215226000Y-110421500D03*
%TD*%
D24*
%TO.C,J5*%
X95460000Y-114250000D03*
D21*
X98000000Y-114250000D03*
X100540000Y-114250000D03*
%TD*%
D15*
%TO.C,U43*%
X97477500Y-48770000D03*
X98747500Y-48770000D03*
X100017500Y-48770000D03*
X101287500Y-48770000D03*
X102557500Y-48770000D03*
X103827500Y-48770000D03*
X105097500Y-48770000D03*
X105097500Y-43230000D03*
X103827500Y-43230000D03*
X102557500Y-43230000D03*
X101287500Y-43230000D03*
X100017500Y-43230000D03*
X98747500Y-43230000D03*
X97477500Y-43230000D03*
%TD*%
D13*
%TO.C,C61*%
X115050000Y-70200000D03*
X115050000Y-68800000D03*
%TD*%
%TO.C,C30*%
X247145000Y-114700000D03*
X247145000Y-113300000D03*
%TD*%
D12*
%TO.C,R13*%
X204000000Y-128030000D03*
X204000000Y-130990000D03*
%TD*%
D13*
%TO.C,C45*%
X91271000Y-83137000D03*
X91271000Y-81737000D03*
%TD*%
D12*
%TO.C,R23*%
X225840000Y-115095000D03*
X225840000Y-112135000D03*
%TD*%
D36*
%TO.C,U29*%
X204220000Y-80625000D03*
X204870000Y-80625000D03*
X205520000Y-80625000D03*
X206180000Y-80625000D03*
X206830000Y-80625000D03*
X207480000Y-80625000D03*
X208130000Y-80625000D03*
X208780000Y-80625000D03*
X208780000Y-74885000D03*
X208130000Y-74885000D03*
X207480000Y-74885000D03*
X206830000Y-74885000D03*
X206180000Y-74885000D03*
X205520000Y-74885000D03*
X204870000Y-74885000D03*
X204220000Y-74885000D03*
%TD*%
D13*
%TO.C,C67*%
X248640000Y-88383000D03*
X248640000Y-86983000D03*
%TD*%
D32*
%TO.C,U34*%
X93425000Y-86120000D03*
X94695000Y-86120000D03*
X95965000Y-86120000D03*
X97235000Y-86120000D03*
X98515000Y-86120000D03*
X99775000Y-86120000D03*
X101045000Y-86120000D03*
X102315000Y-86120000D03*
X103585000Y-86120000D03*
X104855000Y-86120000D03*
X104855000Y-78980000D03*
X103585000Y-78980000D03*
X102315000Y-78980000D03*
X101045000Y-78980000D03*
X99775000Y-78980000D03*
X98515000Y-78980000D03*
X97235000Y-78980000D03*
X95965000Y-78980000D03*
X94695000Y-78980000D03*
X93425000Y-78980000D03*
%TD*%
D13*
%TO.C,C18*%
X33280000Y-26300000D03*
X33280000Y-27700000D03*
%TD*%
D41*
%TO.C,C12*%
X118250000Y-56340000D03*
X118250000Y-59660000D03*
%TD*%
D12*
%TO.C,R32*%
X220000000Y-91480000D03*
X220000000Y-88520000D03*
%TD*%
D20*
%TO.C,J4*%
X129780000Y-26460000D03*
D21*
X129780000Y-29000000D03*
X127240000Y-26460000D03*
X127240000Y-29000000D03*
X124700000Y-26460000D03*
X124700000Y-29000000D03*
X122160000Y-26460000D03*
X122160000Y-29000000D03*
X119620000Y-26460000D03*
X119620000Y-29000000D03*
X117080000Y-26460000D03*
X117080000Y-29000000D03*
X114540000Y-26460000D03*
X114540000Y-29000000D03*
X112000000Y-26460000D03*
X112000000Y-29000000D03*
X109460000Y-26460000D03*
X109460000Y-29000000D03*
X106920000Y-26460000D03*
X106920000Y-29000000D03*
X104380000Y-26460000D03*
X104380000Y-29000000D03*
X101840000Y-26460000D03*
X101840000Y-29000000D03*
X99300000Y-26460000D03*
X99300000Y-29000000D03*
X96760000Y-26460000D03*
X96760000Y-29000000D03*
X94220000Y-26460000D03*
X94220000Y-29000000D03*
X91680000Y-26460000D03*
X91680000Y-29000000D03*
X89140000Y-26460000D03*
X89140000Y-29000000D03*
X86600000Y-26460000D03*
X86600000Y-29000000D03*
X84060000Y-26460000D03*
X84060000Y-29000000D03*
X81520000Y-26460000D03*
X81520000Y-29000000D03*
%TD*%
D13*
%TO.C,C56*%
X136036000Y-63488000D03*
X136036000Y-62088000D03*
%TD*%
D17*
%TO.C,U37*%
X225900000Y-83620000D03*
D18*
X228440000Y-83620000D03*
X230980000Y-83620000D03*
X233520000Y-83620000D03*
X236060000Y-83620000D03*
X238600000Y-83620000D03*
X241140000Y-83620000D03*
X241140000Y-76000000D03*
X238600000Y-76000000D03*
X236060000Y-76000000D03*
X233520000Y-76000000D03*
X230980000Y-76000000D03*
X228440000Y-76000000D03*
X225900000Y-76000000D03*
%TD*%
D17*
%TO.C,U18*%
X201080000Y-49375000D03*
D18*
X203620000Y-49375000D03*
X206160000Y-49375000D03*
X208700000Y-49375000D03*
X211240000Y-49375000D03*
X213780000Y-49375000D03*
X216320000Y-49375000D03*
X216320000Y-41755000D03*
X213780000Y-41755000D03*
X211240000Y-41755000D03*
X208700000Y-41755000D03*
X206160000Y-41755000D03*
X203620000Y-41755000D03*
X201080000Y-41755000D03*
%TD*%
D17*
%TO.C,U16*%
X117040000Y-119445000D03*
D18*
X119580000Y-119445000D03*
X122120000Y-119445000D03*
X124660000Y-119445000D03*
X127200000Y-119445000D03*
X129740000Y-119445000D03*
X132280000Y-119445000D03*
X134820000Y-119445000D03*
X134820000Y-111825000D03*
X132280000Y-111825000D03*
X129740000Y-111825000D03*
X127200000Y-111825000D03*
X124660000Y-111825000D03*
X122120000Y-111825000D03*
X119580000Y-111825000D03*
X117040000Y-111825000D03*
%TD*%
D11*
%TO.C,C2*%
X188638000Y-79912000D03*
X190038000Y-79912000D03*
%TD*%
D46*
%TO.C,D1*%
X112810000Y-59955000D03*
X112810000Y-56575000D03*
%TD*%
D17*
%TO.C,U36*%
X225900000Y-69305000D03*
D18*
X228440000Y-69305000D03*
X230980000Y-69305000D03*
X233520000Y-69305000D03*
X236060000Y-69305000D03*
X238600000Y-69305000D03*
X241140000Y-69305000D03*
X241140000Y-61685000D03*
X238600000Y-61685000D03*
X236060000Y-61685000D03*
X233520000Y-61685000D03*
X230980000Y-61685000D03*
X228440000Y-61685000D03*
X225900000Y-61685000D03*
%TD*%
D17*
%TO.C,U19*%
X222950000Y-49320000D03*
D18*
X225490000Y-49320000D03*
X228030000Y-49320000D03*
X230570000Y-49320000D03*
X233110000Y-49320000D03*
X235650000Y-49320000D03*
X238190000Y-49320000D03*
X238190000Y-41700000D03*
X235650000Y-41700000D03*
X233110000Y-41700000D03*
X230570000Y-41700000D03*
X228030000Y-41700000D03*
X225490000Y-41700000D03*
X222950000Y-41700000D03*
%TD*%
D17*
%TO.C,U5*%
X36390000Y-32805000D03*
D18*
X38930000Y-32805000D03*
X41470000Y-32805000D03*
X44010000Y-32805000D03*
X46550000Y-32805000D03*
X49090000Y-32805000D03*
X51630000Y-32805000D03*
X54170000Y-32805000D03*
X54170000Y-25185000D03*
X51630000Y-25185000D03*
X49090000Y-25185000D03*
X46550000Y-25185000D03*
X44010000Y-25185000D03*
X41470000Y-25185000D03*
X38930000Y-25185000D03*
X36390000Y-25185000D03*
%TD*%
D11*
%TO.C,C10*%
X200850000Y-125010000D03*
X199450000Y-125010000D03*
%TD*%
D26*
%TO.C,U26*%
X128730000Y-77250000D03*
X130000000Y-77250000D03*
X131270000Y-77250000D03*
X132550000Y-77250000D03*
X133810000Y-77250000D03*
X135080000Y-77250000D03*
X136350000Y-77250000D03*
X137620000Y-77250000D03*
X137620000Y-71770000D03*
X136350000Y-71770000D03*
X135080000Y-71770000D03*
X133810000Y-71770000D03*
X132550000Y-71770000D03*
X131270000Y-71770000D03*
X130000000Y-71770000D03*
X128730000Y-71770000D03*
%TD*%
D47*
%TO.C,D3*%
X94908000Y-106250000D03*
D18*
X102528000Y-106250000D03*
%TD*%
D40*
%TO.C,U28*%
X211880000Y-107480000D03*
X213150000Y-107480000D03*
X214420000Y-107480000D03*
X215690000Y-107480000D03*
X216960000Y-107480000D03*
X218230000Y-107480000D03*
X219500000Y-107480000D03*
X219500000Y-102020000D03*
X218230000Y-102020000D03*
X216960000Y-102020000D03*
X215690000Y-102020000D03*
X214420000Y-102020000D03*
X213150000Y-102020000D03*
X211880000Y-102020000D03*
%TD*%
D29*
%TO.C,LED9*%
X174800000Y-24650000D03*
X174800000Y-26750000D03*
%TD*%
D13*
%TO.C,C53*%
X116058000Y-46676000D03*
X116058000Y-45276000D03*
%TD*%
D12*
%TO.C,R37*%
X127480500Y-60325500D03*
X127480500Y-57365500D03*
%TD*%
D25*
%TO.C,MH9*%
X21000000Y-116600000D03*
%TD*%
D12*
%TO.C,R29*%
X228380000Y-115095000D03*
X228380000Y-112135000D03*
%TD*%
D36*
%TO.C,U15*%
X91192500Y-48870000D03*
X91842500Y-48870000D03*
X92492500Y-48870000D03*
X93152500Y-48870000D03*
X93802500Y-48870000D03*
X94452500Y-48870000D03*
X95102500Y-48870000D03*
X95752500Y-48870000D03*
X95752500Y-43130000D03*
X95102500Y-43130000D03*
X94452500Y-43130000D03*
X93802500Y-43130000D03*
X93152500Y-43130000D03*
X92492500Y-43130000D03*
X91842500Y-43130000D03*
X91192500Y-43130000D03*
%TD*%
D22*
%TO.C,U104*%
X204550000Y-93050000D03*
X205200000Y-93050000D03*
X205850000Y-93050000D03*
X206500000Y-93050000D03*
X207150000Y-93050000D03*
X207800000Y-93050000D03*
X208450000Y-93050000D03*
X208450000Y-87450000D03*
X207800000Y-87450000D03*
X207150000Y-87450000D03*
X206500000Y-87450000D03*
X205850000Y-87450000D03*
X205200000Y-87450000D03*
X204550000Y-87450000D03*
%TD*%
D12*
%TO.C,R14*%
X218000000Y-131109200D03*
X218000000Y-128149200D03*
%TD*%
D32*
%TO.C,U8*%
X247920000Y-63570000D03*
X249190000Y-63570000D03*
X250460000Y-63570000D03*
X251730000Y-63570000D03*
X253010000Y-63570000D03*
X254270000Y-63570000D03*
X255540000Y-63570000D03*
X256810000Y-63570000D03*
X258080000Y-63570000D03*
X259350000Y-63570000D03*
X259350000Y-56430000D03*
X258080000Y-56430000D03*
X256810000Y-56430000D03*
X255540000Y-56430000D03*
X254270000Y-56430000D03*
X253010000Y-56430000D03*
X251730000Y-56430000D03*
X250460000Y-56430000D03*
X249190000Y-56430000D03*
X247920000Y-56430000D03*
%TD*%
D29*
%TO.C,LED12*%
X186004000Y-24616000D03*
X186004000Y-26716000D03*
%TD*%
D12*
%TO.C,R30*%
X126500000Y-83520000D03*
X126500000Y-86480000D03*
%TD*%
D13*
%TO.C,C47*%
X91368000Y-70310000D03*
X91368000Y-68910000D03*
%TD*%
%TO.C,C68*%
X245898000Y-101191000D03*
X245898000Y-99791000D03*
%TD*%
D33*
%TO.C,U10*%
X250710000Y-90370000D03*
X251360000Y-90370000D03*
X252010000Y-90370000D03*
X252660000Y-90370000D03*
X253320000Y-90370000D03*
X253970000Y-90370000D03*
X254620000Y-90370000D03*
X255270000Y-90370000D03*
X255920000Y-90370000D03*
X256570000Y-90370000D03*
X256570000Y-84630000D03*
X255920000Y-84630000D03*
X255270000Y-84630000D03*
X254620000Y-84630000D03*
X253970000Y-84630000D03*
X253320000Y-84630000D03*
X252660000Y-84630000D03*
X252010000Y-84630000D03*
X251360000Y-84630000D03*
X250710000Y-84630000D03*
%TD*%
D13*
%TO.C,C41*%
X89572500Y-45300000D03*
X89572500Y-46700000D03*
%TD*%
D40*
%TO.C,U30*%
X118085000Y-48730000D03*
X119355000Y-48730000D03*
X120625000Y-48730000D03*
X121895000Y-48730000D03*
X123165000Y-48730000D03*
X124435000Y-48730000D03*
X125705000Y-48730000D03*
X125705000Y-43270000D03*
X124435000Y-43270000D03*
X123165000Y-43270000D03*
X121895000Y-43270000D03*
X120625000Y-43270000D03*
X119355000Y-43270000D03*
X118085000Y-43270000D03*
%TD*%
D13*
%TO.C,C66*%
X113889000Y-102213000D03*
X113889000Y-100813000D03*
%TD*%
D14*
%TO.C,TP9*%
X130750000Y-36500000D03*
%TD*%
D24*
%TO.C,J6*%
X201225000Y-55500000D03*
D21*
X203765000Y-55500000D03*
%TD*%
D12*
%TO.C,R52*%
X230040000Y-122520000D03*
X230040000Y-125480000D03*
%TD*%
D48*
%TO.C,U50*%
X213090000Y-69210000D03*
X214370000Y-69210000D03*
X215630000Y-69210000D03*
X216900000Y-69210000D03*
X216900000Y-63790000D03*
X215630000Y-63790000D03*
X214370000Y-63790000D03*
X213090000Y-63790000D03*
%TD*%
D15*
%TO.C,U45*%
X117027500Y-72270000D03*
X118297500Y-72270000D03*
X119567500Y-72270000D03*
X120837500Y-72270000D03*
X122107500Y-72270000D03*
X123377500Y-72270000D03*
X124647500Y-72270000D03*
X124647500Y-66730000D03*
X123377500Y-66730000D03*
X122107500Y-66730000D03*
X120837500Y-66730000D03*
X119567500Y-66730000D03*
X118297500Y-66730000D03*
X117027500Y-66730000D03*
%TD*%
D23*
%TO.C,R3*%
X145350000Y-24789000D03*
X145350000Y-26289000D03*
%TD*%
D49*
%TO.C,Q1*%
X213500000Y-87970000D03*
D50*
X215000000Y-85250000D03*
D49*
X216500000Y-87970000D03*
%TD*%
D12*
%TO.C,R48*%
X104160000Y-34520000D03*
X104160000Y-37480000D03*
%TD*%
D22*
%TO.C,U38*%
X109445000Y-48800000D03*
X110095000Y-48800000D03*
X110745000Y-48800000D03*
X111395000Y-48800000D03*
X112045000Y-48800000D03*
X112695000Y-48800000D03*
X113345000Y-48800000D03*
X113345000Y-43200000D03*
X112695000Y-43200000D03*
X112045000Y-43200000D03*
X111395000Y-43200000D03*
X110745000Y-43200000D03*
X110095000Y-43200000D03*
X109445000Y-43200000D03*
%TD*%
D13*
%TO.C,C38*%
X139819000Y-107120000D03*
X139819000Y-108520000D03*
%TD*%
%TO.C,C55*%
X129536000Y-46676000D03*
X129536000Y-45276000D03*
%TD*%
D23*
%TO.C,R8*%
X172782000Y-24733000D03*
X172782000Y-26233000D03*
%TD*%
D12*
%TO.C,R39*%
X130020500Y-60325500D03*
X130020500Y-57365500D03*
%TD*%
D25*
%TO.C,MH10*%
X21000000Y-78300000D03*
%TD*%
D13*
%TO.C,C20*%
X126000000Y-89300000D03*
X126000000Y-90700000D03*
%TD*%
D31*
%TO.C,U41*%
X131050000Y-93300000D03*
X131700000Y-93300000D03*
X132350000Y-93300000D03*
X133000000Y-93300000D03*
X133650000Y-93300000D03*
X134300000Y-93300000D03*
X134950000Y-93300000D03*
X134950000Y-86700000D03*
X134300000Y-86700000D03*
X133650000Y-86700000D03*
X133000000Y-86700000D03*
X132350000Y-86700000D03*
X131700000Y-86700000D03*
X131050000Y-86700000D03*
%TD*%
M02*
