M48
; DRILL file {KiCad 9.0.6} date 2026-03-01T15:32:50-0600
; FORMAT={-:-/ absolute / metric / decimal}
; #@! TF.CreationDate,2026-03-01T15:32:50-06:00
; #@! TF.GenerationSoftware,Kicad,Pcbnew,9.0.6
; #@! TF.FileFunction,Plated,1,4,PTH
FMAT,2
METRIC
; #@! TA.AperFunction,Plated,PTH,ViaDrill
T1C0.300
; #@! TA.AperFunction,Plated,PTH,ViaDrill
T2C0.400
; #@! TA.AperFunction,Plated,PTH,ComponentDrill
T3C0.800
; #@! TA.AperFunction,Plated,PTH,ComponentDrill
T4C0.910
; #@! TA.AperFunction,Plated,PTH,ComponentDrill
T5C1.000
%
G90
G05
T1
X37.023Y-34.175
X38.7Y-28.2
X38.8Y-34.9
X55.964Y-43.851
X57.601Y-148.447
X58.737Y-150.397
X63.747Y-44.482
X68.071Y-44.51
X78.828Y-45.157
X84.825Y-75.239
X90.53Y-60.64
X90.55Y-71.83
X91.22Y-50.243
X91.4Y-45.8
X91.46Y-36.371
X92.52Y-50.251
X92.616Y-51.487
X92.627Y-47.502
X93.152Y-45.306
X93.265Y-44.501
X93.608Y-81.6
X93.715Y-69.809
X93.718Y-36.316
X94.258Y-63.582
X94.415Y-65.358
X94.513Y-50.898
X94.707Y-97.24
X94.71Y-77.359
X94.74Y-90.107
X94.882Y-52.121
X94.936Y-74.662
X94.99Y-64.794
X95.412Y-63.062
X95.587Y-55.979
X95.612Y-68.342
X95.926Y-71.046
X95.988Y-83.265
X96.278Y-77.038
X96.441Y-74.985
X96.514Y-47.137
X96.818Y-68.697
X96.819Y-59.729
X96.834Y-65.024
X96.9Y-44.9
X97.086Y-36.117
X97.181Y-48.695
X97.235Y-84.485
X97.354Y-56.401
X97.595Y-69.06
X97.951Y-76.338
X98.0Y-50.8
X98.368Y-36.252
X98.45Y-77.351
X98.542Y-83.843
X98.702Y-97.25
X98.709Y-90.098
X98.816Y-68.126
X98.864Y-60.024
X98.865Y-65.325
X99.401Y-49.323
X99.583Y-83.198
X99.674Y-65.202
X99.8Y-71.251
X99.956Y-97.234
X100.51Y-50.168
X100.933Y-56.51
X101.191Y-47.434
X101.207Y-35.982
X101.295Y-93.902
X101.3Y-70.9
X101.4Y-72.6
X101.419Y-84.516
X101.579Y-59.752
X101.62Y-38.601
X102.057Y-63.499
X102.137Y-32.922
X102.417Y-44.563
X102.521Y-55.983
X102.744Y-90.048
X102.811Y-84.644
X102.935Y-76.847
X103.047Y-64.457
X103.235Y-50.185
X103.455Y-52.728
X103.632Y-46.103
X103.76Y-44.966
X103.785Y-72.37
X103.953Y-59.99
X104.16Y-38.591
X104.231Y-81.388
X104.332Y-90.246
X104.645Y-65.054
X104.665Y-63.512
X105.22Y-69.663
X105.398Y-33.478
X105.655Y-89.451
X105.729Y-64.421
X106.0Y-61.5
X106.096Y-69.722
X106.315Y-58.378
X106.52Y-70.992
X106.804Y-129.118
X106.812Y-57.515
X106.852Y-91.823
X107.086Y-64.484
X107.18Y-74.182
X107.4Y-50.2
X107.407Y-70.996
X107.663Y-65.067
X108.233Y-70.976
X108.5Y-46.5
X108.549Y-84.157
X108.943Y-70.252
X109.001Y-50.305
X109.108Y-65.241
X109.78Y-64.416
X109.845Y-37.018
X110.861Y-33.035
X110.993Y-65.044
X111.689Y-31.637
X112.486Y-41.59
X112.729Y-50.174
X113.2Y-47.339
X114.332Y-93.084
X115.119Y-104.941
X115.2Y-47.7
X115.657Y-73.427
X115.667Y-57.106
X116.782Y-74.047
X117.288Y-48.4
X117.385Y-65.343
X117.6Y-73.657
X118.768Y-70.935
X118.8Y-46.1
X119.23Y-85.769
X119.535Y-91.478
X119.669Y-94.002
X120.89Y-36.242
X120.907Y-67.469
X121.062Y-79.004
X121.487Y-69.236
X122.0Y-55.2
X122.581Y-78.382
X122.77Y-47.263
X123.9Y-89.7
X125.7Y-92.7
X127.4Y-46.9
X129.558Y-74.734
X130.043Y-75.76
X130.198Y-48.651
X130.348Y-93.586
X130.359Y-92.082
X131.357Y-24.047
X131.375Y-57.021
X131.558Y-95.011
X131.776Y-50.633
X131.78Y-52.41
X131.942Y-54.456
X132.387Y-55.164
X132.55Y-70.26
X132.811Y-26.484
X133.141Y-44.755
X133.423Y-88.733
X133.596Y-41.632
X133.659Y-23.375
X133.719Y-84.44
X134.004Y-91.358
X134.6Y-108.1
X135.208Y-90.745
X135.462Y-29.718
X136.039Y-47.377
X136.049Y-44.565
X136.062Y-53.384
X136.734Y-132.311
X136.88Y-53.271
X136.95Y-101.955
X137.198Y-44.859
X137.39Y-66.432
X137.743Y-47.059
X138.13Y-41.692
X138.3Y-92.7
X138.8Y-83.3
X140.076Y-101.891
X140.107Y-44.258
X141.025Y-61.786
X142.13Y-67.043
X142.444Y-58.547
X142.735Y-107.094
X143.2Y-70.0
X143.304Y-58.444
X143.421Y-124.315
X143.91Y-67.279
X144.1Y-119.4
X144.39Y-63.658
X144.535Y-48.185
X144.988Y-61.616
X145.726Y-46.126
X146.105Y-47.493
X146.97Y-135.037
X147.09Y-63.245
X147.638Y-47.502
X147.83Y-41.762
X148.48Y-47.488
X150.859Y-80.346
X150.995Y-104.25
X151.141Y-65.743
X151.612Y-63.053
X151.8Y-69.2
X152.483Y-64.201
X153.207Y-72.648
X153.595Y-75.106
X154.416Y-24.662
X155.03Y-61.31
X156.6Y-76.6
X156.979Y-62.769
X158.121Y-63.811
X159.435Y-117.554
X159.718Y-103.269
X159.8Y-75.2
X160.477Y-84.435
X160.884Y-113.895
X161.843Y-75.118
X162.1Y-63.5
X162.632Y-107.493
X162.991Y-76.167
X163.454Y-67.989
X163.55Y-69.025
X163.862Y-76.197
X164.608Y-87.661
X164.623Y-60.645
X165.24Y-84.889
X165.873Y-63.812
X165.9Y-109.0
X167.345Y-63.998
X168.823Y-105.54
X168.979Y-84.285
X169.017Y-77.461
X169.055Y-61.272
X169.425Y-27.092
X169.709Y-70.952
X169.933Y-75.188
X170.196Y-35.962
X170.3Y-70.21
X171.331Y-72.566
X171.574Y-98.313
X172.26Y-78.399
X172.686Y-96.074
X173.222Y-33.008
X173.7Y-110.0
X174.554Y-31.109
X175.744Y-30.097
X176.449Y-77.677
X176.685Y-71.412
X176.82Y-31.338
X176.832Y-29.622
X177.1Y-118.2
X177.523Y-105.328
X178.629Y-67.371
X179.449Y-108.88
X180.528Y-102.04
X181.085Y-113.877
X181.11Y-32.768
X182.501Y-33.12
X182.721Y-100.578
X183.478Y-94.524
X183.525Y-103.064
X184.01Y-100.59
X184.3Y-105.1
X185.132Y-112.526
X185.258Y-98.964
X185.47Y-100.332
X186.3Y-116.1
X186.508Y-107.231
X186.873Y-113.442
X187.015Y-107.862
X187.102Y-117.398
X187.182Y-29.267
X187.243Y-100.584
X187.6Y-86.5
X187.681Y-115.927
X188.445Y-55.02
X188.533Y-107.983
X189.334Y-107.983
X189.775Y-78.172
X189.989Y-114.68
X190.544Y-34.541
X190.909Y-108.776
X191.18Y-86.738
X191.31Y-23.872
X195.17Y-81.27
X198.07Y-105.664
X199.4Y-94.1
X199.521Y-86.557
X199.8Y-81.4
X200.245Y-99.848
X200.984Y-109.399
X201.97Y-109.995
X203.213Y-63.206
X203.76Y-88.343
X203.793Y-116.273
X204.22Y-81.992
X204.749Y-91.103
X204.904Y-104.291
X205.415Y-53.531
X205.433Y-72.998
X205.446Y-95.755
X205.52Y-82.074
X205.6Y-62.64
X205.8Y-91.681
X205.8Y-67.1
X206.014Y-71.602
X206.285Y-137.476
X206.618Y-95.386
X206.948Y-62.636
X207.136Y-81.993
X207.225Y-79.228
X207.352Y-85.519
X207.363Y-104.257
X207.384Y-44.999
X207.666Y-91.22
X208.483Y-45.452
X208.677Y-85.392
X208.842Y-78.417
X209.165Y-86.705
X209.392Y-79.214
X209.537Y-61.493
X209.538Y-71.878
X209.7Y-81.0
X209.937Y-33.209
X210.241Y-37.999
X210.469Y-140.41
X210.766Y-109.138
X210.766Y-130.3
X210.853Y-58.903
X210.983Y-141.584
X211.552Y-36.944
X211.611Y-103.748
X212.014Y-64.9
X212.104Y-61.443
X212.3Y-66.4
X212.6Y-73.4
X212.756Y-122.641
X213.2Y-67.5
X213.901Y-116.53
X214.38Y-126.072
X214.958Y-120.552
X215.84Y-59.987
X216.512Y-84.178
X216.575Y-39.179
X216.692Y-108.976
X216.921Y-123.028
X217.021Y-73.159
X217.07Y-110.843
X217.395Y-132.486
X217.456Y-105.073
X218.188Y-70.21
X218.19Y-120.533
X220.0Y-92.588
X221.959Y-131.948
X222.602Y-136.021
X223.23Y-137.476
X223.349Y-43.42
X224.966Y-86.445
X225.77Y-131.94
X226.133Y-125.239
X226.428Y-96.16
X227.04Y-131.932
X228.31Y-131.943
X229.177Y-96.109
X230.0Y-136.9
X230.376Y-98.096
X232.367Y-97.248
X232.577Y-91.516
X232.986Y-88.61
X233.19Y-97.391
X233.391Y-91.514
X233.79Y-88.752
X234.81Y-131.966
X235.112Y-88.395
X235.178Y-97.927
X235.193Y-92.551
X235.74Y-91.503
X235.836Y-126.019
X236.08Y-131.977
X236.9Y-31.8
X236.915Y-136.899
X237.38Y-119.835
X237.502Y-137.505
X237.85Y-123.046
X237.852Y-98.119
X237.977Y-129.575
X238.5Y-96.1
X238.5Y-122.562
X238.62Y-140.57
X239.398Y-122.574
X239.526Y-119.552
X240.68Y-131.722
X240.997Y-43.42
X241.157Y-120.465
X241.947Y-40.244
X241.952Y-132.708
X242.015Y-106.678
X242.207Y-124.795
X242.234Y-96.83
X243.184Y-54.506
X243.316Y-97.912
X243.417Y-41.169
X243.904Y-90.232
X244.1Y-126.5
X244.8Y-114.8
X245.302Y-83.245
X246.743Y-71.249
X247.074Y-131.293
X247.628Y-75.47
X248.204Y-82.094
X248.228Y-116.74
X248.5Y-60.4
X248.55Y-76.306
X248.927Y-114.784
X248.993Y-99.633
X248.997Y-92.413
X249.19Y-58.053
X249.208Y-102.451
X249.606Y-127.955
X249.754Y-62.178
X249.982Y-124.941
X250.023Y-90.655
X250.143Y-118.236
X250.2Y-113.0
X250.427Y-88.992
X250.46Y-58.063
X250.481Y-105.697
X250.765Y-76.45
X251.191Y-68.757
X251.206Y-108.867
X251.262Y-93.234
X251.313Y-98.483
X251.331Y-99.347
X251.354Y-95.317
X251.498Y-58.053
X251.73Y-79.705
X251.732Y-72.55
X251.767Y-66.139
X251.863Y-81.51
X252.326Y-76.453
X252.498Y-101.796
X252.523Y-83.133
X252.56Y-121.909
X252.631Y-113.704
X252.731Y-105.697
X252.99Y-127.802
X253.257Y-86.004
X253.319Y-109.871
X253.528Y-118.152
X253.677Y-83.253
X253.909Y-88.995
X254.117Y-92.829
X254.235Y-58.061
X254.242Y-59.832
X254.242Y-107.473
X254.385Y-51.445
X254.401Y-68.757
X254.515Y-91.747
X254.589Y-105.698
X254.679Y-72.59
X254.711Y-88.998
X254.84Y-115.462
X255.103Y-121.283
X255.2Y-47.1
X255.342Y-95.3
X255.49Y-102.373
X255.52Y-128.362
X255.662Y-87.925
X255.714Y-76.447
X255.765Y-54.813
X255.865Y-88.726
X256.166Y-80.866
X256.22Y-122.038
X256.4Y-109.6
X256.452Y-58.047
X256.462Y-102.465
X256.79Y-128.948
X256.952Y-59.434
X257.029Y-114.24
X257.292Y-83.483
X257.316Y-79.539
X257.387Y-108.833
X257.441Y-57.757
X257.534Y-76.657
X257.851Y-85.81
X257.969Y-95.239
X258.06Y-132.188
X258.6Y-90.4
X258.762Y-122.038
X258.772Y-95.394
X259.35Y-69.313
X259.35Y-98.553
X260.173Y-57.067
X262.315Y-39.238
T2
X91.11Y-98.21
X91.63Y-84.99
X113.1Y-72.7
X178.054Y-110.876
X202.7Y-138.4
X209.4Y-124.4
X217.3Y-139.0
X223.295Y-87.201
X247.643Y-69.114
X256.773Y-67.307
T3
X36.39Y-25.185
X36.39Y-32.805
X38.93Y-25.185
X38.93Y-32.805
X41.47Y-25.185
X41.47Y-32.805
X44.01Y-25.185
X44.01Y-32.805
X46.55Y-25.185
X46.55Y-32.805
X49.09Y-25.185
X49.09Y-32.805
X51.63Y-25.185
X51.63Y-32.805
X54.17Y-25.185
X54.17Y-32.805
X94.908Y-106.25
X102.528Y-106.25
X116.81Y-97.76
X116.81Y-105.38
X117.04Y-111.825
X117.04Y-119.445
X119.35Y-97.76
X119.35Y-105.38
X119.58Y-111.825
X119.58Y-119.445
X121.89Y-97.76
X121.89Y-105.38
X122.12Y-111.825
X122.12Y-119.445
X124.43Y-97.76
X124.43Y-105.38
X124.66Y-111.825
X124.66Y-119.445
X126.97Y-97.76
X126.97Y-105.38
X127.2Y-111.825
X127.2Y-119.445
X129.51Y-97.76
X129.51Y-105.38
X129.74Y-111.825
X129.74Y-119.445
X132.05Y-97.76
X132.05Y-105.38
X132.28Y-111.825
X132.28Y-119.445
X134.59Y-97.76
X134.59Y-105.38
X134.82Y-111.825
X134.82Y-119.445
X142.68Y-83.09
X142.68Y-93.25
X142.74Y-100.13
X142.74Y-115.37
X142.74Y-122.11
X142.74Y-137.35
X145.22Y-83.09
X145.22Y-93.25
X145.28Y-100.13
X145.28Y-115.37
X145.28Y-122.11
X145.28Y-137.35
X147.76Y-83.09
X147.76Y-93.25
X147.82Y-100.13
X147.82Y-115.37
X147.82Y-122.11
X147.82Y-137.35
X150.3Y-83.09
X150.3Y-93.25
X150.36Y-100.13
X150.36Y-115.37
X150.36Y-122.11
X150.36Y-137.35
X152.84Y-83.09
X152.84Y-93.25
X152.9Y-100.13
X152.9Y-115.37
X152.9Y-122.11
X152.9Y-137.35
X155.0Y-41.7
X155.0Y-49.32
X155.38Y-83.09
X155.38Y-93.25
X155.44Y-100.13
X155.44Y-115.37
X155.44Y-122.11
X155.44Y-137.35
X157.54Y-41.7
X157.54Y-49.32
X157.92Y-83.09
X157.92Y-93.25
X157.98Y-100.13
X157.98Y-115.37
X157.98Y-122.11
X157.98Y-137.35
X160.08Y-41.7
X160.08Y-49.32
X160.46Y-83.09
X160.46Y-93.25
X160.52Y-100.13
X160.52Y-115.37
X160.52Y-122.11
X160.52Y-137.35
X162.62Y-41.7
X162.62Y-49.32
X163.0Y-83.09
X163.0Y-93.25
X163.06Y-100.13
X163.06Y-115.37
X163.06Y-122.11
X163.06Y-137.35
X165.16Y-41.7
X165.16Y-49.32
X165.54Y-83.09
X165.54Y-93.25
X165.6Y-100.13
X165.6Y-115.37
X165.6Y-122.11
X165.6Y-137.35
X167.7Y-41.7
X167.7Y-49.32
X168.08Y-83.09
X168.08Y-93.25
X168.14Y-100.13
X168.14Y-115.37
X168.14Y-122.11
X168.14Y-137.35
X170.24Y-41.7
X170.24Y-49.32
X170.62Y-83.09
X170.62Y-93.25
X170.68Y-100.13
X170.68Y-115.37
X170.68Y-122.11
X170.68Y-137.35
X172.78Y-41.7
X172.78Y-49.32
X173.22Y-100.13
X173.22Y-115.37
X173.22Y-122.11
X173.22Y-137.35
X175.76Y-100.13
X175.76Y-115.37
X175.76Y-122.11
X175.76Y-137.35
X178.3Y-122.11
X178.3Y-137.35
X179.33Y-41.755
X179.33Y-49.375
X180.61Y-55.42
X180.61Y-65.58
X180.84Y-122.11
X180.84Y-137.35
X181.87Y-41.755
X181.87Y-49.375
X183.38Y-122.11
X183.38Y-137.35
X184.41Y-41.755
X184.41Y-49.375
X185.92Y-122.11
X185.92Y-137.35
X186.95Y-41.755
X186.95Y-49.375
X188.46Y-122.11
X188.46Y-137.35
X189.49Y-41.755
X189.49Y-49.375
X191.0Y-122.11
X191.0Y-137.35
X192.03Y-41.755
X192.03Y-49.375
X194.57Y-41.755
X194.57Y-49.375
X201.08Y-41.755
X201.08Y-49.375
X203.62Y-41.755
X203.62Y-49.375
X206.16Y-41.755
X206.16Y-49.375
X208.7Y-41.755
X208.7Y-49.375
X211.24Y-41.755
X211.24Y-49.375
X213.78Y-41.755
X213.78Y-49.375
X216.32Y-41.755
X216.32Y-49.375
X222.95Y-41.7
X222.95Y-49.32
X223.72Y-55.5
X225.49Y-41.7
X225.49Y-49.32
X225.84Y-102.185
X225.84Y-109.805
X225.9Y-61.685
X225.9Y-69.305
X225.9Y-76.0
X225.9Y-83.62
X226.26Y-55.5
X228.03Y-41.7
X228.03Y-49.32
X228.38Y-102.185
X228.38Y-109.805
X228.44Y-61.685
X228.44Y-69.305
X228.44Y-76.0
X228.44Y-83.62
X228.8Y-55.5
X230.57Y-41.7
X230.57Y-49.32
X230.92Y-102.185
X230.92Y-109.805
X230.98Y-61.685
X230.98Y-69.305
X230.98Y-76.0
X230.98Y-83.62
X231.34Y-55.5
X233.11Y-41.7
X233.11Y-49.32
X233.46Y-102.185
X233.46Y-109.805
X233.52Y-61.685
X233.52Y-69.305
X233.52Y-76.0
X233.52Y-83.62
X233.88Y-55.5
X235.65Y-41.7
X235.65Y-49.32
X236.0Y-102.185
X236.0Y-109.805
X236.06Y-61.685
X236.06Y-69.305
X236.06Y-76.0
X236.06Y-83.62
X236.42Y-55.5
X238.19Y-41.7
X238.19Y-49.32
X238.54Y-102.185
X238.54Y-109.805
X238.6Y-61.685
X238.6Y-69.305
X238.6Y-76.0
X238.6Y-83.62
X238.96Y-55.5
X241.08Y-102.185
X241.08Y-109.805
X241.14Y-61.685
X241.14Y-69.305
X241.14Y-76.0
X241.14Y-83.62
X241.5Y-55.5
X244.875Y-41.75
X244.875Y-49.37
X247.415Y-41.75
X247.415Y-49.37
X249.955Y-41.75
X249.955Y-49.37
X252.495Y-41.75
X252.495Y-49.37
X255.035Y-41.75
X255.035Y-49.37
X257.575Y-41.75
X257.575Y-49.37
X260.115Y-41.75
X260.115Y-49.37
T4
X34.75Y-38.0
X34.75Y-40.0
X36.75Y-38.0
X36.75Y-40.0
X38.75Y-38.0
X38.75Y-40.0
X40.75Y-38.0
X40.75Y-40.0
X42.75Y-38.0
X42.75Y-40.0
X44.75Y-38.0
X44.75Y-40.0
X46.75Y-38.0
X46.75Y-40.0
X48.75Y-38.0
X48.75Y-40.0
X50.75Y-38.0
X50.75Y-40.0
X52.75Y-38.0
X52.75Y-40.0
X54.75Y-38.0
X54.75Y-40.0
X56.75Y-38.0
X56.75Y-40.0
X58.75Y-38.0
X58.75Y-40.0
X60.75Y-38.0
X60.75Y-40.0
X62.75Y-38.0
X62.75Y-40.0
X64.75Y-38.0
X64.75Y-40.0
X66.75Y-38.0
X66.75Y-40.0
X68.75Y-38.0
X68.75Y-40.0
X70.75Y-38.0
X70.75Y-40.0
X72.75Y-38.0
X72.75Y-40.0
X74.75Y-38.0
X74.75Y-40.0
X76.75Y-38.0
X76.75Y-40.0
T5
X61.74Y-27.0
X64.28Y-27.0
X66.82Y-27.0
X69.36Y-27.0
X71.9Y-27.0
X81.52Y-26.46
X81.52Y-29.0
X84.06Y-26.46
X84.06Y-29.0
X86.6Y-26.46
X86.6Y-29.0
X89.14Y-26.46
X89.14Y-29.0
X90.667Y-135.288
X90.9Y-141.4
X91.68Y-26.46
X91.68Y-29.0
X93.207Y-135.288
X94.22Y-26.46
X94.22Y-29.0
X94.4Y-141.4
X95.46Y-114.25
X95.748Y-135.288
X96.76Y-26.46
X96.76Y-29.0
X97.9Y-141.4
X98.0Y-114.25
X98.287Y-135.288
X99.3Y-26.46
X99.3Y-29.0
X100.54Y-114.25
X100.828Y-135.288
X101.4Y-141.4
X101.84Y-26.46
X101.84Y-29.0
X104.38Y-26.46
X104.38Y-29.0
X104.85Y-141.4
X106.92Y-26.46
X106.92Y-29.0
X109.46Y-26.46
X109.46Y-29.0
X110.75Y-95.5
X112.0Y-26.46
X112.0Y-29.0
X114.54Y-26.46
X114.54Y-29.0
X117.08Y-26.46
X117.08Y-29.0
X119.62Y-26.46
X119.62Y-29.0
X122.16Y-26.46
X122.16Y-29.0
X124.7Y-26.46
X124.7Y-29.0
X127.24Y-26.46
X127.24Y-29.0
X129.78Y-26.46
X129.78Y-29.0
X130.75Y-36.5
X138.75Y-54.25
X142.25Y-54.25
X145.75Y-54.25
X149.25Y-54.25
X152.75Y-54.25
X156.25Y-54.25
X187.2Y-60.5
X194.8Y-60.5
X199.87Y-26.67
X199.87Y-29.21
X201.225Y-55.5
X202.41Y-26.67
X202.41Y-29.21
X203.765Y-55.5
X204.95Y-26.67
X204.95Y-29.21
X207.49Y-26.67
X207.49Y-29.21
X210.03Y-26.67
X210.03Y-29.21
X212.57Y-26.67
X212.57Y-29.21
X215.11Y-26.67
X215.11Y-29.21
X217.65Y-26.67
X217.65Y-29.21
X220.19Y-26.67
X220.19Y-29.21
X222.73Y-26.67
X222.73Y-29.21
X225.27Y-26.67
X225.27Y-29.21
X227.81Y-26.67
X227.81Y-29.21
X230.35Y-26.67
X230.35Y-29.21
X232.89Y-26.67
X232.89Y-29.21
X235.43Y-26.67
X235.43Y-29.21
X237.97Y-26.67
X237.97Y-29.21
X240.51Y-26.67
X240.51Y-29.21
X247.75Y-137.75
M30
